<svg width="41" height="39" viewBox="0 0 41 39" fill="none" xmlns="http://www.w3.org/2000/svg">
<path d="M39.8582 8.50899C39.891 8.49183 39.9179 8.46459 39.9489 8.44407C40.1336 8.32319 40.2597 8.16425 40.2873 7.93853C40.2873 7.81429 40.2873 7.69005 40.2873 7.56581C40.244 7.29307 40.0645 7.13637 39.8276 7.02929C39.7825 7.00877 39.7358 6.99161 39.6896 6.97333C33.9782 4.69185 28.2672 2.41037 22.5578 0.125154C22.379 0.0535196 22.1988 0.0184486 22.0097 0.019941C22.0108 0.0244181 22.0119 0.0292684 22.0142 0.0333724C21.8246 0.0337455 21.6351 0.0344917 21.4456 0.0348648C21.45 0.0300145 21.4526 0.0247912 21.4534 0.0191948C21.0661 0.0106136 20.7247 0.141943 20.4158 0.37177C20.0815 0.620252 19.7427 0.861645 19.4062 1.10677C18 2.13092 16.5923 3.1532 15.1846 4.17586C13.1636 5.64362 11.1433 7.11212 9.1222 8.58025C7.98612 9.40554 6.85004 10.2305 5.71396 11.0565C4.23128 12.134 2.74636 13.2085 1.26629 14.2897C1.14503 14.3782 1.03497 14.4793 0.946544 14.6002C0.65553 14.999 0.427568 15.431 0.258555 15.8959C0.107079 16.3119 0.0223858 16.7399 0 17.1812C0 17.5166 0 17.8521 0 18.1875C0.0119391 18.202 0.0190279 18.2184 0.0186548 18.2378C0.0134315 18.9434 0.268629 19.5743 0.593596 20.1802C0.678661 20.3387 0.674557 20.4559 0.589118 20.6092C0.333175 21.067 0.150731 21.5547 0.0518603 22.0718C0.0171624 22.2535 0.0373096 22.4404 0 22.6221C0 22.9452 0 23.2679 0 23.591C0.0436522 23.685 0.0145507 23.7858 0.0231319 23.8828C0.0813349 24.5267 0.327951 25.1058 0.632771 25.6639C0.686496 25.7624 0.692466 25.8352 0.637994 25.9359C0.452565 26.2799 0.28318 26.631 0.164535 27.006C0.0596953 27.3395 0.030967 27.682 0 28.026C0 28.3614 0 28.6968 0 29.0323C0.0440253 29.1263 0.0134315 29.227 0.0238781 29.3244C0.115287 30.1691 0.469355 30.9056 0.944679 31.595C1.07302 31.7816 1.23457 31.9014 1.44649 31.9861C7.12762 34.2507 12.8061 36.5225 18.4854 38.7917C18.7402 38.8935 18.9924 38.979 19.273 38.995C19.8241 39.0267 20.3296 38.935 20.7878 38.6025C22.7536 37.1751 24.7198 35.748 26.6849 34.3198C28.5396 32.9721 30.3935 31.623 32.2485 30.2754C34.8173 28.4092 37.3857 26.543 39.9548 24.6775C40.1268 24.5525 40.257 24.4055 40.2873 24.1876C40.2873 24.0634 40.2873 23.9391 40.2873 23.8149C40.2567 23.5444 40.0892 23.3851 39.8522 23.284C39.7097 23.2231 39.5556 23.2213 39.412 23.2556C39.2538 23.2933 39.1881 23.2347 39.1355 23.0967C38.8292 22.2956 38.7673 21.483 38.9915 20.6503C39.146 20.0761 39.3866 19.5705 39.9422 19.2683C40.138 19.162 40.2623 18.9803 40.2869 18.7467C40.2869 18.6348 40.2869 18.5233 40.2869 18.4113C40.1809 17.9659 39.8463 17.7487 39.3881 17.845C39.2549 17.873 39.1993 17.8345 39.1519 17.7148C38.8512 16.9563 38.7632 16.1802 38.9553 15.3825C39.1046 14.7621 39.3228 14.186 39.9384 13.8596C40.1369 13.7543 40.2645 13.5786 40.2869 13.3432C40.2869 13.2313 40.2869 13.1197 40.2869 13.0078C40.1865 12.5854 39.8306 12.319 39.4504 12.4194C39.2251 12.4787 39.212 12.4597 39.1221 12.225C38.7822 11.34 38.7669 10.4502 39.0751 9.55068C39.2243 9.11415 39.434 8.73397 39.8582 8.50899ZM17.6777 7.39344C18.7865 6.58755 19.8953 5.78166 21.0042 4.9754C21.084 4.91757 21.1493 4.87392 21.2676 4.9213C24.7833 6.33198 28.3012 7.73668 31.8187 9.14251C31.8575 9.15818 31.8948 9.17758 31.9325 9.19512C31.9247 9.26302 31.8691 9.27608 31.8329 9.30257C30.5995 10.2006 29.3641 11.0964 28.1318 11.9963C28.043 12.0612 27.9729 12.0788 27.865 12.0355C24.3154 10.6125 20.7639 9.19288 17.1781 7.75907C17.3605 7.6255 17.5187 7.5091 17.6777 7.39344ZM1.8375 16.025C1.88413 15.9243 1.91995 15.8668 2.06471 15.925C7.59511 18.1416 13.1278 20.3518 18.6608 22.5624C19.4185 22.865 20.1315 22.7739 20.7889 22.2964C26.4309 18.1994 32.0713 14.1002 37.7122 10.0017C37.7558 9.97003 37.8017 9.94168 37.8752 9.8928C37.8207 10.2469 37.7823 10.57 37.7864 10.8979C37.795 11.6277 37.9547 12.3217 38.2752 12.9757C38.3408 13.11 38.3371 13.1746 38.2069 13.2686C33.3753 16.7716 28.5478 20.2794 23.7196 23.7869C22.46 24.7021 21.2001 25.6169 19.9416 26.5336C19.7058 26.7056 19.4625 26.7325 19.1898 26.6235C13.549 24.3689 7.90739 22.1162 2.26507 19.8657C2.14306 19.8172 2.05688 19.7474 1.99159 19.6332C1.31852 18.4565 1.26778 17.2544 1.8375 16.025ZM1.81772 21.4804C1.88824 21.3245 1.94793 21.2916 2.1121 21.3577C6.00535 22.9206 9.90085 24.4782 13.7967 26.0355C15.4316 26.6892 17.0662 27.3444 18.704 27.9902C19.4264 28.2749 20.1229 28.1909 20.7497 27.7365C25.7063 24.1417 30.6588 20.5413 35.612 16.9428C36.3541 16.4037 37.0958 15.8646 37.8756 15.2978C37.8245 15.6482 37.7838 15.9605 37.7853 16.278C37.7883 17.0212 37.9483 17.7271 38.2763 18.3919C38.3438 18.5289 38.3308 18.5912 38.2043 18.6829C33.0873 22.3945 27.974 26.1109 22.86 29.8262C21.8862 30.5336 20.9109 31.2384 19.9397 31.9491C19.7069 32.1196 19.4633 32.1495 19.204 32.0457C13.5426 29.7852 7.88202 27.5231 2.22067 25.2629C2.12851 25.2263 2.06546 25.1703 2.01658 25.0868C1.33158 23.9186 1.2592 22.7195 1.81772 21.4804ZM38.2214 24.0805C32.1314 28.5021 26.0428 32.9263 19.9558 37.3519C19.7066 37.5329 19.4555 37.5627 19.1704 37.4489C13.5706 35.2089 7.97007 32.9695 2.36729 30.7369C2.15649 30.653 2.01957 30.5295 1.91771 30.3344C1.32113 29.1927 1.29017 28.0406 1.82817 26.8694C1.88973 26.7355 1.9457 26.7056 2.08971 26.7631C7.6231 28.9789 13.158 31.1917 18.6943 33.4008C19.4226 33.6915 20.124 33.6049 20.7572 33.1456C24.881 30.1553 29.0004 27.1593 33.1216 24.1648C34.6625 23.0452 36.2037 21.9255 37.7446 20.8062C37.7786 20.7816 37.8155 20.7603 37.8726 20.7234C37.8282 21.0532 37.7857 21.358 37.7853 21.6681C37.7838 22.4314 37.9528 23.1538 38.2901 23.835C38.3535 23.9649 38.3214 24.0081 38.2214 24.0805Z" fill="#1F2B35"/>
<path d="M21.977 0.0190279C21.9879 0.0186548 21.9987 0.0190279 22.0095 0.0190279C22.0084 0.0130584 22.0076 0.00671573 22.0084 0C21.8218 0 21.6353 0 21.4487 0C21.4525 0.00634263 21.4536 0.0123122 21.4528 0.0182817C21.4655 0.0186548 21.4782 0.0186548 21.4909 0.0190279C21.6536 0.0190279 21.8155 0.0190279 21.977 0.0190279Z" fill="#1F2B35"/>
</svg>
