<svg width="32" height="32" viewBox="0 0 32 32" fill="none" xmlns="http://www.w3.org/2000/svg">
<path d="M31.696 9.91956C31.696 9.63675 31.7009 9.35394 31.7033 9.07031C31.6814 8.92484 31.6724 8.77531 31.635 8.6339C31.1889 6.94922 30.0779 5.88624 28.4843 5.27754C27.5416 4.91752 26.5566 4.9419 25.5733 4.96385C25.336 4.96872 25.2474 4.92077 25.249 4.65909C25.2514 4.10484 25.162 3.55628 24.9288 3.04836C24.0162 1.06136 22.4184 0.11215 20.2754 2.53125e-07C18.4428 0.00325097 16.6094 0.00893973 14.7768 0.00812705C11.5277 0.00812705 8.27945 0.00325097 5.03117 2.53125e-07C2.52811 -0.000812426 -0.0480793 1.95531 0.000681507 5.17839C0.0860128 10.8216 0.0226239 16.4673 0.0250619 22.1122C0.0258746 24.226 1.29772 25.9684 3.29772 26.69C4.25425 27.0354 5.23108 26.998 6.2128 26.9891C6.46148 26.9866 6.57119 27.0297 6.56225 27.3133C6.54437 27.8554 6.65409 28.3828 6.85807 28.8883C7.62118 30.7786 9.5261 31.9919 11.7764 31.9952C16.6915 32.0025 21.6074 32.0009 26.5225 31.9944C27.5611 31.9927 28.555 31.7725 29.4449 31.2109C30.6744 30.4348 31.5131 29.384 31.7001 27.8936C31.696 27.8538 31.6879 27.8131 31.6879 27.7733C31.6903 21.8221 31.6927 15.8708 31.696 9.91956ZM6.84832 8.07559C6.60695 8.67291 6.55088 9.29949 6.55088 9.93744C6.55331 14.9598 6.54763 19.9822 6.56144 25.0037C6.56225 25.3743 6.46961 25.4742 6.10065 25.4637C5.30666 25.4409 4.50292 25.5108 3.75526 25.1719C2.42734 24.5705 1.71381 23.5539 1.71381 22.0724C1.71381 19.2101 1.71381 16.3479 1.71381 13.4856C1.71381 10.6778 1.75526 7.86836 1.70081 5.06137C1.65855 2.86144 3.38387 1.53434 5.23352 1.53921C10.2014 1.55141 15.1693 1.54165 20.1381 1.5449C21.7277 1.54572 23.08 2.54044 23.4692 3.97807C23.7228 4.91346 23.687 4.95978 22.7305 4.95978C19.0312 4.95978 15.3327 4.95653 11.6334 4.96141C9.5074 4.96303 7.60167 6.2105 6.84832 8.07559ZM26.737 30.417C23.8073 30.4202 20.8776 30.4178 17.9487 30.4178C15.8292 30.4178 13.7098 30.4218 11.5903 30.4161C10.0308 30.4121 8.67522 29.3735 8.31764 27.918C8.23637 27.588 8.24369 27.2483 8.24369 26.9119C8.24125 24.1041 8.24206 21.2954 8.24206 18.4876C8.24206 15.666 8.29082 12.8436 8.22662 10.0228C8.17624 7.81391 9.91456 6.50956 11.765 6.51281C16.7199 6.52094 21.674 6.51444 26.6289 6.51606C28.351 6.51688 29.735 7.62374 30.0389 9.24667C30.0755 9.44333 30.0763 9.64894 30.0763 9.85049C30.0779 15.6018 30.0584 21.3531 30.0885 27.1045C30.0974 29.0533 28.4485 30.4153 26.737 30.417Z" fill="#1F2B35"/>
<path d="M11.0822 12.6258C11.1756 12.6363 11.2707 12.6298 11.365 12.6298C15.6161 12.6298 19.8664 12.6298 24.1175 12.629C24.2516 12.629 24.389 12.629 24.5182 12.6014C24.8944 12.5209 25.0919 12.2438 25.0545 11.8724C25.0163 11.4921 24.7303 11.2808 24.2354 11.2808C22.0761 11.2792 19.9168 11.28 17.7575 11.28C16.2459 11.28 14.7343 11.28 13.2236 11.28C12.5222 11.28 11.8201 11.2694 11.1187 11.284C10.7189 11.293 10.4344 11.5807 10.4255 11.9366C10.4166 12.2901 10.6904 12.5803 11.0822 12.6258Z" fill="#1F2B35"/>
<path d="M13.8211 15.8139C13.4359 15.8513 13.1872 16.1439 13.2116 16.5275C13.2368 16.9224 13.5009 17.1288 14.0097 17.1297C16.0349 17.1329 18.0601 17.1313 20.0844 17.1313C22.069 17.1313 24.0536 17.1313 26.0381 17.1305C26.173 17.1305 26.3087 17.1313 26.4412 17.1134C26.8053 17.0638 26.9825 16.8347 26.9922 16.4803C27.0044 16.0618 26.7126 15.8123 26.2137 15.8123C22.1364 15.8107 18.0592 15.8115 13.982 15.8115C13.9292 15.8115 13.8748 15.8091 13.8211 15.8139Z" fill="#1F2B35"/>
<path d="M21.8496 21.6685C22.1731 21.6685 22.4981 21.6774 22.8199 21.6498C23.262 21.6124 23.4961 21.2979 23.4311 20.8737C23.3726 20.4958 23.1028 20.3267 22.5363 20.3267C18.8118 20.3259 15.0881 20.3259 11.3636 20.3267C11.2425 20.3267 11.1198 20.3284 11.0011 20.347C10.6452 20.4031 10.4632 20.6331 10.4347 20.9761C10.4071 21.3084 10.6558 21.5937 11.0028 21.6441C11.1621 21.6677 11.3254 21.6677 11.4871 21.6677C13.3092 21.6693 15.1304 21.6685 16.9524 21.6685C18.5843 21.6693 20.2169 21.6701 21.8496 21.6685Z" fill="#1F2B35"/>
<path d="M26.4422 24.8664C26.2813 24.8225 26.122 24.8274 25.9611 24.8274C22.6974 24.8265 19.4328 24.8265 16.1691 24.8265C15.9399 24.8265 15.7099 24.8152 15.4816 24.8306C15.2045 24.8493 14.9525 24.9322 14.8038 25.1971C14.5438 25.6628 14.8778 26.1788 15.4564 26.1813C17.25 26.187 19.0444 26.1837 20.838 26.1837C21.202 26.1837 21.5661 26.1837 21.9302 26.1837C23.3865 26.1837 24.8436 26.187 26.3 26.1813C26.6909 26.1797 26.9591 25.9383 26.9924 25.5896C27.0289 25.2248 26.8258 24.9704 26.4422 24.8664Z" fill="#1F2B35"/>
</svg>
