<svg width="78" height="23" viewBox="0 0 78 23" fill="none" xmlns="http://www.w3.org/2000/svg">
<path d="M15.0429 2.27656C13.7432 0.878919 11.9626 0.0288086 9.98711 0.0288086C8.01159 0.0288086 6.23103 0.893328 4.93135 2.27656C3.63167 3.6742 2.83887 5.59054 2.83887 7.72302C2.83887 9.8555 3.64467 11.7719 4.93135 13.1695C6.23103 14.5671 8.01159 15.4172 9.98711 15.4172C11.9626 15.4172 13.7432 14.5527 15.0429 13.1695C16.3425 11.7719 17.1354 9.8555 17.1354 7.72302C17.1483 5.60495 16.3425 3.6742 15.0429 2.27656ZM9.83115 0.403434V1.81548C8.46648 1.85871 7.23179 2.43505 6.29602 3.35721L5.37324 2.33419C6.55595 1.1815 8.11557 0.44666 9.83115 0.403434ZM9.5972 7.91034L9.12932 8.42905C8.93437 8.25615 8.90837 8.12647 8.90837 8.12647V7.98238L8.49248 7.92475H9.5972V7.91034ZM9.11632 7.55012L9.18131 7.10345L9.58421 7.55012H9.11632ZM8.50547 8.61636C8.50547 8.61636 8.47948 8.86131 8.55746 9.06303L8.05059 9.62497C7.69967 9.20712 7.45273 8.65959 7.38775 8.06883C7.42674 8.09765 7.49172 8.12647 7.55671 8.16969C8.24554 8.61636 8.50547 8.61636 8.50547 8.61636ZM6.84188 9.26475C6.7639 8.99099 6.7899 8.93335 6.33501 8.74604C5.88012 8.55873 6.15305 8.22733 6.15305 8.22733C6.15305 8.22733 6.07507 8.22733 5.93211 8.22733C5.91911 8.12647 5.91911 8.02561 5.90611 7.92475H6.71191C6.7639 7.98238 6.81589 7.98238 6.81589 7.98238L6.86788 7.92475H7.03684C7.07583 8.68841 7.36176 9.38002 7.81664 9.89873L7.1668 10.6192C7.07583 10.5615 6.99784 10.5039 6.95885 10.4607C6.81589 10.3598 6.97185 10.2878 6.97185 9.89873C6.95885 9.5097 6.91986 9.53851 6.84188 9.26475ZM5.63318 8.45787L5.21728 8.52991L5.1653 8.78927C5.1653 8.78927 5.11331 8.97658 5.02233 9.22153C4.91836 8.80368 4.85337 8.35701 4.82738 7.91034H5.5682C5.5682 8.02561 5.58119 8.14087 5.59419 8.24174C5.26927 8.29937 5.63318 8.45787 5.63318 8.45787ZM5.58119 7.55012H4.84038C4.87937 6.12367 5.42523 4.8413 6.28302 3.89033L6.7899 4.45226C6.07507 5.25915 5.62018 6.3398 5.58119 7.55012ZM7.53071 7.91034V7.96797C7.53071 8.04002 7.45273 8.04001 7.37475 8.0112C7.37475 7.98238 7.37475 7.93916 7.36176 7.91034H7.53071ZM7.37475 7.55012C7.37475 7.49249 7.38775 7.44926 7.38775 7.39163L7.49172 7.55012H7.37475ZM7.45273 6.08044L7.30977 6.1813C7.30977 6.1813 6.99784 6.39743 6.94586 6.59915C6.82889 6.80087 6.65993 7.18991 6.64693 7.55012H5.93211C5.9711 6.45507 6.38699 5.46087 7.04983 4.71162L7.82964 5.57614C7.67368 5.72022 7.55671 5.90754 7.45273 6.08044ZM7.9726 5.92194C7.9986 5.89313 8.02459 5.86431 8.05059 5.83549L8.14156 5.93635L7.9726 5.92194ZM8.05059 5.31678L7.27078 4.45226C7.95961 3.80387 8.84339 3.38602 9.81815 3.3428V4.53872C9.15531 4.58194 8.53147 4.87011 8.05059 5.31678ZM7.03684 4.19291L6.52996 3.63097C7.41374 2.78086 8.55746 2.23333 9.83115 2.19011V2.96817C8.75241 3.0114 7.79065 3.47247 7.03684 4.19291ZM3.18978 7.72302C3.18978 5.72022 3.9306 3.91914 5.1393 2.59355L6.06207 3.61656C5.1393 4.63957 4.56744 6.02281 4.51546 7.55012H3.22877V7.92475H4.51546C4.52845 8.41464 4.59344 8.87572 4.71041 9.32238C4.63243 9.32238 4.55445 9.29357 4.20353 9.23593L3.73565 9.30797C3.73565 9.30797 4.04757 10.2013 4.19053 10.2734C4.26852 10.3454 4.58044 10.4895 4.58044 10.4895C4.58044 10.4895 4.7234 10.6192 4.97034 10.9073C5.21728 11.1955 5.19129 11.1955 5.42523 11.3252C5.67217 11.4549 5.72416 11.4549 5.86712 11.6422C5.9451 11.743 5.98409 11.7863 6.04908 11.8583L5.1523 12.8525C3.9306 11.5413 3.18978 9.72582 3.18978 7.72302ZM9.83115 15.057C8.11557 15.0138 6.55595 14.279 5.37324 13.1119L6.29602 12.0888C7.23179 13.011 8.46648 13.5873 9.83115 13.6306V15.057ZM9.83115 13.2704C8.55746 13.2271 7.41374 12.694 6.52996 11.8295C6.62094 11.8295 6.97185 11.8007 7.24478 11.7574C7.55671 11.6998 7.5827 11.7142 7.5827 11.7142C8.23254 12.1753 8.99935 12.4491 9.83115 12.4923V13.2704ZM7.76466 11.3972L7.75166 10.9362C7.75166 10.9362 7.62169 10.8785 7.46573 10.7921L8.05059 10.1437C8.37551 10.4463 8.77841 10.6912 9.2073 10.8209V10.8497C9.2073 10.8497 9.2203 11.0946 9.07733 11.2964C8.93437 11.4981 8.53147 11.4549 8.96036 11.6278C9.38926 11.8583 9.83115 12.1177 9.83115 12.1177C9.06434 12.0888 8.36251 11.8295 7.76466 11.3972ZM9.83115 9.63938V9.99959L9.5972 10.1437L9.54522 10.5039H9.53222C9.49323 10.4174 9.37626 10.1869 9.31128 10.4463C8.93437 10.331 8.59645 10.1437 8.29752 9.86991L8.84339 9.26475C9.18131 9.33679 8.89538 9.3512 9.33727 9.33679C9.53222 9.33679 9.67519 9.33679 9.77916 9.33679C9.79216 9.33679 9.81815 9.3512 9.83115 9.3512V9.63938V9.63938ZM9.83115 6.57033V7.29076L9.42825 6.8441L9.83115 6.57033ZM9.83115 5.77786C9.12932 5.80667 9.83115 5.5185 8.83039 6.09485L8.71342 6.03721L8.28453 5.56173C8.70043 5.1871 9.2073 4.94216 9.77916 4.89893H9.81815L9.84414 5.677C9.85714 5.74904 9.85714 5.77786 9.83115 5.77786ZM10.1691 1.59935C10.1691 1.81548 10.598 1.8443 10.598 1.8443C10.598 1.8443 10.559 1.52731 10.7409 1.52731C10.9229 1.52731 11.2218 1.45527 11.2218 1.45527L11.2608 0.792467C10.9489 0.76365 11.0788 0.66279 10.8709 0.76365C10.6629 0.864511 10.9359 0.792468 10.546 0.950963C10.1821 1.10946 10.1691 1.38322 10.1691 1.58494V0.403434C11.8846 0.44666 13.4443 1.1815 14.627 2.3486L13.8602 3.19871L13.5222 2.82408C13.1843 2.44946 13.3533 2.3486 13.3663 2.19011C13.2883 1.67139 13.0284 2.37742 13.0284 2.37742L12.7944 2.16129C12.7944 2.16129 12.1576 2.29097 12.4045 2.42064C12.4955 2.46387 12.5605 2.49269 12.5995 2.52151C11.8716 2.10366 11.0399 1.8443 10.1691 1.81548V1.59935V1.59935ZM14.7699 5.61936C15.0039 6.21012 15.1338 6.85851 15.1468 7.53571H14.406C14.367 6.3398 13.9121 5.24474 13.1843 4.43785L13.4053 4.19291C13.4703 4.29377 13.5352 4.38022 13.5612 4.45226C13.6652 4.75485 13.9251 4.72603 14.471 4.99979L14.497 5.0142C14.601 5.21592 14.692 5.40324 14.7699 5.61936C14.7569 5.61936 14.7569 5.63377 14.7569 5.63377C14.7569 5.63377 14.7569 5.63377 14.7699 5.61936ZM12.4695 10.2157L12.4045 10.1437C12.3785 10.086 12.3785 9.99959 12.4175 9.86991C12.4695 9.69701 12.4565 9.61056 12.4305 9.55292C12.5215 9.40884 12.6125 9.25034 12.6774 9.07744L12.9114 8.81808L13.5092 8.94776C13.5092 8.94776 13.7822 8.94776 13.9381 8.86131C13.7562 9.58174 13.4183 10.2301 12.9504 10.7632L12.6904 10.4751C12.7554 10.4895 12.8074 10.4895 12.8074 10.4319C12.6774 10.3166 12.5475 10.2734 12.4695 10.2157ZM13.1843 7.55012V7.5213C13.2493 7.16109 13.2493 7.20431 13.3143 6.95937C13.3793 6.70001 13.5352 6.55593 13.4053 6.41184C13.2363 6.35421 13.0933 6.29657 13.0284 5.95076C12.9504 5.60495 12.4825 5.60496 12.4825 5.60496L12.2096 5.59055L12.1836 5.56173L12.9634 4.69721C13.6262 5.44646 14.0421 6.44066 14.0811 7.53571H13.1843V7.55012ZM14.0811 7.91034C14.0681 8.14088 14.0421 8.37141 14.0031 8.58754C13.8862 8.52991 13.6132 8.60195 13.6132 8.60195C13.6132 8.60195 13.2103 8.21292 13.0933 7.91034H14.0811ZM12.4175 10.6768C12.0276 10.6624 12.1706 10.9506 11.9626 10.6336C11.7547 10.3166 11.8976 10.4895 11.7547 10.3166C11.7807 10.3022 11.8067 10.2734 11.8197 10.2589C11.8846 10.2734 11.9626 10.2878 12.0666 10.2878L12.4175 10.6768ZM13.0024 12.0024C13.0024 11.8151 13.3663 11.743 13.2103 11.5557L13.4703 11.8439C13.2753 12.0312 13.0544 12.2185 12.8334 12.377C12.8334 12.3482 13.0024 12.1753 13.0024 12.0024ZM13.1973 11.0082C13.9121 10.2013 14.367 9.10626 14.419 7.91034H15.1598C15.1208 9.33679 14.575 10.6192 13.7172 11.5701L13.1973 11.0082ZM10.1691 2.19011C11.0399 2.21892 11.8457 2.47828 12.5605 2.91054C12.4045 3.21312 12.7164 2.99699 12.5865 3.24194C12.4565 3.48689 12.8204 3.50129 12.8204 3.50129C12.8204 3.50129 13.0024 3.6886 13.1973 3.91914L12.9634 4.1785C12.2226 3.45807 11.2478 2.99699 10.1821 2.95377V2.19011H10.1691ZM10.1691 3.3428C11.1438 3.38602 12.0406 3.80387 12.7164 4.45226L11.9366 5.31678C11.4557 4.87011 10.8319 4.58194 10.1561 4.53872V3.3428H10.1691ZM10.1691 4.91334C10.7539 4.95656 11.2868 5.20151 11.7027 5.57614L11.0788 6.26775C11.0658 6.28216 10.9359 6.41184 10.8709 6.03721C10.8059 5.64818 10.9619 5.72022 10.9229 5.48968C10.8709 5.25915 10.6629 5.61936 10.6629 5.61936C10.6629 5.61936 10.546 5.72022 10.1691 5.77786V4.91334V4.91334ZM11.4817 9.12066L11.1698 8.77486C11.1958 8.27055 11.4168 8.8469 11.4168 8.8469L11.4817 9.12066ZM10.403 7.55012L10.624 7.30517L10.6369 7.55012H10.403ZM10.6369 7.91034V8.16969L10.403 7.91034H10.6369ZM10.1691 6.80087C10.429 6.91614 10.416 7.00259 10.39 7.03141L10.1691 7.29076V6.80087ZM10.1691 8.1841L10.403 8.44346C10.403 8.44346 10.312 8.48668 10.1691 8.55873V8.1841ZM10.559 10.2445C10.9619 10.2445 11.0788 10.3166 11.0788 10.3166L11.1698 9.98518V9.5097C11.1698 9.43766 11.1698 9.38002 11.1568 9.29357L11.4428 9.61056L11.5467 9.99959C11.4298 10.086 11.3128 10.1725 11.1958 10.2445L11.0658 10.3166C10.8449 10.4318 10.598 10.5039 10.338 10.5471L10.1431 10.2589H10.559V10.2445ZM10.1691 12.4923C10.338 12.4779 10.507 12.4635 10.6759 12.4347L10.9879 13.1695C10.7279 13.2271 10.455 13.2559 10.1691 13.2704V12.4923V12.4923ZM10.1691 15.057V13.645C10.572 13.6306 10.9619 13.5729 11.3388 13.4721L11.6117 13.7026L12.1836 13.8323C12.1836 13.8323 12.2096 13.962 12.3915 13.6018C12.5865 13.2415 12.6645 13.3712 12.7684 13.083C12.8724 12.7805 13.0154 12.6796 13.0154 12.6796C13.2623 12.5067 13.4962 12.3194 13.7042 12.1033L14.627 13.1263C13.4443 14.279 11.8846 15.0138 10.1691 15.057ZM14.8609 12.8669L13.9381 11.8439C14.8609 10.8209 15.4328 9.43766 15.4848 7.92475H16.7714V7.55012H15.4848C15.4588 6.70001 15.2638 5.87872 14.9389 5.15829C14.8739 4.92775 14.7959 4.56753 14.627 4.26495C14.445 3.93355 14.2111 3.89033 14.1721 3.89033L14.1591 3.87592L14.0941 3.45807L14.8609 2.60795C16.0696 3.93355 16.8104 5.73463 16.8104 7.73743C16.8104 9.72583 16.0696 11.5413 14.8609 12.8669Z" fill="white"/>
<path fill-rule="evenodd" clip-rule="evenodd" d="M2.68341 1.78664C2.68341 1.78664 1.79962 3.99116 1.9166 4.68278C2.03357 4.45224 2.21552 4.20729 2.48845 3.96234C3.38523 3.19869 3.69716 2.83847 3.69716 2.83847C3.69716 2.83847 3.41123 3.80385 2.60543 4.43783C1.96858 4.94213 1.78663 5.3888 1.74764 5.5617L1.73464 5.61934C1.73464 5.61934 0.616915 4.0632 2.68341 1.78664ZM1.22777 3.47245C1.22777 3.47245 1.0978 6.54149 1.29275 6.81525C1.4877 7.08902 1.34474 6.74321 1.85161 5.97955C2.35849 5.20149 2.98233 4.52428 2.98233 4.52428C2.98233 4.52428 2.80038 5.5617 2.04656 6.68558C1.29275 7.80945 1.31874 8.24171 1.31874 8.24171C1.31874 8.24171 1.04581 7.43483 0.746883 6.75762C0.47395 6.09482 0.369976 4.76922 1.22777 3.47245ZM0.343982 6.09482C0.343982 6.09482 0.915842 8.64515 1.26676 9.03418C1.61767 9.42322 1.5007 8.31375 1.94259 7.53569C2.38448 6.75762 2.44946 6.65676 2.44946 6.65676C2.44946 6.65676 2.34549 8.65956 2.00757 9.5529C1.68265 10.4462 1.82562 11.1523 1.82562 11.1523C1.82562 11.1523 0.590922 9.81225 0.188021 8.50107C-0.201883 7.20429 0.097043 6.35418 0.343982 6.09482ZM0.253005 9.40881C0.253005 9.40881 1.52669 11.7286 1.95559 12.0024C2.38448 12.2761 2.17653 11.4981 2.25451 10.5903C2.3195 9.66817 2.46246 9.25031 2.46246 9.25031C2.46246 9.25031 2.82637 11.1667 2.89136 11.9735C2.95634 12.7804 3.08631 13.1983 3.21628 13.4288C3.34624 13.6594 2.7224 13.1983 2.11155 12.7228C1.51369 12.2473 0.14903 11.5125 0.253005 9.40881ZM3.07331 11.2387C3.07331 11.2387 3.39823 12.6363 3.46321 13.2127C3.5282 13.7746 3.97009 14.3077 4.12605 14.4951C4.28201 14.6824 3.15129 13.8611 2.44946 13.5297C1.73464 13.1839 0.993823 12.3482 0.902845 12.1176C0.811867 11.8871 1.21477 14.1925 2.90435 14.6968C4.59394 15.2011 5.1528 15.3308 5.1528 15.3308C5.1528 15.3308 4.21703 14.351 4.19104 13.6449C4.16504 12.9533 3.68416 11.6998 3.07331 11.2387ZM2.46246 14.7112C2.46246 14.7112 3.03432 15.2587 4.39898 15.5037C5.77665 15.7342 6.30951 15.691 6.30951 15.691C6.30951 15.691 5.17879 14.8697 4.90586 14.3798C4.63293 13.8899 4.45097 13.1551 4.45097 13.1551C4.45097 13.1551 4.93185 14.3654 6.10157 14.9417C7.25828 15.5181 7.29727 15.7486 7.76516 15.691C8.23304 15.6333 6.29652 16.6564 4.60693 16.2241C2.91735 15.7918 2.63142 15.1723 2.46246 14.7112ZM4.13905 16.4546C4.13905 16.4546 4.52895 17.1751 5.86762 16.7428C7.20629 16.3105 7.53121 15.9647 8.25904 15.7342C8.98686 15.5037 9.54572 15.6189 9.54572 15.6189C9.54572 15.6189 9.02585 15.7198 8.16806 16.3826C7.31027 17.0454 7.02434 17.6073 5.9586 17.5641C4.89286 17.5065 4.21703 16.7572 4.13905 16.4546ZM17.2918 1.78664C17.2918 1.78664 18.1756 3.99116 18.0586 4.68278C17.9417 4.45224 17.7597 4.20729 17.4868 3.96234C16.59 3.19869 16.2781 2.83847 16.2781 2.83847C16.2781 2.83847 16.564 3.80385 17.3698 4.43783C18.0066 4.94213 18.1886 5.3888 18.2276 5.5617L18.2406 5.61934C18.2276 5.61934 19.3583 4.0632 17.2918 1.78664ZM18.7475 3.47245C18.7475 3.47245 18.8774 6.54149 18.6825 6.81525C18.4875 7.08902 18.6305 6.74321 18.1236 5.97955C17.6167 5.20149 16.9929 4.52428 16.9929 4.52428C16.9929 4.52428 17.1748 5.5617 17.9287 6.68558C18.6825 7.80945 18.6565 8.24171 18.6565 8.24171C18.6565 8.24171 18.9294 7.43483 19.2283 6.75762C19.5013 6.09482 19.6052 4.76922 18.7475 3.47245ZM19.6312 6.09482C19.6312 6.09482 19.0594 8.64515 18.7085 9.03418C18.3576 9.42322 18.4745 8.31375 18.0326 7.53569C17.5907 6.75762 17.5258 6.65676 17.5258 6.65676C17.5258 6.65676 17.6297 8.65956 17.9676 9.5529C18.2926 10.4462 18.1496 11.1523 18.1496 11.1523C18.1496 11.1523 19.3843 9.81225 19.7872 8.50107C20.1771 7.20429 19.8782 6.35418 19.6312 6.09482ZM19.7092 9.40881C19.7092 9.40881 18.4355 11.7286 18.0066 12.0024C17.5777 12.2761 17.7857 11.4981 17.7077 10.5903C17.6427 9.66817 17.4998 9.25031 17.4998 9.25031C17.4998 9.25031 17.1359 11.1667 17.0709 11.9735C17.0059 12.7804 16.8759 13.1983 16.7459 13.4288C16.616 13.6594 17.2398 13.1983 17.8507 12.7228C18.4615 12.2473 19.8132 11.5125 19.7092 9.40881ZM16.9019 11.2387C16.9019 11.2387 16.577 12.6363 16.512 13.2127C16.447 13.7746 16.0051 14.3077 15.8492 14.4951C15.6932 14.6824 16.8239 13.8611 17.5258 13.5297C18.2406 13.1839 18.9814 12.3482 19.0724 12.1176C19.1634 11.8871 18.7605 14.1925 17.0709 14.6968C15.3813 15.2011 14.8224 15.3308 14.8224 15.3308C14.8224 15.3308 15.7582 14.351 15.7842 13.6449C15.8102 12.9533 16.2781 11.6998 16.9019 11.2387ZM17.5128 14.7112C17.5128 14.7112 16.9409 15.2587 15.5762 15.5037C14.1986 15.7342 13.6657 15.691 13.6657 15.691C13.6657 15.691 14.7964 14.8697 15.0694 14.3798C15.3423 13.8899 15.5242 13.1551 15.5242 13.1551C15.5242 13.1551 15.0434 14.3654 13.8737 14.9417C12.7169 15.5181 12.6779 15.7486 12.2101 15.691C11.7422 15.6333 13.6787 16.6564 15.3683 16.2241C17.0449 15.7918 17.3438 15.1723 17.5128 14.7112ZM15.8362 16.4546C15.8362 16.4546 15.4463 17.1751 14.1076 16.7428C12.7689 16.3105 12.444 15.9647 11.7162 15.7342C10.9884 15.5037 10.4295 15.6189 10.4295 15.6189C10.4295 15.6189 10.9494 15.7198 11.8072 16.3826C12.665 17.0454 12.9509 17.6073 14.0166 17.5641C15.0694 17.5065 15.7582 16.7572 15.8362 16.4546ZM12.405 17.7658C12.405 17.7658 11.1443 16.5843 10.4425 16.0944C9.67569 15.5613 10.2865 15.5613 9.51973 16.0944C8.8179 16.5843 7.55721 17.7658 7.55721 17.7658C7.55721 17.7658 7.31027 17.8667 7.40125 17.9675C7.50522 18.0828 7.88213 18.1837 7.9991 17.9099C8.16806 17.4921 9.42875 16.4546 9.97461 16.0224C10.5205 16.469 11.7812 17.5065 11.9501 17.9099C12.0671 18.1837 12.444 18.0972 12.548 17.9675C12.652 17.8523 12.405 17.7658 12.405 17.7658ZM15.2513 0.922119C15.2513 0.922119 16.2001 2.30535 16.525 2.62234C16.8499 2.93933 17.6167 3.7174 17.6167 3.7174C17.6167 3.7174 17.3308 1.42642 15.2513 0.922119ZM4.7239 0.922119C4.7239 0.922119 3.77514 2.30535 3.45022 2.62234C3.1253 2.93933 2.35849 3.7174 2.35849 3.7174C2.35849 3.7174 2.63142 1.42642 4.7239 0.922119Z" fill="white"/>
<path d="M24.0888 12.5501C24.1018 13.5875 24.1408 15.4894 24.1408 15.8352C24.1408 16.8438 24.4527 17.2329 24.8426 17.3481C25.1156 17.4202 25.5445 17.5066 26.2073 17.5066C26.5192 17.5066 27.325 17.4634 27.6759 17.4346C27.9879 17.3914 28.6507 17.2041 29.1056 16.7718C29.4175 16.4548 30.3923 15.1868 30.7302 14.7258C30.7952 14.6249 30.8472 14.6105 30.9251 14.6537L31.1981 14.841C31.2501 14.8843 31.2631 14.9419 31.2371 15.0284L30.4053 17.9245C30.3533 18.0974 30.2363 18.2127 30.0154 18.2127C29.9244 18.2127 29.5475 18.1983 28.4687 18.1694C27.364 18.1694 25.5705 18.155 22.6592 18.155C22.0093 18.155 21.5415 18.1694 21.1775 18.1694C20.8266 18.1838 20.5797 18.2127 20.4237 18.2127C20.3198 18.2127 20.2808 18.1694 20.2808 18.0542V17.5931C20.2808 17.4778 20.3198 17.4346 20.4497 17.4346H21.0476C21.8534 17.4346 21.9184 17.3193 21.9184 16.5989V10.1006C21.9184 8.51564 21.8794 6.1094 21.8534 5.85004C21.7884 5.33133 21.6064 5.17284 21.0866 5.17284H20.4237C20.3587 5.17284 20.3198 5.12962 20.3198 5.04316V4.53886C20.3198 4.438 20.3327 4.40918 20.4237 4.40918C20.8136 4.40918 21.4375 4.48123 22.8671 4.46682H23.361C24.1278 4.46682 28.1438 4.42359 28.9106 4.42359C29.1836 4.42359 29.5215 4.40918 29.6125 4.40918C29.7034 4.40918 29.7294 4.45241 29.7554 4.52445C29.8204 4.7694 30.4833 7.40618 30.5612 7.59349C30.6002 7.70876 30.5742 7.76639 30.5092 7.80962L30.1973 7.96812C30.1453 7.98252 30.0933 7.96811 30.0414 7.86725C29.9764 7.75198 28.5467 5.97972 28.1178 5.70596C27.7539 5.47542 27.286 5.21606 26.7922 5.20166L24.1408 5.12961L24.1018 10.7202C24.6217 10.7202 25.8824 10.6769 26.0903 10.6193C26.4802 10.5473 26.6882 10.3888 26.8961 9.92769C27.0001 9.68275 27.1691 9.19285 27.1691 8.84704C27.1691 8.73177 27.2341 8.68855 27.312 8.68855L27.7669 8.73177C27.8319 8.73177 27.8839 8.775 27.8709 8.89027C27.8319 9.19285 27.8319 10.4752 27.8319 10.9795C27.8319 11.7576 27.8969 12.6797 27.9359 13.112C27.9359 13.2129 27.8969 13.2273 27.7929 13.2417L27.403 13.3137C27.338 13.3281 27.299 13.2993 27.26 13.184C27.1951 12.8815 27.0651 12.4492 26.9741 12.2187C26.8182 11.8296 26.4802 11.5559 26.1033 11.5271C25.4795 11.455 24.6347 11.4118 24.0758 11.4118L24.0888 12.5501Z" fill="white"/>
<path d="M33.2779 13.8467C33.3428 13.8467 33.3818 13.8899 33.3818 14.0052C33.4208 14.6247 33.5508 15.3596 34.0447 16.2097C34.5645 17.1318 35.4743 17.6073 36.3451 17.6073C37.2939 17.6073 38.6195 16.9445 38.6195 15.3452C38.6195 13.5729 37.8917 12.9821 36.0332 12.2185C35.4743 11.9879 34.3306 11.4404 33.4858 10.5903C32.8879 9.97074 32.615 9.00536 32.615 7.82385C32.615 6.7432 33.0049 5.84987 33.8367 5.11503C34.5385 4.45223 35.3054 4.19287 36.3191 4.19287C37.4758 4.19287 38.1646 4.49545 38.5156 4.65395C38.6845 4.72599 38.7885 4.69718 38.8795 4.59632L39.1004 4.35137C39.1654 4.27932 39.2434 4.2361 39.3474 4.2361C39.4513 4.2361 39.4903 4.35137 39.4903 4.53868C39.4903 4.84126 39.7633 7.55009 39.7633 7.75181C39.7633 7.82385 39.7243 7.86707 39.6593 7.88148L39.3864 7.98235C39.3214 7.99675 39.2434 7.98234 39.2174 7.86707C39.0484 7.31955 38.7625 6.55589 38.1387 5.82105C37.6838 5.27352 37.1249 5.01417 36.3191 5.01417C34.9284 5.01417 34.3696 6.25331 34.3696 6.97374C34.3696 7.63654 34.4346 8.21288 34.8635 8.71719C35.3183 9.22149 36.2931 9.68256 36.9949 9.9131C38.0087 10.2589 38.8405 10.6479 39.5033 11.426C40.0622 12.0888 40.3741 12.8957 40.3741 14.1925C40.3741 16.5555 38.9834 18.4862 36.67 18.4862C35.2404 18.4862 34.4086 18.1404 33.7067 17.5641C33.4988 17.4056 33.3948 17.3335 33.2908 17.3335C33.1869 17.3335 33.1219 17.492 33.0179 17.6794C32.9139 17.8667 32.849 17.9099 32.706 17.9099C32.563 17.9099 32.498 17.7946 32.498 17.5929C32.537 17.3624 32.771 14.2357 32.81 13.9907C32.823 13.8755 32.849 13.8323 32.9139 13.8323L33.2779 13.8467Z" fill="white"/>
<path d="M53.7998 14.9994C53.8518 15.057 53.8648 15.1146 53.8388 15.1867C52.7861 16.8437 51.1225 18.4286 48.6401 18.4286C46.4046 18.4286 45.1569 17.6938 44.0652 16.6131C42.7785 15.3308 42.1807 13.0974 42.1807 11.3972C42.1807 9.50966 42.7395 7.67977 43.9612 6.21009C44.897 5.08621 46.4046 4.16406 48.4971 4.16406C50.1087 4.16406 51.3954 4.71159 52.0192 5.10062C52.2662 5.25912 52.3312 5.25912 52.3702 5.10062L52.5131 4.59632C52.5521 4.48105 52.5781 4.48105 52.7861 4.48105C52.994 4.48105 53.033 4.52428 53.033 4.78363C53.033 5.12944 53.3839 8.22729 53.4489 8.80364C53.4619 8.91891 53.4489 8.97655 53.3839 8.99095L53.059 9.10622C52.968 9.14945 52.916 9.063 52.864 8.91891C52.6561 8.2273 52.2402 7.26192 51.4994 6.41181C50.7326 5.60493 49.8228 4.98535 48.4581 4.98535C45.6638 4.98535 44.5201 7.76622 44.5201 10.5615C44.5201 11.7574 44.832 14.0484 46.1187 15.5901C47.2754 16.9445 48.2762 17.103 49.121 17.103C51.0445 17.103 52.5521 16.0368 53.2929 14.8553C53.3839 14.7256 53.4489 14.668 53.5009 14.7256L53.7998 14.9994Z" fill="white"/>
<path d="M57.9452 12.8382C57.8022 13.2848 56.9574 16.0513 56.8664 16.57C56.8274 16.7285 56.8274 16.887 56.8274 16.9734C56.8274 17.2184 57.1004 17.4345 57.4513 17.4345H58.1791C58.3221 17.4345 58.3611 17.4777 58.3611 17.5354V18.0253C58.3611 18.1405 58.3221 18.2126 58.2181 18.2126C57.9712 18.2126 57.2433 18.155 56.0216 18.155C54.735 18.155 54.3451 18.2126 54.0981 18.2126C53.9941 18.2126 53.9941 18.0973 53.9941 17.9676V17.6074C53.9941 17.4922 54.0331 17.4489 54.0981 17.4489H54.618C55.1119 17.4489 55.4238 17.1752 55.7357 16.5844C55.9047 16.2386 57.1654 12.7517 57.6852 11.1379L59.4008 6.0661C59.4398 5.87879 59.5438 5.51858 59.4398 5.40331C59.3878 5.34567 59.3358 5.2304 59.3358 5.17277C59.3358 5.10073 59.3748 5.01427 59.5048 4.98546C60.0636 4.82696 61.0254 4.25062 61.2334 4.02008C61.3373 3.90481 61.4023 3.83276 61.4933 3.83276C61.5973 3.83276 61.6623 4.06331 61.7012 4.17857C62.0132 5.37449 63.3778 9.71149 63.6898 10.9506C64.1057 12.4635 65.2234 16.0513 65.4703 16.57C65.7822 17.2328 66.2371 17.4633 66.588 17.4633H67.1469C67.2509 17.4633 67.2899 17.5066 67.2899 17.593V17.9965C67.2899 18.1117 67.2509 18.227 67.1209 18.227C66.809 18.227 66.4581 18.1694 64.5346 18.1694C63.0659 18.1694 62.4811 18.227 62.0911 18.227C61.9482 18.227 61.9222 18.1117 61.9222 17.9965V17.6074C61.9222 17.4922 61.9612 17.4489 62.0652 17.4489H62.52C63.0139 17.4489 63.1439 17.2616 63.0399 16.7285C62.897 16.0369 62.2081 13.5586 61.9872 12.8382H57.9452V12.8382ZM61.8182 12.0601C61.6493 11.4982 60.4536 7.08912 60.3496 6.70009C60.2846 6.46955 60.2456 6.35428 60.1806 6.35428C60.0766 6.35428 60.0117 6.42632 59.9597 6.59922C59.8947 6.84417 58.3221 11.6134 58.1921 12.0457H61.8182V12.0601Z" fill="white"/>
<path d="M69.578 9.14938C69.578 7.86701 69.578 5.82099 69.565 5.60486C69.526 5.27346 69.3441 5.1726 68.9542 5.1726H68.0444C67.9794 5.1726 67.9404 5.12937 67.9404 5.04292V4.55302C67.9404 4.43775 67.9794 4.39453 68.0444 4.39453C68.2524 4.39453 68.8892 4.45216 70.6308 4.45216C70.9427 4.45216 71.9564 4.39453 72.5543 4.39453C74.6468 4.39453 75.6605 4.61066 76.6743 5.37432C77.4801 6.03711 78 7.11776 78 8.31368C78 10.7055 76.3234 12.2184 73.3601 12.2184C72.7622 12.2184 72.2424 12.2184 71.7875 12.1464V12.9965C71.7875 13.9186 71.7875 16.5554 71.8005 16.8004C71.8525 17.2326 72.0214 17.4199 72.3463 17.4199H73.3211C73.4641 17.4199 73.4641 17.492 73.4641 17.5496V17.9963C73.4641 18.1116 73.4641 18.1836 73.3211 18.1836C73.0742 18.1836 72.5153 18.126 70.6308 18.126C69.0971 18.126 68.3953 18.1836 68.2264 18.1836C68.0834 18.1836 68.0834 18.1116 68.0834 18.0539V17.564C68.0834 17.4488 68.0834 17.4055 68.1874 17.4055H68.7462C69.3441 17.4055 69.474 17.3335 69.526 16.8004C69.539 16.6131 69.578 13.5872 69.578 11.3539V9.14938V9.14938ZM71.7745 11.4692C72.0864 11.5844 72.5803 11.6277 73.0352 11.6277C73.802 11.6277 74.7118 10.9649 75.1277 10.3165C75.4786 9.74013 75.5436 9.00529 75.5436 8.29927C75.5436 5.66249 73.62 5.07173 72.7882 5.07173C72.4763 5.07173 72.0604 5.05733 71.7745 5.20141V11.4692V11.4692Z" fill="white"/>
<path d="M74.8025 2.59356C74.7895 2.59356 74.7765 2.60796 74.7765 2.63678C74.7635 2.69442 74.6985 3.5013 74.6985 3.57334C74.6985 3.61657 74.7115 3.64539 74.7505 3.64539C74.7895 3.64539 74.8025 3.63098 74.8285 3.58775C74.8545 3.54453 74.8675 3.5013 74.9065 3.5013C74.9325 3.5013 74.9585 3.51571 75.0105 3.55893C75.1924 3.71743 75.4134 3.80388 75.7773 3.80388C76.3751 3.80388 76.739 3.29958 76.739 2.69442C76.739 2.36302 76.6611 2.14689 76.5181 1.97398C76.3491 1.77226 76.1282 1.6714 75.8682 1.58495C75.6863 1.52732 75.4394 1.39764 75.3224 1.26796C75.2184 1.13828 75.1924 0.994196 75.1924 0.821292C75.1924 0.63398 75.3354 0.31699 75.6993 0.31699C75.9072 0.31699 76.0502 0.389033 76.1672 0.533119C76.3361 0.720432 76.4011 0.922154 76.4531 1.06624C76.4661 1.09506 76.4791 1.09506 76.4921 1.09506L76.5701 1.06624C76.5831 1.06624 76.5961 1.05183 76.5961 1.03742C76.5961 0.994196 76.5311 0.288174 76.5311 0.201722C76.5311 0.158496 76.5181 0.11527 76.4921 0.11527C76.4661 0.11527 76.4531 0.129678 76.4271 0.144086L76.3751 0.201722C76.3491 0.23054 76.3231 0.230538 76.2841 0.21613C76.1932 0.172904 76.0112 0.10086 75.7123 0.10086C75.4523 0.10086 75.2574 0.172905 75.0754 0.345809C74.8545 0.533121 74.7635 0.763658 74.7635 1.05183C74.7635 1.35441 74.8285 1.61377 74.9845 1.77226C75.2054 1.98839 75.5043 2.13248 75.6473 2.19011C76.1282 2.39183 76.3231 2.53592 76.3231 2.997C76.3231 3.41485 75.9852 3.58775 75.7383 3.58775C75.5173 3.58775 75.2834 3.47248 75.1404 3.22754C75.0105 3.01141 74.9715 2.80969 74.9715 2.65119C74.9715 2.62237 74.9585 2.60796 74.9455 2.60796L74.8025 2.59356ZM70.3316 0.850111H70.3576C70.4096 0.922154 71.1374 1.91635 71.2024 1.98839C71.2544 2.07484 71.6053 2.53592 71.9302 2.96818C72.2161 3.3428 72.4501 3.64539 72.4891 3.70302C72.5281 3.74625 72.5801 3.77506 72.645 3.77506C72.697 3.77506 72.697 3.70302 72.697 3.63098V2.30538C72.697 1.78667 72.736 0.95097 72.762 0.605162C72.775 0.41785 72.827 0.345809 72.918 0.345809H73.0479C73.0609 0.345809 73.0739 0.3314 73.0739 0.302582V0.187313C73.0739 0.172904 73.0609 0.158496 73.0349 0.158496C72.983 0.158496 72.866 0.172903 72.606 0.172903C72.2941 0.172903 72.1512 0.158496 72.0992 0.158496C72.0602 0.158496 72.0602 0.172905 72.0602 0.201722V0.31699C72.0602 0.345807 72.0602 0.360216 72.0862 0.360216H72.2291C72.3331 0.360216 72.4371 0.43226 72.4631 0.547529C72.4891 0.633981 72.5021 1.12387 72.5151 1.31119C72.5281 1.55613 72.5281 1.81549 72.5281 2.24775V2.76646H72.5151C72.4371 2.6656 71.7353 1.70022 71.6703 1.61377C71.5793 1.46968 70.6955 0.244947 70.6435 0.187313C70.6175 0.158495 70.5915 0.144086 70.5396 0.144086C70.5136 0.144086 70.4746 0.144086 70.4096 0.144086C70.3576 0.144086 70.2926 0.158496 70.2146 0.158496C70.0197 0.158496 69.8897 0.158496 69.8117 0.158496C69.7338 0.158496 69.6948 0.144086 69.6688 0.144086C69.6558 0.144086 69.6428 0.158495 69.6428 0.172903V0.302582C69.6428 0.316991 69.6558 0.331399 69.6688 0.331399H69.8117C70.0067 0.331399 70.1626 0.561937 70.1626 0.864518V1.4985C70.1626 2.30538 70.1367 2.997 70.1367 3.09786C70.1107 3.40044 70.0457 3.51571 69.9287 3.51571H69.7727C69.7597 3.51571 69.7467 3.53012 69.7467 3.54452V3.67421C69.7467 3.70302 69.7597 3.71743 69.7727 3.71743C69.8117 3.71743 70.1237 3.70302 70.2406 3.70302C70.4096 3.70302 70.6825 3.71743 70.7345 3.71743C70.7735 3.71743 70.7735 3.70302 70.7735 3.67421V3.55893C70.7735 3.53012 70.7735 3.51571 70.7345 3.51571H70.6175C70.4486 3.51571 70.3966 3.40044 70.3966 3.14108C70.3836 2.98259 70.3576 2.27657 70.3576 1.42646V0.850111H70.3316ZM66.3806 0.31699C66.8095 0.31699 67.4853 0.93656 67.4853 2.03162C67.4853 2.44947 67.3423 3.57334 66.4326 3.57334C66.0557 3.57334 65.3278 3.11227 65.3278 1.80108C65.3278 1.39764 65.4578 0.878928 65.7307 0.590755C66.0427 0.273765 66.3026 0.31699 66.3806 0.31699ZM66.4066 0.10086C66.0167 0.10086 65.5228 0.201721 65.1329 0.749249C64.795 1.21033 64.717 1.68581 64.717 1.98839C64.717 2.70882 65.0549 3.25635 65.3798 3.47248C65.7437 3.71743 66.1336 3.80388 66.4066 3.80388C67.0824 3.80388 67.4723 3.48689 67.7582 3.09786C68.0052 2.75205 68.0962 2.36302 68.0962 1.98839C68.0962 1.31119 67.8232 0.806884 67.4853 0.504302C67.0954 0.172904 66.7315 0.10086 66.4066 0.10086ZM62.6245 1.71463C62.6245 1.65699 62.6375 0.547528 62.6375 0.504302C62.6375 0.403442 62.7155 0.374625 62.8065 0.374625H62.9754C62.9884 0.374625 63.0144 0.360216 63.0144 0.331399V0.21613C63.0144 0.187312 63.0014 0.172903 62.9754 0.172903C62.9104 0.172903 62.7675 0.187313 62.3386 0.187313C61.8967 0.187313 61.6627 0.172903 61.6108 0.172903C61.5978 0.172903 61.5848 0.187314 61.5848 0.201722V0.331399C61.5848 0.360216 61.5978 0.360216 61.6237 0.360216H61.8577C61.9877 0.360216 62.0267 0.403441 62.0396 0.533119C62.0396 0.590754 62.0526 1.4985 62.0526 1.61377V1.95957C62.0526 2.23334 62.0396 3.31399 62.0396 3.38603C62.0267 3.51571 61.9227 3.53012 61.8317 3.53012H61.6497C61.6237 3.53012 61.6108 3.54452 61.6108 3.55893V3.68861C61.6108 3.71743 61.6237 3.71743 61.6497 3.71743C61.6887 3.71743 61.8967 3.70302 62.3516 3.70302C62.7805 3.70302 62.9624 3.71743 63.0144 3.71743C63.0404 3.71743 63.0534 3.70302 63.0534 3.67421V3.54452C63.0534 3.51571 63.0404 3.51571 63.0144 3.51571H62.8195C62.7155 3.51571 62.6375 3.5013 62.6375 3.32839C62.6375 3.27076 62.6245 2.11807 62.6245 2.07485V1.71463V1.71463ZM58.2186 1.64259C58.2186 1.74345 58.2186 3.27076 58.2056 3.41485C58.2056 3.48689 58.1536 3.54452 58.0496 3.54452H57.7897C57.7767 3.54452 57.7637 3.55894 57.7637 3.58775V3.70302C57.7637 3.73184 57.7767 3.74625 57.8027 3.74625C57.8677 3.74625 58.0496 3.73184 58.5175 3.73184C59.0114 3.73184 59.1544 3.74625 59.1933 3.74625C59.2323 3.74625 59.2453 3.73184 59.2453 3.70302V3.60216C59.2453 3.57334 59.2323 3.55893 59.2193 3.55893H58.9594C58.8554 3.55893 58.8034 3.45807 58.8034 3.08345V0.417852H58.9334C59.1024 0.417852 59.5053 0.432259 59.6352 0.504302C59.7652 0.605163 59.9342 0.922154 59.9991 1.06624C60.0121 1.09506 60.0251 1.10946 60.0381 1.10946L60.1291 1.08065C60.1421 1.08065 60.1551 1.06624 60.1421 1.03742C60.1031 0.792475 60.0121 0.172905 59.9991 0.0864527C59.9862 0.0288182 59.9862 0 59.9602 0C59.9342 0 59.9212 0.0144091 59.8822 0.0432264C59.8172 0.100861 59.6482 0.172903 59.5573 0.172903C59.3493 0.187312 59.1544 0.201722 58.6605 0.201722H58.4135C57.9716 0.201722 57.7767 0.187312 57.5298 0.172903C57.3998 0.172903 57.3088 0.144087 57.2178 0.0432264C57.1918 0.0144091 57.1788 0 57.1528 0C57.1399 0 57.1139 0.0144095 57.1009 0.0864527L56.8799 1.0086C56.8799 1.03742 56.8799 1.05183 56.8929 1.05183L56.9839 1.08065C57.0099 1.09506 57.0229 1.06624 57.0359 1.05183C57.1269 0.878927 57.2958 0.547529 57.4388 0.475486C57.6337 0.403442 57.9587 0.403442 58.1016 0.403442H58.2316V1.64259H58.2186ZM53.6957 2.14689C53.7217 2.03162 54.1376 0.792476 54.1506 0.734841C54.1636 0.691616 54.1766 0.677206 54.2026 0.677206C54.2156 0.677206 54.2286 0.706024 54.2416 0.763658C54.2676 0.864519 54.5795 2.0028 54.6185 2.14689H53.6957ZM54.6835 2.34861C54.7354 2.53592 54.9174 3.1699 54.9564 3.35721C54.9824 3.48689 54.9434 3.54452 54.8264 3.54452H54.7095C54.6835 3.54452 54.6705 3.55894 54.6705 3.58775V3.68861C54.6705 3.71743 54.6835 3.74625 54.7224 3.74625C54.8264 3.74625 54.9694 3.73184 55.3593 3.73184C55.8532 3.73184 55.9441 3.74625 56.0351 3.74625C56.0741 3.74625 56.0741 3.71743 56.0741 3.68861V3.58775C56.0741 3.55894 56.0611 3.55893 56.0351 3.55893H55.8922C55.8012 3.55893 55.6842 3.5013 55.6062 3.32839C55.5412 3.19872 55.2553 2.26216 55.1513 1.87313C55.0734 1.55614 54.7224 0.43226 54.6315 0.11527C54.6185 0.0864523 54.6055 0.0288168 54.5795 0.0288168C54.5535 0.0288168 54.5405 0.0432259 54.5145 0.0720432C54.4625 0.129678 54.2156 0.288172 54.0726 0.31699C54.0336 0.331398 54.0336 0.345807 54.0336 0.360216C54.0336 0.374625 54.0466 0.403443 54.0596 0.417852C54.0856 0.446669 54.0596 0.533121 54.0466 0.590755L53.6047 1.90194C53.4748 2.31979 53.1498 3.22754 53.0978 3.31399C53.0199 3.47248 52.9289 3.54452 52.8119 3.54452H52.6819C52.669 3.54452 52.656 3.55894 52.656 3.58775V3.68861C52.656 3.71743 52.656 3.74625 52.6819 3.74625C52.7469 3.74625 52.8509 3.73184 53.1758 3.73184C53.4877 3.73184 53.6827 3.74625 53.7477 3.74625C53.7737 3.74625 53.7867 3.73184 53.7867 3.70302V3.57334C53.7867 3.55893 53.7737 3.54452 53.7477 3.54452H53.5527C53.4618 3.54452 53.3838 3.48689 53.3838 3.42926C53.3838 3.40044 53.3838 3.37162 53.3968 3.32839C53.4228 3.19872 53.6437 2.47829 53.6827 2.36302H54.6835V2.34861ZM48.6529 0.850111H48.6789C48.7309 0.922154 49.4587 1.91635 49.5237 1.98839C49.5757 2.07484 49.9266 2.53592 50.2515 2.96818C50.5375 3.3428 50.7714 3.64539 50.8104 3.70302C50.8494 3.74625 50.9014 3.77506 50.9664 3.77506C51.0184 3.77506 51.0184 3.70302 51.0184 3.63098V2.30538C51.0184 1.78667 51.0574 0.95097 51.0833 0.605162C51.0963 0.41785 51.1483 0.345809 51.2393 0.345809H51.3693C51.3823 0.345809 51.3953 0.3314 51.3953 0.302582V0.187313C51.3953 0.172904 51.3823 0.158496 51.3563 0.158496C51.3043 0.158496 51.1873 0.172903 50.9274 0.172903C50.6155 0.172903 50.4725 0.158496 50.4205 0.158496C50.3815 0.158496 50.3815 0.172905 50.3815 0.201722V0.31699C50.3815 0.345807 50.3815 0.360216 50.4075 0.360216H50.5505C50.6544 0.360216 50.7584 0.43226 50.7844 0.547529C50.8104 0.633981 50.8234 1.12387 50.8364 1.31119C50.8494 1.55613 50.8494 1.81549 50.8494 2.24775V2.76646H50.8364C50.7584 2.6656 50.0566 1.70022 49.9916 1.61377C49.9006 1.46968 49.0169 0.244947 48.9649 0.187313C48.9389 0.158495 48.9129 0.144086 48.8609 0.144086C48.8349 0.144086 48.7959 0.144086 48.7309 0.144086C48.6789 0.144086 48.614 0.158496 48.536 0.158496C48.341 0.158496 48.2111 0.158496 48.1331 0.158496C48.0551 0.158496 48.0161 0.144086 47.9901 0.144086C47.9771 0.144086 47.9641 0.158495 47.9641 0.172903V0.302582C47.9641 0.316991 47.9771 0.331399 47.9901 0.331399H48.1331C48.328 0.331399 48.484 0.561937 48.484 0.864518V1.4985C48.484 2.30538 48.458 2.997 48.458 3.09786C48.432 3.40044 48.367 3.51571 48.25 3.51571H48.0941C48.0811 3.51571 48.0681 3.53012 48.0681 3.54452V3.67421C48.0681 3.70302 48.0811 3.71743 48.0941 3.71743C48.1331 3.71743 48.445 3.70302 48.562 3.70302C48.7309 3.70302 49.0039 3.71743 49.0558 3.71743C49.0948 3.71743 49.0948 3.70302 49.0948 3.67421V3.55893C49.0948 3.53012 49.0948 3.51571 49.0558 3.51571H48.9389C48.7699 3.51571 48.7179 3.40044 48.7179 3.14108C48.7049 2.98259 48.6789 2.27657 48.6789 1.42646V0.850111H48.6529ZM43.0773 1.55613C43.0773 1.48409 43.0773 0.821293 43.0903 0.619572C43.0903 0.518711 43.1033 0.43226 43.1683 0.403442C43.2463 0.360216 43.3632 0.360216 43.4542 0.360216C43.8311 0.360216 44.221 0.547529 44.468 0.835702C44.6759 1.09506 44.8319 1.52732 44.8319 1.93076C44.8319 2.39184 44.6889 2.80969 44.507 3.06904C44.286 3.40044 43.9221 3.57334 43.5712 3.57334C43.4022 3.57334 43.2333 3.53012 43.1683 3.44367C43.1033 3.34281 43.0903 3.25635 43.0903 3.1699C43.0903 2.85291 43.0773 2.0028 43.0773 1.94517V1.55613ZM42.5184 1.80108C42.5184 2.17571 42.5055 3.31399 42.4925 3.41485C42.4795 3.5013 42.4405 3.54452 42.3495 3.54452H42.0896C42.0636 3.54452 42.0506 3.55893 42.0506 3.57334V3.70302C42.0506 3.73184 42.0636 3.74625 42.0766 3.74625C42.1415 3.74625 42.3235 3.73184 42.7134 3.73184C42.9343 3.73184 43.4022 3.74625 43.5712 3.74625C43.8831 3.74625 44.5849 3.74625 45.0268 3.21313C45.3258 2.85291 45.4687 2.47829 45.4687 1.90194C45.4687 1.32559 45.2608 0.893337 44.9619 0.633981C44.546 0.244948 44.0521 0.172903 43.4542 0.172903C43.2333 0.172903 42.9993 0.187313 42.7784 0.187313C42.4665 0.187313 42.2325 0.172903 42.0896 0.172903C42.0636 0.172903 42.0506 0.187314 42.0506 0.201722V0.331399C42.0506 0.360216 42.0636 0.360216 42.0896 0.360216H42.3365C42.4275 0.360216 42.4925 0.374625 42.5055 0.504302C42.5185 0.576346 42.5314 1.29678 42.5314 1.42646V1.80108H42.5184ZM38.8144 1.97398C38.9573 1.97398 39.1783 1.98839 39.3342 2.0028C39.4382 2.01721 39.5162 2.08925 39.5552 2.19011C39.5812 2.24775 39.6072 2.36302 39.6332 2.43506C39.6462 2.46388 39.6462 2.47828 39.6722 2.46388L39.7761 2.44947C39.8021 2.44947 39.8151 2.43506 39.8151 2.42065C39.8021 2.30538 39.7891 2.07485 39.7891 1.87313C39.7891 1.74345 39.7891 1.41205 39.8021 1.32559C39.8021 1.29678 39.7891 1.28237 39.7761 1.28237L39.6592 1.26796C39.6462 1.26796 39.6202 1.28237 39.6202 1.31119C39.6202 1.39764 39.5812 1.52732 39.5422 1.58495C39.4902 1.70022 39.4382 1.74345 39.3342 1.77226C39.2822 1.78667 38.9573 1.80108 38.8144 1.80108L38.8274 0.345809L39.5162 0.360216C39.6462 0.360216 39.7631 0.43226 39.8541 0.489895C39.9581 0.561938 40.335 1.02301 40.348 1.05183C40.361 1.08065 40.374 1.08065 40.387 1.08065L40.465 1.03742C40.478 1.02301 40.491 1.00861 40.478 0.979788C40.465 0.936562 40.283 0.244947 40.27 0.187313C40.27 0.172904 40.257 0.158496 40.231 0.158496C40.205 0.158496 40.127 0.158496 40.0491 0.158496C39.8541 0.158496 38.8144 0.172903 38.6064 0.172903H38.4764C38.0995 0.172903 37.9436 0.158496 37.8396 0.158496C37.8136 0.158496 37.8136 0.172904 37.8136 0.187313V0.31699C37.8136 0.345807 37.8266 0.345809 37.8396 0.345809H38.0086C38.1515 0.345809 38.1905 0.389034 38.2035 0.518712C38.2165 0.590755 38.2165 1.21033 38.2165 1.61377V3.29958C38.2165 3.48689 38.2035 3.51571 37.9956 3.51571H37.8396C37.8006 3.51571 37.8006 3.53012 37.8006 3.55893V3.67421C37.8006 3.70302 37.8136 3.71743 37.8396 3.71743C37.8786 3.71743 37.9436 3.71743 38.0346 3.70302C38.1255 3.70302 38.2555 3.70302 38.4245 3.70302C39.1783 3.70302 39.6462 3.70302 39.9321 3.70302C40.218 3.70302 40.309 3.71743 40.335 3.71743C40.387 3.71743 40.426 3.68861 40.439 3.64539L40.6599 2.89614C40.6729 2.86732 40.6599 2.85291 40.6469 2.85291L40.5819 2.80969C40.5689 2.79528 40.5559 2.80968 40.5299 2.82409C40.439 2.93936 40.192 3.27076 40.114 3.35721C39.9971 3.47248 39.8281 3.51571 39.7371 3.53012C39.6462 3.54453 39.4382 3.54452 39.3602 3.54452C39.1913 3.54452 39.0743 3.53012 39.0093 3.5013C38.9053 3.47248 38.8274 3.37162 38.8274 3.11226C38.8274 3.02581 38.8144 2.53592 38.8144 2.26216V1.97398ZM34.4084 1.64259C34.4084 1.74345 34.4084 3.27076 34.3954 3.41485C34.3954 3.48689 34.3305 3.54452 34.2395 3.54452H33.9796C33.9666 3.54452 33.9536 3.55894 33.9536 3.58775V3.70302C33.9536 3.73184 33.9666 3.74625 33.9926 3.74625C34.0575 3.74625 34.2395 3.73184 34.7074 3.73184C35.2013 3.73184 35.3442 3.74625 35.3832 3.74625C35.4222 3.74625 35.4222 3.73184 35.4222 3.70302V3.60216C35.4222 3.57334 35.4092 3.55893 35.3962 3.55893H35.1363C35.0323 3.55893 34.9803 3.45807 34.9803 3.08345V0.417852H35.1103C35.2792 0.417852 35.6821 0.432259 35.8121 0.504302C35.9421 0.605163 36.111 0.922154 36.176 1.06624C36.189 1.09506 36.202 1.10946 36.215 1.10946L36.306 1.08065C36.319 1.08065 36.332 1.06624 36.319 1.03742C36.28 0.792475 36.189 0.172905 36.189 0.0864527C36.176 0.0288182 36.176 0 36.15 0C36.124 0 36.111 0.0144091 36.072 0.0432264C36.0071 0.100861 35.8381 0.172903 35.7471 0.172903C35.5392 0.187312 35.3442 0.201722 34.8503 0.201722H34.6034C34.1615 0.201722 33.9666 0.187312 33.7196 0.172903C33.5896 0.172903 33.4987 0.144087 33.4077 0.0432264C33.3817 0.0144091 33.3687 0 33.3427 0C33.3297 0 33.2907 0.0144095 33.2907 0.0864527L33.0698 1.0086C33.0698 1.03742 33.0698 1.05183 33.0828 1.05183L33.1737 1.08065C33.1997 1.09506 33.2127 1.06624 33.2257 1.05183C33.3167 0.878927 33.4857 0.547529 33.6286 0.475486C33.8236 0.403442 34.1485 0.403442 34.2915 0.403442H34.4214V1.64259H34.4084ZM31.2242 1.71463C31.2242 1.65699 31.2372 0.547528 31.2372 0.504302C31.2372 0.403442 31.3152 0.374625 31.4062 0.374625H31.5751C31.5881 0.374625 31.6141 0.360216 31.6141 0.331399V0.21613C31.6141 0.187312 31.6011 0.172903 31.5751 0.172903C31.5102 0.172903 31.3672 0.187313 30.9383 0.187313C30.4964 0.187313 30.2625 0.172903 30.2105 0.172903C30.1975 0.172903 30.1845 0.187314 30.1845 0.201722V0.331399C30.1845 0.360216 30.1975 0.360216 30.2235 0.360216H30.4574C30.5874 0.360216 30.6264 0.403441 30.6394 0.533119C30.6394 0.590754 30.6524 1.4985 30.6524 1.61377V1.95957C30.6524 2.23334 30.6394 3.31399 30.6394 3.38603C30.6264 3.51571 30.5224 3.53012 30.4314 3.53012H30.2495C30.2235 3.53012 30.2105 3.54452 30.2105 3.55893V3.68861C30.2105 3.71743 30.2235 3.71743 30.2495 3.71743C30.2885 3.71743 30.4964 3.70302 30.9513 3.70302C31.3802 3.70302 31.5621 3.71743 31.6141 3.71743C31.6401 3.71743 31.6661 3.70302 31.6661 3.67421V3.54452C31.6661 3.51571 31.6531 3.51571 31.6271 3.51571H31.4322C31.3282 3.51571 31.2502 3.5013 31.2502 3.32839C31.2502 3.27076 31.2372 2.11807 31.2372 2.07485V1.71463H31.2242ZM25.9345 0.850111H25.9605C26.0125 0.922154 26.7403 1.91635 26.8053 1.98839C26.8573 2.07484 27.2082 2.53592 27.5331 2.96818C27.8061 3.3428 28.053 3.64539 28.092 3.70302C28.131 3.74625 28.183 3.77506 28.248 3.77506C28.2999 3.77506 28.2999 3.70302 28.2999 3.63098V2.30538C28.2999 1.78667 28.3389 0.95097 28.3649 0.605162C28.3779 0.41785 28.4299 0.345809 28.5209 0.345809H28.6509C28.6639 0.345809 28.6769 0.3314 28.6769 0.302582V0.187313C28.6769 0.172904 28.6639 0.158496 28.6379 0.158496C28.5859 0.158496 28.4689 0.172903 28.209 0.172903C27.897 0.172903 27.7541 0.158496 27.7021 0.158496C27.6631 0.158496 27.6631 0.172905 27.6631 0.201722V0.31699C27.6631 0.345807 27.6631 0.360216 27.6891 0.360216H27.8321C27.936 0.360216 28.04 0.43226 28.066 0.547529C28.092 0.633981 28.105 1.12387 28.118 1.31119C28.131 1.55613 28.131 1.81549 28.131 2.24775V2.76646H28.118C28.04 2.6656 27.3382 1.70022 27.2732 1.61377C27.1822 1.46968 26.2984 0.244947 26.2465 0.187313C26.2205 0.158495 26.1945 0.144086 26.1425 0.144086C26.1165 0.144086 26.0775 0.144086 26.0125 0.144086C25.9605 0.144086 25.8955 0.158496 25.8176 0.158496C25.6226 0.158496 25.4926 0.158496 25.4147 0.158496C25.3367 0.158496 25.2977 0.144086 25.2717 0.144086C25.2587 0.144086 25.2457 0.158495 25.2457 0.172903V0.302582C25.2457 0.316991 25.2587 0.331399 25.2717 0.331399H25.4147C25.6096 0.331399 25.7656 0.561937 25.7656 0.864518V1.4985C25.7656 2.30538 25.7396 2.997 25.7396 3.09786C25.7136 3.40044 25.6486 3.51571 25.5316 3.51571H25.3757C25.3627 3.51571 25.3497 3.53012 25.3497 3.54452V3.67421C25.3497 3.70302 25.3627 3.71743 25.3757 3.71743C25.4147 3.71743 25.7266 3.70302 25.8436 3.70302C26.0125 3.70302 26.2854 3.71743 26.3374 3.71743C26.3764 3.71743 26.3764 3.70302 26.3764 3.67421V3.55893C26.3764 3.53012 26.3764 3.51571 26.3374 3.51571H26.2205C26.0515 3.51571 25.9995 3.40044 25.9995 3.14108C25.9865 2.98259 25.9605 2.27657 25.9605 1.42646V0.850111H25.9345ZM20.9957 1.80108C20.9957 2.46388 21.0087 2.79528 21.0737 3.01141C21.1647 3.3284 21.3467 3.55893 21.6066 3.68861C21.7756 3.77506 22.0355 3.80388 22.2564 3.80388C22.5944 3.80388 22.8933 3.68861 23.0752 3.48689C23.3222 3.24194 23.4261 2.93936 23.4521 2.52151C23.4651 2.31979 23.4781 1.45527 23.4781 1.38323C23.4781 1.31119 23.4781 0.619573 23.4911 0.561938C23.5041 0.504304 23.5171 0.360216 23.6861 0.360216H23.855C23.881 0.360216 23.881 0.345807 23.881 0.31699V0.201722C23.881 0.172905 23.881 0.158496 23.842 0.158496C23.8031 0.158496 23.6601 0.172903 23.3872 0.172903C23.0882 0.172903 22.8803 0.158496 22.8413 0.158496C22.8153 0.158496 22.8023 0.172905 22.8023 0.201722V0.331399C22.8023 0.345808 22.8153 0.360216 22.8413 0.360216H23.0103C23.1142 0.360216 23.1792 0.446668 23.1922 0.576346C23.2052 0.691615 23.2442 1.13828 23.2442 1.52731V2.43506C23.2442 2.79528 23.1532 3.09786 22.9843 3.28517C22.8413 3.44367 22.5814 3.53012 22.3734 3.53012C22.1525 3.53012 21.9055 3.44367 21.7626 3.21313C21.6586 3.05463 21.6196 2.8241 21.6066 2.59356C21.5936 2.43506 21.5936 2.07484 21.5936 1.8299V1.21033C21.5936 0.922154 21.6066 0.619573 21.6066 0.561938C21.6066 0.461078 21.6976 0.360216 21.8275 0.360216H22.0225C22.0485 0.360216 22.0615 0.345807 22.0615 0.31699V0.187313C22.0615 0.158495 22.0485 0.158496 22.0225 0.158496C21.9705 0.158496 21.7496 0.172903 21.3727 0.172903C20.9438 0.172903 20.7228 0.158496 20.6708 0.158496C20.6318 0.158496 20.6318 0.172905 20.6318 0.201722V0.31699C20.6318 0.345807 20.6448 0.360216 20.6708 0.360216H20.8788C20.9957 0.360216 21.0347 0.446667 21.0347 0.605162V1.80108H20.9957Z" fill="white"/>
<path d="M33.7717 20.8781C33.7587 20.8781 33.7457 20.8925 33.7457 20.9069V20.9357C33.7457 20.9501 33.7457 20.9501 33.7717 20.9645L33.8367 21.0077C33.9147 21.051 33.9277 21.1086 33.9277 21.2239V21.9299C33.9277 21.9875 33.9017 22.0163 33.8757 22.0163H33.7717C33.7457 22.0163 33.7327 22.0163 33.7327 22.0452V22.1172C33.7327 22.146 33.7327 22.146 33.7587 22.146C33.7847 22.146 33.8757 22.1316 34.0577 22.1316C34.2526 22.1316 34.3436 22.146 34.3696 22.146C34.3826 22.146 34.3956 22.1316 34.3956 22.1172V22.0452C34.3956 22.0307 34.3956 22.0307 34.3696 22.0307H34.3046C34.2656 22.0307 34.2396 22.0019 34.2396 21.8722V21.2671C34.2396 21.1662 34.2396 21.0942 34.2916 21.0221C34.3436 20.9213 34.4476 20.8781 34.5125 20.8781C34.5775 20.8781 34.6425 20.8925 34.6815 20.9213C34.7205 20.9645 34.7595 21.0365 34.7595 21.2815V21.8578C34.7595 21.9731 34.7335 22.0163 34.6815 22.0163H34.6165C34.6035 22.0163 34.5905 22.0163 34.5905 22.0452V22.1028C34.5905 22.1172 34.5905 22.1316 34.6165 22.1316C34.6295 22.1316 34.7335 22.1172 34.9284 22.1172C35.1234 22.1172 35.2014 22.1316 35.2274 22.1316C35.2404 22.1316 35.2404 22.1172 35.2404 22.1028V22.0307C35.2404 22.0163 35.2404 22.0019 35.2144 22.0019H35.1364C35.0974 22.0019 35.0844 21.9731 35.0844 21.9011V21.2671C35.0844 21.1806 35.0844 21.0654 35.1364 21.0077C35.1754 20.9501 35.2664 20.8636 35.3573 20.8636C35.4353 20.8636 35.4873 20.8781 35.5393 20.9357C35.5913 20.9933 35.6043 21.0798 35.6043 21.2383V21.6417C35.6043 21.7426 35.5913 21.8722 35.5913 21.9443C35.5913 21.9875 35.5653 22.0163 35.5263 22.0163H35.4613C35.4483 22.0163 35.4353 22.0163 35.4353 22.0452V22.1172C35.4353 22.1316 35.4483 22.146 35.4613 22.146C35.4743 22.146 35.5913 22.1316 35.7602 22.1316C35.9552 22.1316 36.0332 22.146 36.0592 22.146C36.0722 22.146 36.0852 22.1316 36.0852 22.1172V22.0452C36.0852 22.0307 36.0852 22.0163 36.0592 22.0163H35.9812C35.9422 22.0163 35.9032 21.9875 35.9032 21.9155C35.9032 21.8722 35.9162 21.7138 35.9162 21.6129V21.2239C35.9162 20.9357 35.8642 20.8781 35.7732 20.7916C35.6952 20.6907 35.6173 20.6763 35.4873 20.6763C35.3183 20.6763 35.1624 20.7772 35.0584 20.9213H35.0454C34.9674 20.7772 34.8635 20.6763 34.6815 20.6763C34.4995 20.6763 34.3306 20.7916 34.2396 20.9213H34.2266L34.2136 20.7196C34.2136 20.6907 34.2006 20.6763 34.1746 20.6763C34.1616 20.6763 34.1356 20.6763 34.1096 20.6907L33.7717 20.8781ZM32.797 22.0163C32.68 22.0163 32.602 21.9587 32.55 21.8722C32.472 21.7282 32.459 21.5985 32.459 21.3968C32.459 21.1518 32.498 21.0077 32.589 20.8925C32.641 20.8348 32.706 20.806 32.784 20.806C32.9269 20.806 33.0959 21.0221 33.0959 21.3968C33.1089 21.7426 33.0049 22.0163 32.797 22.0163ZM32.81 20.6619C32.68 20.6619 32.524 20.6907 32.3681 20.8204C32.1861 20.9789 32.1081 21.2239 32.1081 21.3824C32.1081 21.5841 32.1341 21.7282 32.2771 21.9011C32.4201 22.0884 32.576 22.146 32.771 22.146C32.9789 22.146 33.1609 22.0596 33.2908 21.9011C33.4078 21.757 33.4858 21.5697 33.4858 21.3824C33.4858 21.1806 33.4208 21.0077 33.2778 20.8492C33.1609 20.7484 33.0179 20.6619 32.81 20.6619ZM31.8092 21.512C31.7962 21.4976 31.7832 21.512 31.7702 21.5409C31.6402 21.7426 31.3803 21.9299 31.0424 21.9299C30.8994 21.9299 30.7175 21.9011 30.5225 21.6705C30.3016 21.3968 30.2366 20.9933 30.2366 20.7916C30.2366 20.3017 30.4445 19.8118 30.9254 19.8118C31.1594 19.8118 31.3283 19.9271 31.4583 20.0568C31.5883 20.2008 31.6662 20.3738 31.6922 20.5034C31.7052 20.5322 31.7052 20.5467 31.7312 20.5322L31.7832 20.5178C31.7962 20.5178 31.7962 20.5034 31.7962 20.489C31.7832 20.3882 31.7182 19.8406 31.7182 19.783C31.7182 19.7398 31.7182 19.7254 31.6792 19.7254C31.6402 19.7254 31.6402 19.7254 31.6273 19.7398L31.6013 19.8262C31.6013 19.855 31.5883 19.855 31.5363 19.8262C31.4323 19.7542 31.1984 19.6677 30.9124 19.6677C30.5485 19.6677 30.2756 19.8262 30.1196 20.0279C29.9117 20.2873 29.8077 20.6043 29.8077 20.9357C29.8077 21.2383 29.9117 21.6273 30.1326 21.8578C30.3276 22.0452 30.5485 22.1748 30.9384 22.1748C31.3673 22.1748 31.6662 21.9011 31.8482 21.5985C31.8482 21.5841 31.8482 21.5697 31.8482 21.5697L31.8092 21.512ZM28.404 20.8204V21.8867C28.404 21.9875 28.3521 22.0019 28.3261 22.0019H28.2091C28.1701 22.0019 28.1701 22.0019 28.1701 22.0307V22.0884C28.1701 22.1028 28.1701 22.1172 28.1961 22.1172C28.2221 22.1172 28.3391 22.1028 28.573 22.1028C28.7939 22.1028 28.9239 22.1172 28.9499 22.1172C28.9629 22.1172 28.9629 22.1028 28.9629 22.0884V22.0307C28.9629 22.0019 28.9629 22.0019 28.9239 22.0019H28.8069C28.742 22.0019 28.729 21.9587 28.729 21.9011C28.729 21.8002 28.729 21.4544 28.729 21.2959V20.806C28.729 20.6187 28.729 19.9127 28.742 19.7254C28.742 19.6821 28.729 19.6677 28.716 19.6677C28.703 19.6677 28.69 19.6677 28.651 19.6821C28.547 19.7542 28.3131 19.8406 28.1961 19.8839C28.1831 19.8839 28.1701 19.8983 28.1701 19.9127V19.9559C28.1701 19.9703 28.1701 19.9703 28.1831 19.9847L28.2481 19.9991C28.3391 20.0279 28.404 20.0856 28.404 20.2008C28.404 20.2873 28.404 20.5899 28.404 20.8204ZM27.5203 21.8146C27.5203 21.8723 27.4163 21.9731 27.3253 21.9731C27.2473 21.9731 27.1823 21.9011 27.1823 21.7714C27.1823 21.5264 27.3903 21.4688 27.5203 21.3679V21.8146ZM27.5463 21.9587C27.5852 22.1028 27.6892 22.1604 27.8062 22.1604C27.9881 22.1604 28.0531 22.0307 28.0921 21.9587C28.1051 21.9299 28.0921 21.9155 28.0921 21.9011L28.0531 21.8722C28.0401 21.8722 28.0401 21.8723 28.0271 21.8867C28.0141 21.9155 27.9752 21.9443 27.9362 21.9443C27.8842 21.9443 27.8582 21.8867 27.8582 21.7138V21.5553V21.0221C27.8582 20.9357 27.8582 20.8348 27.7802 20.7628C27.7282 20.7051 27.6762 20.6619 27.4943 20.6619C27.2863 20.6619 27.1304 20.7484 27.0004 20.8492C26.9094 20.9213 26.8574 21.0365 26.8574 21.123C26.8574 21.195 26.9094 21.2383 26.9614 21.2383C27.0914 21.2383 27.1434 21.1662 27.1434 21.0366C27.1434 20.9501 27.1174 20.9069 27.1564 20.8636C27.2083 20.8204 27.2733 20.806 27.3383 20.806C27.4033 20.806 27.4553 20.8204 27.4943 20.8492C27.5333 20.8925 27.5333 20.9645 27.5463 21.0366V21.2095C27.4813 21.2671 27.3643 21.3103 27.1693 21.4256C26.9484 21.5409 26.8834 21.6849 26.8834 21.8434C26.8834 22.0307 26.9744 22.1316 27.0914 22.1316C27.1564 22.1316 27.2213 22.1316 27.2863 22.1028C27.3903 22.1028 27.4683 22.0452 27.5463 21.9587ZM26.4155 20.1144C26.4155 20.0279 26.3505 19.9127 26.2206 19.9127C26.0906 19.9127 26.0126 20.0135 26.0126 20.1288C26.0126 20.2441 26.1036 20.3305 26.2076 20.3305C26.3506 20.3305 26.4155 20.2153 26.4155 20.1144ZM26.1036 21.6417C26.1036 21.7426 26.1036 21.8434 26.1036 21.9443C26.1036 22.0019 26.0906 22.0163 26.0516 22.0163H25.9217C25.9087 22.0163 25.8957 22.0163 25.8957 22.0452V22.1028C25.8957 22.1316 25.9087 22.1316 25.9217 22.1316C25.9606 22.1316 26.0776 22.1172 26.2466 22.1172C26.4545 22.1172 26.5975 22.1316 26.6235 22.1316C26.6365 22.1316 26.6495 22.1172 26.6495 22.1028V22.0307C26.6495 22.0163 26.6495 22.0019 26.6235 22.0019H26.4935C26.4675 22.0019 26.4545 21.9731 26.4415 21.9155C26.4285 21.8722 26.4285 21.757 26.4285 21.6273V21.2671C26.4285 20.9789 26.4285 20.7628 26.4415 20.7196C26.4415 20.6907 26.4285 20.6763 26.4155 20.6763C26.4025 20.6763 26.3765 20.6763 26.3376 20.6907C26.2856 20.7196 25.9866 20.8348 25.9347 20.8492C25.9217 20.8636 25.9087 20.8636 25.9087 20.8781V20.9213C25.9087 20.9357 25.9087 20.9501 25.9347 20.9501C26.0776 20.9933 26.0906 21.0654 26.0906 21.1662V21.6417H26.1036ZM25.7007 21.8146C25.6877 21.8002 25.6747 21.8002 25.6747 21.8146C25.5967 21.8867 25.4928 21.9443 25.3498 21.9443C25.2588 21.9443 25.1159 21.9155 25.0379 21.757C24.9209 21.5553 24.9209 21.4112 24.9209 21.2095C24.9209 20.9645 25.0769 20.8204 25.1938 20.8204C25.2718 20.8204 25.3368 20.8492 25.3888 20.9645C25.4148 21.051 25.4668 21.1374 25.5707 21.1374C25.6617 21.1374 25.7007 21.0654 25.7007 20.9933C25.7007 20.8925 25.6227 20.6907 25.2718 20.6907C25.1029 20.6907 24.9599 20.7628 24.8299 20.8925C24.674 21.051 24.609 21.2815 24.609 21.4976C24.609 21.6705 24.635 21.8002 24.7519 21.9731C24.8689 22.1316 25.0379 22.2036 25.2458 22.2036C25.4668 22.2036 25.6877 22.0452 25.7657 21.9443C25.7787 21.9299 25.7787 21.9155 25.7657 21.9011L25.7007 21.8146ZM23.6342 22.0163C23.5042 22.0163 23.4393 21.9587 23.3873 21.8722C23.3093 21.7282 23.2963 21.5985 23.2963 21.3968C23.2963 21.1518 23.3353 21.0077 23.4263 20.8925C23.4783 20.8348 23.5432 20.806 23.6212 20.806C23.7642 20.806 23.9331 21.0221 23.9331 21.3968C23.9331 21.7426 23.8292 22.0163 23.6342 22.0163ZM23.6342 20.6619C23.5042 20.6619 23.3483 20.6907 23.2053 20.8204C23.0234 20.9789 22.9454 21.2239 22.9454 21.3824C22.9454 21.5841 22.9714 21.7282 23.1143 21.9011C23.2573 22.0884 23.4133 22.146 23.6082 22.146C23.8162 22.146 23.9981 22.0596 24.1281 21.9011C24.2451 21.757 24.323 21.5697 24.323 21.3824C24.323 21.1806 24.2581 21.0077 24.1151 20.8492C23.9981 20.7484 23.8422 20.6619 23.6342 20.6619ZM21.2818 21.3535C21.2688 21.3535 21.2688 21.3679 21.2688 21.3824C21.2688 21.4256 21.2168 21.9731 21.2168 22.0163C21.2168 22.0452 21.2298 22.074 21.2558 22.074C21.2818 22.074 21.2948 22.074 21.3078 22.0307C21.3208 22.0019 21.3338 21.9731 21.3598 21.9731C21.3728 21.9731 21.3988 21.9875 21.4378 22.0163C21.5547 22.1172 21.7107 22.1748 21.9576 22.1748C22.3605 22.1748 22.6075 21.829 22.6075 21.4256C22.6075 21.195 22.5555 21.051 22.4515 20.9357C22.3345 20.806 22.1916 20.734 22.0096 20.6763C21.8926 20.6331 21.7107 20.5611 21.6327 20.4602C21.5547 20.3738 21.5417 20.2729 21.5417 20.1576C21.5417 20.0279 21.6327 19.8118 21.8796 19.8118C22.0226 19.8118 22.1136 19.855 22.1916 19.9559C22.3085 20.0856 22.3475 20.2153 22.3865 20.3161C22.3865 20.3305 22.3995 20.3449 22.4125 20.3305L22.4645 20.3161C22.4775 20.3161 22.4775 20.3017 22.4775 20.2873C22.4775 20.2585 22.4255 19.783 22.4255 19.7254C22.4255 19.6965 22.4255 19.6677 22.3995 19.6677C22.3865 19.6677 22.3735 19.6677 22.3605 19.6821L22.3215 19.7254C22.3085 19.7398 22.2825 19.7542 22.2566 19.7398C22.1916 19.711 22.0746 19.6533 21.8667 19.6533C21.6847 19.6533 21.5547 19.6965 21.4378 19.8118C21.2948 19.9415 21.2168 20.1 21.2168 20.2873C21.2168 20.489 21.2688 20.6619 21.3728 20.7772C21.5157 20.9213 21.7237 21.0221 21.8147 21.0654C22.1396 21.195 22.2696 21.2959 22.2696 21.6129C22.2696 21.9011 22.0356 22.0163 21.8667 22.0163C21.7107 22.0163 21.5547 21.9299 21.4638 21.7714C21.3728 21.6273 21.3598 21.4976 21.3468 21.3824C21.3468 21.3679 21.3468 21.3535 21.3338 21.3535H21.2818ZM19.7742 21.7138C19.7742 21.7714 19.7742 21.8146 19.7482 21.8434C19.7222 21.9011 19.6442 21.9587 19.5142 21.9587C19.3193 21.9587 19.1373 21.6849 19.1373 21.2959C19.1373 21.1518 19.1633 21.0077 19.2543 20.8925C19.3193 20.806 19.3973 20.7916 19.4622 20.7916C19.5922 20.7916 19.6832 20.8636 19.7352 20.9501C19.7612 20.9933 19.7612 21.051 19.7612 21.1086V21.7138H19.7742ZM20.0861 20.8348C20.0861 20.4026 20.0861 19.9127 20.0991 19.7398C20.0991 19.6965 20.0991 19.6821 20.0861 19.6821C20.0601 19.6821 20.0471 19.6821 20.0081 19.6965C19.9301 19.711 19.7222 19.7398 19.5662 19.7542C19.5532 19.7686 19.5402 19.7686 19.5402 19.783V19.8406C19.5402 19.855 19.5532 19.855 19.5662 19.8694C19.7352 19.8983 19.7612 19.9559 19.7612 20.0712L19.7742 20.734C19.6962 20.7052 19.6052 20.6907 19.4882 20.6907C19.3063 20.6907 19.1633 20.7628 19.0333 20.9069C18.8774 21.0942 18.8254 21.2815 18.8254 21.5264C18.8254 21.7426 18.8904 21.8867 19.0204 22.0307C19.1373 22.1604 19.2673 22.2036 19.3843 22.2036C19.5272 22.2036 19.7092 22.1172 19.8132 22.0019L19.8521 22.1604C19.8521 22.1892 19.8781 22.2037 19.8911 22.1892L20.307 22.0596C20.32 22.0452 20.333 22.0452 20.32 22.0163V21.9731C20.32 21.9587 20.307 21.9587 20.255 21.9587C20.2161 21.9587 20.1641 21.9443 20.1251 21.9011C20.0991 21.8723 20.0991 21.7282 20.0991 21.5985V20.8348H20.0861ZM17.1098 20.8781C17.0968 20.8781 17.0838 20.8925 17.0838 20.9069V20.9357C17.0838 20.9501 17.0968 20.9645 17.1098 20.9645L17.1358 20.9789C17.2138 21.0221 17.2658 21.0798 17.2658 21.1806V21.9443C17.2658 22.0019 17.2268 22.0163 17.1878 22.0163H17.1228C17.0968 22.0163 17.0968 22.0163 17.0968 22.0452V22.1028C17.0968 22.1172 17.0968 22.1316 17.1098 22.1316C17.1228 22.1316 17.2268 22.1172 17.4217 22.1172C17.6037 22.1172 17.6947 22.1316 17.7077 22.1316C17.7207 22.1316 17.7337 22.1172 17.7337 22.1028V22.0452C17.7337 22.0163 17.7337 22.0163 17.7077 22.0163H17.6557C17.6167 22.0163 17.6037 21.9731 17.6037 21.9011V21.195C17.6037 21.1086 17.6167 21.0077 17.6687 20.9501C17.7467 20.8781 17.8117 20.8636 17.8636 20.8636C17.9286 20.8636 17.9806 20.8636 18.0456 20.9213C18.1236 20.9933 18.1236 21.0798 18.1236 21.2095V21.5985C18.1236 21.7426 18.1236 21.829 18.1106 21.9155C18.1106 21.9731 18.0846 22.0019 18.0586 22.0019H17.9936C17.9676 22.0019 17.9546 22.0019 17.9546 22.0307V22.0884C17.9546 22.1172 17.9676 22.1316 17.9806 22.1316C17.9936 22.1316 18.0976 22.1172 18.2795 22.1172C18.4875 22.1172 18.5915 22.1316 18.6045 22.1316C18.6175 22.1316 18.6304 22.1316 18.6304 22.1028V22.0307C18.6304 22.0163 18.6175 22.0019 18.5915 22.0019H18.5005C18.4615 22.0019 18.4225 21.9875 18.4225 21.9011C18.4225 21.829 18.4225 21.6849 18.4225 21.5697V21.0798C18.4225 20.9357 18.3835 20.8348 18.2535 20.734C18.1886 20.6763 18.0846 20.6475 17.9806 20.6475C17.8896 20.6475 17.8117 20.6763 17.7337 20.734C17.6687 20.7628 17.6167 20.8204 17.5777 20.8636H17.5647L17.5387 20.6907C17.5387 20.6619 17.5257 20.6475 17.4997 20.6475C17.4867 20.6475 17.4607 20.6619 17.4347 20.6763L17.1098 20.8781ZM16.343 21.8146C16.343 21.8723 16.239 21.9731 16.1481 21.9731C16.0701 21.9731 16.0051 21.9011 16.0051 21.7714C16.0051 21.5264 16.213 21.4688 16.343 21.3679V21.8146ZM16.369 21.9587C16.408 22.1028 16.512 22.1604 16.6289 22.1604C16.8109 22.1604 16.8759 22.0307 16.9149 21.9587C16.9279 21.9299 16.9279 21.9155 16.9149 21.9011L16.8759 21.8722C16.8629 21.8722 16.8629 21.8723 16.8499 21.8867C16.8369 21.9155 16.7979 21.9443 16.7459 21.9443C16.6939 21.9443 16.6679 21.8867 16.6679 21.7138V21.5553V21.0221C16.6679 20.9357 16.6679 20.8348 16.59 20.7628C16.538 20.7051 16.486 20.6619 16.304 20.6619C16.0961 20.6619 15.9401 20.7484 15.8101 20.8492C15.7192 20.9213 15.6672 21.0365 15.6672 21.123C15.6672 21.195 15.7192 21.2383 15.7712 21.2383C15.9011 21.2383 15.9531 21.1662 15.9531 21.0366C15.9531 20.9501 15.9271 20.9069 15.9661 20.8636C16.0181 20.8204 16.0831 20.806 16.1481 20.806C16.213 20.806 16.265 20.8204 16.304 20.8492C16.343 20.8925 16.343 20.9645 16.356 21.0366V21.2095C16.291 21.2671 16.1741 21.3103 15.9791 21.4256C15.7582 21.5409 15.6932 21.6849 15.6932 21.8434C15.6932 22.0307 15.7971 22.1316 15.9011 22.1316C15.9661 22.1316 16.0311 22.1316 16.0961 22.1028C16.213 22.1028 16.291 22.0452 16.369 21.9587ZM14.7834 21.8146C14.7704 21.8002 14.7574 21.8002 14.7574 21.8146C14.6794 21.8867 14.5754 21.9443 14.4325 21.9443C14.3285 21.9443 14.1985 21.9155 14.1206 21.757C14.0036 21.5553 14.0036 21.4112 14.0036 21.2095C14.0036 20.9645 14.1595 20.8204 14.2765 20.8204C14.3545 20.8204 14.4195 20.8492 14.4715 20.9645C14.4975 21.051 14.5495 21.1374 14.6534 21.1374C14.7444 21.1374 14.7834 21.0654 14.7834 20.9933C14.7834 20.8925 14.7054 20.6907 14.3545 20.6907C14.1855 20.6907 14.0296 20.7628 13.9126 20.8925C13.7566 21.051 13.6917 21.2815 13.6917 21.4976C13.6917 21.6705 13.7177 21.8002 13.8346 21.9731C13.9516 22.1316 14.1206 22.2036 14.3285 22.2036C14.5495 22.2036 14.7704 22.0452 14.8484 21.9443C14.8614 21.9299 14.8614 21.9155 14.8484 21.9011L14.7834 21.8146ZM13.2498 20.1144C13.2498 20.0279 13.1848 19.9127 13.0548 19.9127C12.9249 19.9127 12.8339 20.0135 12.8339 20.1288C12.8339 20.2441 12.9378 20.3305 13.0288 20.3305C13.1848 20.3305 13.2498 20.2153 13.2498 20.1144ZM12.9378 21.6417C12.9378 21.7426 12.9378 21.8434 12.9378 21.9443C12.9378 22.0019 12.9249 22.0163 12.8859 22.0163H12.7559C12.7429 22.0163 12.7299 22.0163 12.7299 22.0452V22.1028C12.7299 22.1316 12.7429 22.1316 12.7559 22.1316C12.7949 22.1316 12.9119 22.1172 13.0808 22.1172C13.2888 22.1172 13.4317 22.1316 13.4577 22.1316C13.4707 22.1316 13.4837 22.1172 13.4837 22.1028V22.0307C13.4837 22.0163 13.4837 22.0019 13.4577 22.0019H13.3408C13.3148 22.0019 13.3018 21.9731 13.2888 21.9155C13.2888 21.8722 13.2888 21.757 13.2888 21.6273V21.2671C13.2888 20.9789 13.2888 20.7628 13.2888 20.7196C13.2888 20.6907 13.2888 20.6763 13.2628 20.6763C13.2368 20.6763 13.2238 20.6763 13.1848 20.6907C13.1328 20.7196 12.8339 20.8348 12.7819 20.8492C12.7689 20.8636 12.7559 20.8636 12.7559 20.8781V20.9213C12.7559 20.9357 12.7559 20.9501 12.7819 20.9501C12.9249 20.9933 12.9378 21.0654 12.9378 21.1662V21.6417ZM10.2215 20.8781C10.2085 20.8781 10.1955 20.8925 10.1955 20.9069V20.9357C10.1955 20.9501 10.1955 20.9501 10.2215 20.9645L10.2865 21.0077C10.3645 21.051 10.3775 21.1086 10.3775 21.2239V21.9299C10.3775 21.9875 10.3515 22.0163 10.3255 22.0163H10.2345C10.2085 22.0163 10.1955 22.0163 10.1955 22.0452V22.1172C10.1955 22.146 10.1955 22.146 10.2215 22.146C10.2475 22.146 10.3385 22.1316 10.5204 22.1316C10.7154 22.1316 10.8064 22.146 10.8324 22.146C10.8454 22.146 10.8584 22.1316 10.8584 22.1172V22.0452C10.8584 22.0307 10.8584 22.0307 10.8324 22.0307H10.7674C10.7284 22.0307 10.7024 22.0019 10.7024 21.8722V21.2671C10.7024 21.1662 10.7154 21.0942 10.7544 21.0221C10.8064 20.9213 10.9103 20.8781 10.9753 20.8781C11.0403 20.8781 11.1053 20.8925 11.1443 20.9213C11.1833 20.9645 11.2223 21.0365 11.2223 21.2815V21.8578C11.2223 21.9731 11.1963 22.0163 11.1443 22.0163H11.0793C11.0663 22.0163 11.0533 22.0163 11.0533 22.0452V22.1028C11.0533 22.1172 11.0533 22.1316 11.0793 22.1316C11.0923 22.1316 11.1963 22.1172 11.3912 22.1172C11.5862 22.1172 11.6642 22.1316 11.6902 22.1316C11.7032 22.1316 11.7032 22.1172 11.7032 22.1028V22.0307C11.7032 22.0163 11.7032 22.0019 11.6772 22.0019H11.5992C11.5602 22.0019 11.5472 21.9731 11.5472 21.9011V21.2671C11.5472 21.1806 11.5472 21.0654 11.5862 21.0077C11.6252 20.9501 11.7161 20.8636 11.8071 20.8636C11.8851 20.8636 11.9371 20.8781 11.9891 20.9357C12.0411 20.9933 12.0541 21.0798 12.0541 21.2383V21.6417C12.0541 21.7426 12.0411 21.8722 12.0411 21.9443C12.0411 21.9875 12.0151 22.0163 11.9761 22.0163H11.9241C11.9111 22.0163 11.8981 22.0163 11.8981 22.0452V22.1172C11.8981 22.1316 11.9111 22.146 11.9241 22.146C11.9371 22.146 12.0541 22.1316 12.223 22.1316C12.418 22.1316 12.496 22.146 12.522 22.146C12.5349 22.146 12.5479 22.1316 12.5479 22.1172V22.0452C12.5479 22.0307 12.5479 22.0163 12.522 22.0163H12.444C12.405 22.0163 12.366 21.9875 12.366 21.9155C12.366 21.8722 12.366 21.7138 12.366 21.6129V21.2239C12.366 20.9357 12.314 20.8781 12.223 20.7916C12.145 20.6907 12.0671 20.6763 11.9371 20.6763C11.7681 20.6763 11.6122 20.7772 11.5082 20.9213H11.4952C11.4172 20.7772 11.3132 20.6763 11.1313 20.6763C10.9493 20.6763 10.7804 20.7916 10.6894 20.9213H10.6764L10.6634 20.7196C10.6634 20.6907 10.6504 20.6763 10.6244 20.6763C10.6114 20.6763 10.5854 20.6763 10.5594 20.6907L10.2215 20.8781ZM9.25975 22.0163C9.12979 22.0163 9.0648 21.9587 9.01281 21.8722C8.93483 21.7282 8.92184 21.5985 8.92184 21.3968C8.92184 21.1518 8.96083 21.0077 9.05181 20.8925C9.10379 20.8348 9.16878 20.806 9.24676 20.806C9.38972 20.806 9.55868 21.0221 9.55868 21.3968C9.57168 21.7426 9.4677 22.0163 9.25975 22.0163ZM9.27275 20.6619C9.14278 20.6619 8.98682 20.6907 8.83086 20.8204C8.6489 20.9789 8.57092 21.2239 8.57092 21.3824C8.57092 21.5841 8.59692 21.7282 8.73988 21.9011C8.88285 22.0884 9.03881 22.146 9.23376 22.146C9.44171 22.146 9.62366 22.0596 9.75363 21.9011C9.8706 21.757 9.94858 21.5697 9.94858 21.3824C9.94858 21.1806 9.8836 21.0077 9.74064 20.8492C9.62366 20.7484 9.4677 20.6619 9.27275 20.6619ZM6.86834 20.8781C6.85535 20.8781 6.84235 20.8925 6.84235 20.9069V20.9357C6.84235 20.9501 6.84235 20.9645 6.86834 20.9645L6.89434 20.9789C6.97232 21.0221 7.0243 21.0798 7.0243 21.1806V21.9443C7.0243 22.0019 6.98531 22.0163 6.94632 22.0163H6.86834C6.84235 22.0163 6.84235 22.0163 6.84235 22.0452V22.1028C6.84235 22.1172 6.84235 22.1316 6.85535 22.1316C6.86834 22.1316 6.97232 22.1172 7.16727 22.1172C7.34922 22.1172 7.4402 22.1316 7.4532 22.1316C7.46619 22.1316 7.47919 22.1172 7.47919 22.1028V22.0452C7.47919 22.0163 7.46619 22.0163 7.4532 22.0163H7.38821C7.34922 22.0163 7.33623 21.9731 7.33623 21.9011V21.195C7.33623 21.1086 7.34922 21.0077 7.40121 20.9501C7.47919 20.8781 7.54418 20.8636 7.59616 20.8636C7.66115 20.8636 7.71313 20.8636 7.77812 20.9213C7.8561 20.9933 7.8561 21.0798 7.8561 21.2095V21.5985C7.8561 21.7426 7.8561 21.829 7.8431 21.9155C7.8431 21.9731 7.81711 22.0019 7.79111 22.0019H7.72613C7.70014 22.0019 7.68714 22.0019 7.68714 22.0307V22.0884C7.68714 22.1172 7.68714 22.1316 7.71313 22.1316C7.72613 22.1316 7.83011 22.1172 8.01206 22.1172C8.23301 22.1172 8.32398 22.1316 8.33698 22.1316C8.34998 22.1316 8.36297 22.1316 8.36297 22.1028V22.0307C8.36297 22.0163 8.34998 22.0019 8.32398 22.0019H8.23301C8.19402 22.0019 8.15503 21.9875 8.15503 21.9011C8.15503 21.829 8.15503 21.6849 8.15503 21.5697V21.0798C8.15503 20.9357 8.11603 20.8348 7.98607 20.734C7.92108 20.6763 7.81711 20.6475 7.71313 20.6475C7.62216 20.6475 7.54418 20.6763 7.46619 20.734C7.40121 20.7628 7.34922 20.8204 7.31023 20.8636H7.29724L7.27124 20.6907C7.27124 20.6619 7.25825 20.6475 7.23225 20.6475C7.20626 20.6475 7.19326 20.6619 7.16727 20.6763L6.86834 20.8781ZM5.89358 22.0163C5.77661 22.0163 5.69863 21.9587 5.64664 21.8722C5.56866 21.7282 5.55566 21.5985 5.55566 21.3968C5.55566 21.1518 5.59466 21.0077 5.68563 20.8925C5.73762 20.8348 5.8026 20.806 5.88059 20.806C6.02355 20.806 6.19251 21.0221 6.19251 21.3968C6.19251 21.7426 6.08853 22.0163 5.89358 22.0163ZM5.89358 20.6619C5.76361 20.6619 5.60765 20.6907 5.45169 20.8204C5.26973 20.9789 5.19175 21.2239 5.19175 21.3824C5.19175 21.5841 5.21775 21.7282 5.36071 21.9011C5.50368 22.0884 5.65964 22.146 5.85459 22.146C6.06254 22.146 6.24449 22.0596 6.37446 21.9011C6.49143 21.757 6.56942 21.5697 6.56942 21.3824C6.56942 21.1806 6.50443 21.0077 6.36147 20.8492C6.25749 20.7484 6.10153 20.6619 5.89358 20.6619ZM4.97081 21.8146C4.95781 21.8002 4.94482 21.8002 4.94482 21.8146C4.86683 21.8867 4.76286 21.9443 4.6199 21.9443C4.51592 21.9443 4.38595 21.9155 4.30797 21.757C4.191 21.5553 4.191 21.4112 4.191 21.2095C4.191 20.9645 4.34696 20.8204 4.46393 20.8204C4.54191 20.8204 4.6069 20.8492 4.65889 20.9645C4.68488 21.051 4.73687 21.1374 4.84084 21.1374C4.93182 21.1374 4.97081 21.0654 4.97081 20.9933C4.97081 20.8925 4.89283 20.6907 4.54191 20.6907C4.37296 20.6907 4.21699 20.7628 4.10002 20.8925C3.94406 21.051 3.87908 21.2815 3.87908 21.4976C3.87908 21.6705 3.90507 21.8002 4.02204 21.9731C4.13901 22.146 4.30797 22.2036 4.51592 22.2036C4.73687 22.2036 4.95781 22.0452 5.03579 21.9443C5.04879 21.9299 5.04879 21.9155 5.03579 21.9011L4.97081 21.8146ZM2.35845 20.9357C2.44943 20.9357 2.60539 20.9357 2.70936 20.9501C2.77435 20.9501 2.83933 21.0077 2.86533 21.0654C2.87832 21.1086 2.90432 21.1806 2.91731 21.2383C2.93031 21.2527 2.93031 21.2671 2.94331 21.2671L3.00829 21.2527C3.02129 21.2527 3.03428 21.2527 3.03428 21.2239C3.02129 21.1518 3.02129 20.9933 3.02129 20.8492C3.02129 20.7628 3.02129 20.5322 3.02129 20.489C3.02129 20.4746 3.02129 20.4602 3.00829 20.4602H2.93031C2.91731 20.4602 2.90432 20.4602 2.90432 20.489C2.90432 20.5467 2.87832 20.6331 2.85233 20.6763C2.81334 20.7628 2.77435 20.7772 2.70936 20.7916C2.67037 20.806 2.44943 20.806 2.35845 20.806V19.8262L2.82634 19.8406C2.90432 19.8406 2.99529 19.8839 3.06028 19.9271C3.13826 19.9703 3.3852 20.2873 3.3982 20.3017C3.41119 20.3161 3.41119 20.3161 3.42419 20.3161L3.47618 20.2873C3.48917 20.2873 3.48917 20.2729 3.48917 20.2441C3.47618 20.2153 3.35921 19.7542 3.34621 19.711C3.34621 19.6965 3.33321 19.6965 3.32021 19.6965C3.30722 19.6965 3.24223 19.6965 3.20324 19.6965C3.07328 19.6965 2.35845 19.711 2.22848 19.711H2.13751C1.89057 19.711 1.77359 19.6965 1.70861 19.6965C1.69561 19.6965 1.69561 19.6965 1.69561 19.7254V19.8118C1.69561 19.8262 1.69561 19.8406 1.70861 19.8406H1.82558C1.91656 19.8406 1.94255 19.8695 1.95555 19.9559C1.95555 19.9991 1.96855 20.4314 1.96855 20.7051V21.8434C1.96855 21.9731 1.95555 21.9875 1.81259 21.9875H1.70861C1.68262 21.9875 1.68262 21.9875 1.68262 22.0163V22.1028C1.68262 22.1172 1.68262 22.1316 1.70861 22.1316C1.7346 22.1316 1.77359 22.1316 1.83858 22.1316C1.90356 22.1316 1.98154 22.1316 2.09851 22.1316C2.60539 22.1316 2.93031 22.1316 3.11227 22.1316C3.30722 22.1316 3.3722 22.1316 3.3852 22.1316C3.42419 22.1316 3.45018 22.1172 3.45018 22.074L3.59315 21.5697C3.59315 21.5553 3.59315 21.5409 3.59315 21.5409L3.54116 21.512C3.52816 21.512 3.51517 21.512 3.50217 21.5264C3.45018 21.6129 3.26823 21.829 3.21624 21.8867C3.13826 21.9587 3.02129 21.9875 2.9693 22.0019C2.90432 22.0019 2.76135 22.0163 2.70936 22.0163C2.59239 22.0163 2.51441 22.0019 2.47542 21.9875C2.41044 21.9731 2.35845 21.9011 2.35845 21.7282C2.35845 21.6705 2.35845 21.3391 2.34545 21.1518L2.35845 20.9357Z" fill="white"/>
<path d="M69.0716 19.8551C69.1236 19.8262 69.1885 19.8262 69.2535 19.8262C69.3965 19.8262 69.7344 19.9271 69.7344 20.3882C69.7344 20.5034 69.7214 20.6331 69.6564 20.734C69.5784 20.8493 69.4225 20.9645 69.2925 20.9645C69.2145 20.9645 69.1236 20.9645 69.0716 20.9357V19.8551ZM68.6817 20.9357C68.6817 21.3247 68.6817 21.8579 68.6687 21.8867C68.6557 21.9731 68.6297 21.9875 68.5257 21.9875H68.4347C68.4217 21.9875 68.4217 21.9875 68.4217 22.0164V22.1028C68.4217 22.1172 68.4217 22.1316 68.4477 22.1316C68.4737 22.1316 68.6037 22.1172 68.8766 22.1172C69.2015 22.1172 69.3055 22.1316 69.3445 22.1316C69.3705 22.1316 69.3705 22.1172 69.3705 22.1028V22.0308C69.3705 22.0164 69.3705 22.0019 69.3445 22.0019H69.1756C69.1236 22.0019 69.0846 21.9731 69.0846 21.8867C69.0846 21.8435 69.0846 21.3824 69.0846 21.2239V21.0798C69.1626 21.0942 69.2535 21.0942 69.3575 21.0942C69.8774 21.0942 70.1763 20.8348 70.1763 20.4026C70.1763 20.1865 70.0853 19.9991 69.9424 19.8839C69.7604 19.7542 69.5915 19.711 69.2145 19.711C69.1106 19.711 68.9286 19.7254 68.8766 19.7254C68.5647 19.7254 68.4607 19.711 68.4217 19.711C68.4087 19.711 68.4087 19.7254 68.4087 19.7398V19.8262C68.4087 19.8406 68.4087 19.8551 68.4217 19.8551H68.5777C68.6427 19.8551 68.6817 19.8695 68.6817 19.9271C68.6817 19.9703 68.6817 20.3305 68.6817 20.5467V20.9357V20.9357ZM66.6802 21.1374C66.7192 20.9069 66.8101 20.7916 66.9661 20.7916C67.1221 20.7916 67.1611 20.9933 67.1611 21.0942C67.1611 21.123 67.1221 21.1374 67.0571 21.1374H66.6802V21.1374ZM66.6802 21.2671H67.421C67.473 21.2671 67.512 21.2671 67.512 21.2095C67.512 21.0654 67.395 20.6619 67.0441 20.6619C66.7841 20.6619 66.6412 20.734 66.5112 20.9069C66.3812 21.0942 66.3552 21.2239 66.3552 21.4112C66.3552 21.6273 66.3812 21.7858 66.5242 21.9731C66.6282 22.1028 66.7711 22.1604 66.9661 22.1604C67.304 22.1604 67.46 21.9299 67.525 21.8002C67.551 21.757 67.538 21.7426 67.525 21.7282L67.486 21.6994C67.473 21.6994 67.46 21.6994 67.447 21.7138C67.382 21.8146 67.265 21.9155 67.0701 21.9155C66.9011 21.9155 66.6672 21.7138 66.6672 21.368V21.2671H66.6802ZM65.6404 21.6129C65.6404 21.7282 65.6404 21.9011 65.6404 21.9443C65.6274 22.0019 65.5884 22.0164 65.5494 22.0164H65.4975C65.4845 22.0164 65.4715 22.0164 65.4715 22.0308V22.1172C65.4715 22.1316 65.4715 22.146 65.4975 22.146C65.5234 22.146 65.6404 22.1316 65.8224 22.1316C66.0043 22.1316 66.1083 22.146 66.1213 22.146C66.1343 22.146 66.1473 22.1316 66.1473 22.1172V22.0452C66.1473 22.0308 66.1343 22.0164 66.1213 22.0164H66.0693C66.0173 22.0164 65.9653 22.0164 65.9653 21.9587V21.3103C65.9653 21.123 65.9653 20.9501 65.8354 20.806C65.7444 20.7196 65.6664 20.6764 65.5365 20.6764C65.3935 20.6764 65.2245 20.7484 65.1465 20.8781H65.1335V20.6619C65.1335 20.489 65.1335 19.8118 65.1335 19.7542C65.1465 19.6966 65.1335 19.6677 65.1076 19.6677C65.0816 19.6677 65.0556 19.6822 65.0166 19.6966C64.9256 19.7542 64.7176 19.8695 64.6137 19.8983C64.5747 19.9127 64.5747 19.9271 64.5747 19.9415V19.9703C64.5747 19.9847 64.5747 19.9847 64.6007 19.9991L64.6527 20.0136C64.7566 20.0568 64.7956 20.1288 64.7956 20.3161V21.5265C64.7956 21.685 64.7956 21.8723 64.7826 21.9443C64.7696 21.9875 64.7306 22.0019 64.6787 22.0019H64.6007C64.5877 22.0019 64.5747 22.0019 64.5747 22.0308V22.1028C64.5747 22.1172 64.5877 22.1316 64.6007 22.1316C64.6267 22.1316 64.7436 22.1172 64.9256 22.1172C65.0816 22.1172 65.2245 22.1316 65.2375 22.1316C65.2505 22.1316 65.2635 22.1172 65.2635 22.1028V22.0452C65.2635 22.0164 65.2505 22.0164 65.2375 22.0164H65.1595C65.1206 22.0164 65.1076 21.9875 65.1076 21.8723V21.1374C65.1076 21.0798 65.1335 21.0078 65.1595 20.9645C65.2245 20.8925 65.3025 20.8493 65.3805 20.8493C65.4585 20.8493 65.4975 20.8781 65.5494 20.9357C65.6274 21.0222 65.6274 21.2095 65.6274 21.3968V21.6129H65.6404ZM63.7169 20.8925V21.3391C63.7169 21.4688 63.7039 21.7426 63.7039 21.8579C63.7039 22.0019 63.8469 22.1604 64.0288 22.1604C64.2368 22.1604 64.3667 22.0596 64.4187 22.0308C64.4317 22.0164 64.4317 22.0019 64.4317 21.9875L64.4187 21.9443C64.4187 21.9299 64.4057 21.9299 64.3797 21.9443C64.3407 21.9731 64.2758 21.9875 64.1978 21.9875C64.1328 21.9875 64.0288 21.9299 64.0288 21.6705V21.368C64.0288 21.2239 64.0288 21.051 64.0418 20.9069H64.4187C64.4317 20.9069 64.4447 20.9069 64.4447 20.8925L64.4707 20.7484C64.4707 20.734 64.4707 20.7196 64.4447 20.7196H64.0418L64.0548 20.3882C64.0548 20.3594 64.0418 20.3449 64.0158 20.3449C64.0028 20.3449 63.9768 20.345 63.9638 20.3738C63.8988 20.5179 63.6259 20.7628 63.5479 20.806C63.5089 20.8204 63.496 20.8493 63.496 20.8637C63.496 20.8925 63.5089 20.9069 63.5349 20.9069H63.7169V20.8925ZM62.1703 21.7138C62.1703 21.7714 62.1703 21.8146 62.1443 21.8434C62.1183 21.9011 62.0403 21.9587 61.9103 21.9587C61.7154 21.9587 61.5334 21.685 61.5334 21.2959C61.5334 21.1518 61.5594 21.0078 61.6504 20.8925C61.7024 20.806 61.7934 20.7916 61.8584 20.7916C61.9883 20.7916 62.0793 20.8637 62.1313 20.9501C62.1573 20.9933 62.1573 21.051 62.1573 21.1086V21.7138H62.1703ZM62.4952 20.8204C62.4952 20.3882 62.4952 19.8983 62.5082 19.7254C62.5082 19.6822 62.5082 19.6677 62.4952 19.6677C62.4692 19.6677 62.4562 19.6677 62.4172 19.6822C62.3392 19.6966 62.1313 19.7254 61.9883 19.7398C61.9753 19.7542 61.9623 19.7542 61.9623 19.7686V19.8262C61.9623 19.8406 61.9753 19.8406 61.9883 19.8551C62.1573 19.8839 62.1833 19.9415 62.1833 20.0568L62.1963 20.7196C62.1183 20.6908 62.0273 20.6764 61.9103 20.6764C61.7284 20.6764 61.5854 20.7484 61.4555 20.8925C61.2995 21.0798 61.2475 21.2671 61.2475 21.5121C61.2475 21.7282 61.3125 21.8723 61.4425 22.0164C61.5594 22.146 61.6894 22.1893 61.8064 22.1893C61.9493 22.1893 62.1313 22.1028 62.2353 21.9875L62.2742 22.146C62.2742 22.1748 62.3002 22.1893 62.3132 22.1749L62.7291 22.0452C62.7421 22.0308 62.7551 22.0308 62.7421 22.0019V21.9587C62.7421 21.9443 62.7291 21.9443 62.6772 21.9443C62.6382 21.9443 62.5862 21.9299 62.5472 21.8867C62.5212 21.8579 62.5212 21.7138 62.5212 21.5841V20.8204H62.4952ZM59.5059 20.8781C59.4929 20.8781 59.4799 20.8925 59.4799 20.9069V20.9357C59.4799 20.9501 59.4929 20.9645 59.5059 20.9645L59.5319 20.9789C59.6099 21.0222 59.6619 21.0798 59.6619 21.1807V21.9443C59.6619 22.0019 59.6229 22.0164 59.5839 22.0164H59.5059C59.4799 22.0164 59.4799 22.0164 59.4799 22.0452V22.1028C59.4799 22.1172 59.4799 22.1316 59.4929 22.1316C59.5059 22.1316 59.6099 22.1172 59.8049 22.1172C59.9868 22.1172 60.0778 22.1316 60.0908 22.1316C60.1038 22.1316 60.1168 22.1172 60.1168 22.1028V22.0452C60.1168 22.0164 60.1168 22.0164 60.0908 22.0164H60.0258C59.9868 22.0164 59.9738 21.9731 59.9738 21.9011V21.1951C59.9738 21.1086 59.9868 21.0077 60.0388 20.9501C60.1168 20.8781 60.1818 20.8637 60.2338 20.8637C60.2987 20.8637 60.3507 20.8637 60.4157 20.9213C60.4937 20.9933 60.4937 21.0798 60.4937 21.2095V21.5985C60.4937 21.7426 60.4937 21.829 60.4807 21.9155C60.4807 21.9731 60.4547 22.0019 60.4287 22.0019H60.3637C60.3377 22.0019 60.3247 22.0019 60.3247 22.0308V22.0884C60.3247 22.1172 60.3377 22.1316 60.3507 22.1316C60.3637 22.1316 60.4677 22.1172 60.6496 22.1172C60.8576 22.1172 60.9616 22.1316 60.9746 22.1316C60.9876 22.1316 61.0006 22.1316 61.0006 22.1028V22.0308C61.0006 22.0164 60.9876 22.0019 60.9616 22.0019H60.8706C60.8316 22.0019 60.7926 21.9875 60.7926 21.9011C60.7926 21.829 60.7926 21.685 60.7926 21.5697V21.0798C60.7926 20.9357 60.7536 20.8348 60.6237 20.734C60.5587 20.6764 60.4547 20.6475 60.3507 20.6475C60.2597 20.6475 60.1818 20.6764 60.1038 20.734C60.0388 20.7628 59.9868 20.8204 59.9478 20.8637H59.9348L59.9088 20.6908C59.8958 20.6619 59.8958 20.6475 59.8698 20.6475C59.8568 20.6475 59.8309 20.6619 59.8049 20.6764L59.5059 20.8781ZM58.7391 21.8146C58.7391 21.8723 58.6351 21.9731 58.5442 21.9731C58.4662 21.9731 58.4012 21.9011 58.4012 21.7714C58.4012 21.5265 58.6092 21.4688 58.7391 21.368V21.8146ZM58.7781 21.9587C58.8171 22.1028 58.9211 22.1604 59.038 22.1604C59.22 22.1604 59.285 22.0308 59.324 21.9587C59.337 21.9299 59.324 21.9155 59.324 21.9011L59.285 21.8723C59.272 21.8723 59.272 21.8723 59.259 21.8867C59.246 21.9155 59.207 21.9443 59.155 21.9443C59.103 21.9443 59.077 21.8867 59.077 21.7138V21.5553V21.0222C59.077 20.9357 59.077 20.8348 58.9991 20.7628C58.9471 20.7052 58.8821 20.6619 58.7131 20.6619C58.5052 20.6619 58.3492 20.7484 58.2192 20.8493C58.1283 20.9213 58.0763 21.0366 58.0763 21.123C58.0763 21.1951 58.1283 21.2383 58.1803 21.2383C58.3102 21.2383 58.3622 21.1662 58.3622 21.0366C58.3622 20.9501 58.3362 20.9069 58.3752 20.8637C58.4272 20.8204 58.4922 20.806 58.5572 20.806C58.6222 20.806 58.6741 20.8204 58.7131 20.8493C58.7521 20.8925 58.7521 20.9645 58.7651 21.0366V21.2095C58.7001 21.2671 58.5832 21.3103 58.3882 21.4256C58.1673 21.5409 58.1023 21.685 58.1023 21.8434C58.1023 22.0308 58.2062 22.1316 58.3102 22.1316C58.3752 22.1316 58.4402 22.1316 58.5052 22.1028C58.6092 22.1028 58.6871 22.0452 58.7781 21.9587ZM56.6726 21.8146C56.6726 21.8723 56.5687 21.9731 56.4777 21.9731C56.3997 21.9731 56.3347 21.9011 56.3347 21.7714C56.3347 21.5265 56.5427 21.4688 56.6726 21.368V21.8146ZM56.7116 21.9587C56.7506 22.1028 56.8546 22.1604 56.9716 22.1604C57.1535 22.1604 57.2185 22.0308 57.2575 21.9587C57.2705 21.9299 57.2705 21.9155 57.2575 21.9011L57.2185 21.8723C57.2055 21.8723 57.2055 21.8723 57.1925 21.8867C57.1795 21.9155 57.1405 21.9443 57.0885 21.9443C57.0365 21.9443 57.0105 21.8867 57.0105 21.7138V21.5553L56.9976 21.0222C56.9976 20.9357 56.9975 20.8348 56.9196 20.7628C56.8676 20.7052 56.8156 20.6619 56.6336 20.6619C56.4257 20.6619 56.2697 20.7484 56.1398 20.8493C56.0488 20.9213 55.9968 21.0366 55.9968 21.123C55.9968 21.1951 56.0488 21.2383 56.1008 21.2383C56.2307 21.2383 56.2827 21.1662 56.2827 21.0366C56.2827 20.9501 56.2567 20.9069 56.2957 20.8637C56.3477 20.8204 56.4127 20.806 56.4777 20.806C56.5427 20.806 56.6076 20.8204 56.6336 20.8493C56.6726 20.8925 56.6726 20.9645 56.6856 21.0366V21.2095C56.6206 21.2671 56.5037 21.3103 56.3087 21.4256C56.0878 21.5409 56.0228 21.685 56.0228 21.8434C56.0228 22.0308 56.1268 22.1316 56.2307 22.1316C56.2957 22.1316 56.3607 22.1316 56.4257 22.1028C56.5427 22.0596 56.6206 22.0019 56.6856 21.9155H56.7116V21.9587ZM55.5809 20.1144C55.5809 20.028 55.5159 19.9127 55.3859 19.9127C55.256 19.9127 55.165 20.0136 55.165 20.1288C55.165 20.2441 55.269 20.3305 55.36 20.3305C55.5159 20.3305 55.5809 20.2153 55.5809 20.1144ZM55.269 21.6417C55.269 21.7426 55.269 21.8435 55.256 21.9443C55.256 22.0019 55.243 22.0164 55.204 22.0164H55.074C55.061 22.0164 55.048 22.0164 55.048 22.0452V22.1028C55.048 22.1316 55.061 22.1316 55.074 22.1316C55.113 22.1316 55.23 22.1172 55.3989 22.1172C55.6069 22.1172 55.7499 22.1316 55.7758 22.1316C55.7888 22.1316 55.8018 22.1172 55.8018 22.1028V22.0308C55.8018 22.0164 55.8018 22.0019 55.7758 22.0019H55.6589C55.6329 22.0019 55.6199 21.9731 55.6069 21.9155C55.6069 21.8723 55.6069 21.757 55.6069 21.6273V21.2671C55.6069 20.9789 55.6069 20.7628 55.6069 20.7196C55.6069 20.6908 55.6069 20.6764 55.5809 20.6764C55.5679 20.6764 55.5419 20.6763 55.5029 20.6908C55.4509 20.7196 55.152 20.8348 55.1 20.8493C55.087 20.8637 55.074 20.8637 55.074 20.8781V20.9213C55.074 20.9357 55.074 20.9501 55.1 20.9501C55.243 20.9933 55.256 21.0654 55.256 21.1662V21.6417H55.269ZM53.9693 22.0452C53.9693 22.0596 53.9823 22.074 53.9953 22.0884C54.0343 22.1172 54.1642 22.1749 54.3202 22.1749C54.6191 22.1749 54.8271 21.9731 54.8271 21.685C54.8271 21.5697 54.8011 21.4832 54.7361 21.4112C54.6581 21.3103 54.5671 21.2815 54.4242 21.2383C54.2422 21.1807 54.1512 21.1374 54.1512 21.0077C54.1512 20.8925 54.2552 20.8204 54.3592 20.8204C54.4632 20.8204 54.5152 20.8781 54.5541 20.9213L54.6971 21.1086C54.6971 21.123 54.7101 21.123 54.7231 21.123L54.7751 21.0942C54.7881 21.0942 54.7881 21.0654 54.7751 21.051L54.7361 20.8204C54.7361 20.806 54.7231 20.7916 54.6841 20.7628C54.6321 20.734 54.5412 20.6908 54.3852 20.6908C54.2552 20.6908 54.1772 20.7196 54.0733 20.806C53.9693 20.8925 53.9173 21.0077 53.9173 21.1662C53.9173 21.4112 54.0863 21.5265 54.2942 21.5985C54.5152 21.6705 54.5931 21.7282 54.5931 21.8579C54.5931 21.9875 54.4892 22.0596 54.3722 22.0596C54.2162 22.0596 54.1642 21.9731 54.1123 21.8723L54.0083 21.685C54.0083 21.6705 53.9953 21.6705 53.9823 21.6705L53.9303 21.685C53.9173 21.685 53.9173 21.6994 53.9173 21.7138L53.9693 22.0452ZM52.1367 21.051C52.1627 20.9789 52.4357 20.1432 52.4487 20.1C52.4617 20.0712 52.4747 20.0568 52.4877 20.0568C52.5007 20.0568 52.5007 20.0712 52.5137 20.1144C52.5267 20.1865 52.7346 20.9501 52.7736 21.051H52.1367V21.051ZM52.7996 21.1951C52.8386 21.3247 52.9555 21.757 52.9815 21.8723C52.9945 21.9587 52.9815 22.0019 52.8906 22.0019H52.8126C52.7996 22.0019 52.7866 22.0019 52.7866 22.0308V22.1028C52.7866 22.1172 52.7866 22.146 52.8126 22.146C52.8776 22.146 52.9815 22.1316 53.2415 22.1316C53.5794 22.1316 53.6444 22.146 53.6964 22.146C53.7224 22.146 53.7224 22.1316 53.7224 22.1028V22.0308C53.7224 22.0164 53.7224 22.0019 53.6964 22.0019H53.6054C53.5404 22.0019 53.4624 21.9587 53.4104 21.8434C53.3714 21.757 53.1765 21.123 53.0985 20.8493C53.0465 20.6331 52.7996 19.8695 52.7476 19.6677C52.7476 19.6533 52.7346 19.6101 52.7086 19.6101C52.6956 19.6101 52.6826 19.6245 52.6696 19.6389C52.6306 19.6822 52.4617 19.783 52.3707 19.8118C52.3447 19.8262 52.3447 19.8262 52.3447 19.8406C52.3447 19.8551 52.3577 19.8695 52.3577 19.8839C52.3707 19.8983 52.3577 19.9703 52.3577 19.9991L52.0588 20.8925C51.9678 21.1807 51.7468 21.7858 51.7208 21.8434C51.6689 21.9443 51.6039 22.0019 51.5259 22.0019H51.4349C51.4219 22.0019 51.4219 22.0019 51.4219 22.0308V22.0884C51.4219 22.1172 51.4219 22.1316 51.4349 22.1316C51.4739 22.1316 51.5389 22.1172 51.7728 22.1172C51.9808 22.1172 52.1108 22.1316 52.1627 22.1316C52.1757 22.1316 52.1887 22.1172 52.1887 22.1028V22.0164C52.1887 22.0019 52.1887 22.0019 52.1627 22.0019H52.0328C51.9678 22.0019 51.9288 21.9587 51.9288 21.9155C51.9288 21.9011 51.9288 21.8723 51.9288 21.8434C51.9418 21.757 52.0978 21.2671 52.1237 21.1807H52.7996V21.1951ZM49.9273 21.9155C49.9273 21.9731 49.9013 22.0019 49.8493 22.0019H49.7453C49.7193 22.0019 49.7193 22.0019 49.7193 22.0308V22.1028C49.7193 22.1172 49.7193 22.1316 49.7453 22.1316C49.7713 22.1316 49.8883 22.1172 50.1092 22.1172C50.3302 22.1172 50.4732 22.1316 50.4862 22.1316C50.4991 22.1316 50.5121 22.1316 50.5121 22.1028V22.0308C50.5121 22.0164 50.5121 22.0019 50.4862 22.0019H50.3562C50.2912 22.0019 50.2652 21.9731 50.2652 21.8579V21.2239C50.2652 21.1807 50.2782 21.1086 50.3042 21.051C50.3432 20.9789 50.3952 20.9501 50.4342 20.9501C50.4602 20.9501 50.4991 20.9501 50.5251 20.9789C50.5511 20.9933 50.5901 21.0077 50.6291 21.0077C50.7071 21.0077 50.7981 20.9213 50.7981 20.8204C50.7981 20.7196 50.7331 20.6475 50.6421 20.6475C50.5121 20.6475 50.3822 20.7628 50.2782 20.9501H50.2652L50.2392 20.7052C50.2392 20.6908 50.2262 20.6619 50.2132 20.6619C50.2002 20.6619 50.1872 20.6619 50.1612 20.6764L49.7843 20.8637C49.7713 20.8781 49.7583 20.8781 49.7583 20.8925V20.9069C49.7583 20.9213 49.7713 20.9213 49.7843 20.9357L49.8363 20.9645C49.9273 21.0222 49.9533 21.0654 49.9533 21.2239V21.9155H49.9273ZM48.7966 22.0164C48.6796 22.0164 48.6016 21.9587 48.5496 21.8723C48.4716 21.7282 48.4587 21.5985 48.4587 21.3968C48.4587 21.1518 48.4976 21.0078 48.5886 20.8925C48.6406 20.8348 48.7056 20.806 48.7836 20.806C48.9265 20.806 49.0955 21.0222 49.0955 21.3968C49.1085 21.7426 49.0045 22.0164 48.7966 22.0164ZM48.8096 20.6619C48.6796 20.6619 48.5236 20.6908 48.3677 20.8204C48.1857 20.9789 48.1077 21.2239 48.1077 21.3824C48.1077 21.5841 48.1337 21.7282 48.2767 21.9011C48.4197 22.0884 48.5756 22.146 48.7706 22.146C48.9785 22.146 49.1605 22.0596 49.2904 21.9011C49.4074 21.757 49.4854 21.5697 49.4854 21.3824C49.4854 21.1807 49.4204 21.0077 49.2774 20.8493C49.1735 20.7484 49.0175 20.6619 48.8096 20.6619ZM47.5879 20.8781H47.9258C47.9518 20.8781 47.9648 20.8781 47.9648 20.8637L47.9778 20.7484C47.9778 20.734 47.9778 20.7196 47.9518 20.7196H47.5879V20.6043C47.5879 20.345 47.5749 20.0856 47.6528 19.9559C47.7048 19.8695 47.7698 19.8406 47.8478 19.8406C47.8868 19.8406 47.9388 19.8695 47.9778 19.9271C47.9908 19.9559 48.0298 19.9991 48.0687 20.0136C48.0947 20.028 48.1337 20.0424 48.1597 20.0424C48.2247 20.0424 48.3157 19.9703 48.3157 19.8839C48.3157 19.7398 48.1857 19.6677 48.0168 19.6677C47.8348 19.6677 47.6658 19.7398 47.4969 19.9127C47.3669 20.0712 47.2759 20.2873 47.2759 20.6331V20.6908H47.107C47.081 20.6908 47.068 20.6908 47.068 20.7052L47.055 20.8204C47.055 20.8493 47.055 20.8637 47.068 20.8637H47.2759V21.8867C47.2759 21.9587 47.2629 22.0019 47.198 22.0019H47.081C47.055 22.0019 47.055 22.0019 47.055 22.0164V22.0884C47.055 22.1028 47.055 22.1172 47.081 22.1172C47.107 22.1172 47.2629 22.1028 47.4449 22.1028C47.7178 22.1028 47.8348 22.1172 47.8478 22.1172C47.8608 22.1172 47.8608 22.1028 47.8608 22.0884V22.0308C47.8608 22.0019 47.8608 22.0019 47.8348 22.0019H47.6788C47.6269 22.0019 47.6009 21.9731 47.5879 21.9011C47.5879 21.8002 47.5879 21.4256 47.5879 21.1662V20.8781ZM44.7156 20.8781C44.7026 20.8781 44.6896 20.8925 44.6896 20.9069V20.9357C44.6896 20.9501 44.7026 20.9645 44.7156 20.9645L44.7416 20.9789C44.8195 21.0222 44.8715 21.0798 44.8715 21.1807V21.9443C44.8715 22.0019 44.8325 22.0164 44.7936 22.0164H44.7286C44.7026 22.0164 44.7026 22.0164 44.7026 22.0452V22.1028C44.7026 22.1172 44.7026 22.1316 44.7156 22.1316C44.7286 22.1316 44.8325 22.1172 45.0275 22.1172C45.2095 22.1172 45.3004 22.1316 45.3134 22.1316C45.3264 22.1316 45.3394 22.1172 45.3394 22.1028V22.0452C45.3394 22.0164 45.3394 22.0164 45.3134 22.0164H45.2614C45.2224 22.0164 45.2094 21.9731 45.2094 21.9011V21.1951C45.2094 21.1086 45.2224 21.0077 45.2744 20.9501C45.3524 20.8781 45.4174 20.8637 45.4694 20.8637C45.5344 20.8637 45.5864 20.8637 45.6513 20.9213C45.7293 20.9933 45.7293 21.0798 45.7293 21.2095V21.5985C45.7293 21.7426 45.7293 21.829 45.7163 21.9155C45.7033 21.9731 45.6903 22.0019 45.6643 22.0019H45.5994C45.5734 22.0019 45.5604 22.0019 45.5604 22.0308V22.0884C45.5604 22.1172 45.5734 22.1316 45.5864 22.1316C45.5994 22.1316 45.7033 22.1172 45.8853 22.1172C46.0932 22.1172 46.1842 22.1316 46.2102 22.1316C46.2232 22.1316 46.2362 22.1316 46.2362 22.1028V22.0308C46.2362 22.0164 46.2232 22.0019 46.1972 22.0019H46.1062C46.0672 22.0019 46.0282 21.9875 46.0282 21.9011C46.0282 21.829 46.0282 21.685 46.0282 21.5697V21.0798C46.0282 20.9357 45.9893 20.8348 45.8593 20.734C45.7943 20.6764 45.6903 20.6475 45.5864 20.6475C45.4954 20.6475 45.4174 20.6764 45.3394 20.734C45.2744 20.7628 45.2224 20.8204 45.1835 20.8637H45.1705L45.1445 20.6908C45.1315 20.6619 45.1315 20.6475 45.1055 20.6475C45.0925 20.6475 45.0665 20.6619 45.0405 20.6764L44.7156 20.8781ZM43.7408 22.0164C43.6238 22.0164 43.5459 21.9587 43.4939 21.8723C43.4159 21.7282 43.4029 21.5985 43.4029 21.3968C43.4029 21.1518 43.4419 21.0078 43.5329 20.8925C43.5849 20.8348 43.6498 20.806 43.7278 20.806C43.8708 20.806 44.0527 21.0222 44.0527 21.3968C44.0527 21.7426 43.9488 22.0164 43.7408 22.0164ZM43.7538 20.6619C43.6238 20.6619 43.4679 20.6908 43.3249 20.8204C43.143 20.9789 43.065 21.2239 43.065 21.3824C43.065 21.5841 43.091 21.7282 43.2339 21.9011C43.3769 22.0884 43.5329 22.146 43.7278 22.146C43.9358 22.146 44.1177 22.0596 44.2477 21.9011C44.3647 21.757 44.4426 21.5697 44.4426 21.3824C44.4426 21.1807 44.3777 21.0077 44.2347 20.8493C44.1047 20.7484 43.9488 20.6619 43.7538 20.6619ZM42.6491 20.1144C42.6491 20.028 42.5841 19.9127 42.4541 19.9127C42.3242 19.9127 42.2462 20.0136 42.2462 20.1288C42.2462 20.2441 42.3372 20.3305 42.4411 20.3305C42.5841 20.3305 42.6491 20.2153 42.6491 20.1144ZM42.3372 21.6417C42.3372 21.7426 42.3372 21.8435 42.3372 21.9443C42.3372 22.0019 42.3242 22.0164 42.2852 22.0164H42.1552C42.1422 22.0164 42.1292 22.0164 42.1292 22.0452V22.1028C42.1292 22.1316 42.1422 22.1316 42.1552 22.1316C42.1942 22.1316 42.3112 22.1172 42.4801 22.1172C42.6881 22.1172 42.831 22.1316 42.857 22.1316C42.87 22.1316 42.883 22.1172 42.883 22.1028V22.0308C42.883 22.0164 42.87 22.0019 42.857 22.0019H42.7401C42.7141 22.0019 42.7011 21.9731 42.6881 21.9155C42.6751 21.8723 42.6751 21.757 42.6751 21.6273V21.2671C42.6751 20.9789 42.6751 20.7628 42.6881 20.7196C42.6881 20.6908 42.6751 20.6764 42.6621 20.6764C42.6491 20.6764 42.6231 20.6763 42.5841 20.6908C42.5321 20.7196 42.2332 20.8348 42.1812 20.8493C42.1682 20.8637 42.1552 20.8637 42.1552 20.8781V20.9213C42.1552 20.9357 42.1552 20.9501 42.1812 20.9501C42.3242 20.9933 42.3372 21.0654 42.3372 21.1662V21.6417ZM41.0375 22.0452C41.0375 22.0596 41.0505 22.074 41.0635 22.0884C41.1025 22.1172 41.2324 22.1749 41.3884 22.1749C41.6873 22.1749 41.8953 21.9731 41.8953 21.685C41.8953 21.5697 41.8693 21.4832 41.8043 21.4112C41.7263 21.3103 41.6353 21.2815 41.4924 21.2383C41.3104 21.1807 41.2194 21.1374 41.2194 21.0077C41.2194 20.8925 41.3104 20.8204 41.4274 20.8204C41.5314 20.8204 41.5833 20.8781 41.6223 20.9213L41.7653 21.1086C41.7653 21.123 41.7783 21.123 41.7913 21.123L41.8433 21.0942C41.8433 21.0942 41.8433 21.0654 41.8433 21.051L41.8043 20.8204C41.8043 20.806 41.7913 20.7916 41.7523 20.7628C41.7003 20.734 41.6093 20.6908 41.4534 20.6908C41.3234 20.6908 41.2454 20.7196 41.1415 20.806C41.0375 20.8925 40.9855 21.0077 40.9855 21.1662C40.9855 21.4112 41.1544 21.5265 41.3624 21.5985C41.5703 21.6705 41.6613 21.7282 41.6613 21.8579C41.6613 21.9875 41.5703 22.0596 41.4404 22.0596C41.2844 22.0596 41.2324 21.9731 41.1804 21.8723L41.0765 21.685C41.0635 21.6705 41.0635 21.6705 41.0505 21.6705L40.9985 21.685C40.9855 21.685 40.9855 21.6994 40.9855 21.7138L41.0375 22.0452ZM39.8418 22.0452C39.8418 22.0596 39.8548 22.074 39.8678 22.0884C39.9068 22.1172 40.0367 22.1749 40.1927 22.1749C40.4916 22.1749 40.6996 21.9731 40.6996 21.685C40.6996 21.5697 40.6736 21.4832 40.6086 21.4112C40.5306 21.3103 40.4396 21.2815 40.2967 21.2383C40.1147 21.1807 40.0237 21.1374 40.0237 21.0077C40.0237 20.8925 40.1277 20.8204 40.2317 20.8204C40.3357 20.8204 40.3876 20.8781 40.4266 20.9213L40.5696 21.1086C40.5696 21.123 40.5826 21.123 40.5956 21.123L40.6476 21.0942C40.6476 21.0942 40.6476 21.0654 40.6476 21.051L40.6086 20.8204C40.6086 20.806 40.5956 20.7916 40.5566 20.7628C40.5046 20.734 40.4136 20.6908 40.2577 20.6908C40.1277 20.6908 40.0497 20.7196 39.9457 20.806C39.8418 20.8925 39.7898 21.0077 39.7898 21.1662C39.7898 21.4112 39.9587 21.5265 40.1667 21.5985C40.3876 21.6705 40.4656 21.7282 40.4656 21.8579C40.4656 21.9875 40.3616 22.0596 40.2447 22.0596C40.0887 22.0596 40.0367 21.9731 39.9847 21.8723L39.8808 21.6561C39.8808 21.6417 39.8678 21.6417 39.8548 21.6417L39.8028 21.6561C39.7898 21.6561 39.7898 21.6705 39.7898 21.685L39.8418 22.0452ZM39.3609 20.1144C39.3609 20.028 39.2959 19.9127 39.1659 19.9127C39.036 19.9127 38.945 20.0136 38.945 20.1288C38.945 20.2441 39.049 20.3305 39.1399 20.3305C39.2959 20.3305 39.3609 20.2153 39.3609 20.1144ZM39.049 21.6417C39.049 21.7426 39.049 21.8435 39.036 21.9443C39.036 22.0019 39.023 22.0164 38.984 22.0164H38.854C38.841 22.0164 38.828 22.0164 38.828 22.0452V22.1028C38.828 22.1316 38.841 22.1316 38.854 22.1316C38.893 22.1316 39.01 22.1172 39.1789 22.1172C39.3869 22.1172 39.5298 22.1316 39.5558 22.1316C39.5688 22.1316 39.5818 22.1172 39.5818 22.1028V22.0308C39.5818 22.0164 39.5818 22.0019 39.5558 22.0019H39.4389C39.4129 22.0019 39.3999 21.9731 39.3869 21.9155C39.3869 21.8723 39.3869 21.757 39.3869 21.6273V21.2671C39.3869 20.9789 39.3869 20.7628 39.3869 20.7196C39.3869 20.6908 39.3869 20.6764 39.3609 20.6764C39.3479 20.6764 39.3219 20.6763 39.2829 20.6908C39.2309 20.7196 38.932 20.8348 38.88 20.8493C38.867 20.8637 38.854 20.8637 38.854 20.8781V20.9213C38.854 20.9357 38.854 20.9501 38.88 20.9501C39.023 20.9933 39.036 21.0654 39.036 21.1662V21.6417H39.049ZM36.3326 20.8781C36.3196 20.8781 36.3066 20.8925 36.3066 20.9069V20.9357C36.3066 20.9501 36.3196 20.9501 36.3326 20.9645L36.3976 21.0077C36.4756 21.051 36.4886 21.123 36.4886 21.2239V21.9299C36.4886 21.9875 36.4626 22.0164 36.4366 22.0164H36.3456C36.3196 22.0164 36.3066 22.0164 36.3066 22.0452V22.1172C36.3066 22.146 36.3066 22.146 36.3326 22.146C36.3586 22.146 36.4496 22.1316 36.6446 22.1316C36.8395 22.1316 36.9305 22.146 36.9435 22.146C36.9565 22.146 36.9695 22.1316 36.9695 22.1172V22.0452C36.9695 22.0308 36.9695 22.0308 36.9435 22.0308H36.8785C36.8395 22.0308 36.8135 22.0019 36.8135 21.8723V21.2671C36.8135 21.1662 36.8135 21.0942 36.8655 21.0222C36.9175 20.9213 37.0215 20.8781 37.0864 20.8781C37.1514 20.8781 37.2164 20.8925 37.2554 20.9213C37.2944 20.9645 37.3334 21.0366 37.3334 21.2815V21.8579C37.3334 21.9731 37.3074 22.0164 37.2554 22.0164H37.1904C37.1774 22.0164 37.1644 22.0164 37.1644 22.0452V22.1028C37.1644 22.1172 37.1644 22.1316 37.1904 22.1316C37.2034 22.1316 37.3074 22.1172 37.5023 22.1172C37.6973 22.1172 37.7753 22.1316 37.8013 22.1316C37.8143 22.1316 37.8143 22.1172 37.8143 22.1028V22.0308C37.8143 22.0164 37.8013 22.0019 37.7883 22.0019H37.7103C37.6713 22.0019 37.6583 21.9731 37.6583 21.9011V21.2671C37.6583 21.1807 37.6583 21.0654 37.6973 21.0077C37.7363 20.9501 37.8273 20.8637 37.9182 20.8637C37.9962 20.8637 38.0482 20.8781 38.1002 20.9357C38.1522 20.9933 38.1652 21.0798 38.1652 21.2383V21.6417C38.1652 21.7426 38.1652 21.8723 38.1522 21.9443C38.1522 21.9875 38.1262 22.0164 38.0872 22.0164H38.0352C38.0222 22.0164 38.0092 22.0164 38.0092 22.0452V22.1172C38.0092 22.1316 38.0092 22.146 38.0352 22.146C38.0482 22.146 38.1652 22.1316 38.3341 22.1316C38.5291 22.1316 38.6071 22.146 38.6331 22.146C38.6461 22.146 38.6591 22.1316 38.6591 22.1172V22.0452C38.6591 22.0308 38.6591 22.0164 38.6331 22.0164H38.5551C38.5161 22.0164 38.4771 21.9875 38.4771 21.9155C38.4771 21.8723 38.4771 21.7138 38.4771 21.6129V21.2239C38.4771 20.9357 38.4251 20.8781 38.3341 20.7916C38.2562 20.6908 38.1782 20.6764 38.0482 20.6764C37.8793 20.6764 37.7233 20.7772 37.6193 20.9213H37.6063C37.5283 20.7772 37.4244 20.6764 37.2424 20.6764C37.0605 20.6764 36.8915 20.7916 36.8005 20.9213H36.7875L36.7745 20.7196C36.7745 20.6908 36.7615 20.6764 36.7355 20.6764C36.7095 20.6764 36.6965 20.6763 36.6705 20.6908L36.3326 20.8781Z" fill="white"/>
<path d="M76.8174 21.8146C76.8044 21.8002 76.7914 21.8002 76.7914 21.8146C76.7135 21.8866 76.6095 21.9443 76.4665 21.9443C76.3755 21.9443 76.2326 21.9155 76.1546 21.757C76.0376 21.5552 76.0376 21.4112 76.0376 21.2094C76.0376 20.9645 76.1936 20.8204 76.3106 20.8204C76.3885 20.8204 76.4535 20.8492 76.5055 20.9645C76.5315 21.0509 76.5835 21.1374 76.6875 21.1374C76.7784 21.1374 76.8174 21.0654 76.8174 20.9933C76.8174 20.8924 76.7395 20.6907 76.3885 20.6907C76.2196 20.6907 76.0766 20.7628 75.9466 20.8925C75.7907 21.0509 75.7257 21.2815 75.7257 21.4976C75.7257 21.6705 75.7517 21.8002 75.8687 21.9587C75.9856 22.1172 76.1546 22.1892 76.3625 22.1892C76.5835 22.1892 76.8044 22.0307 76.8824 21.9299C76.8954 21.9155 76.8954 21.9011 76.8824 21.8866L76.8174 21.8146ZM74.452 20.878H74.8159C74.9719 20.878 74.9849 20.9501 74.9849 21.0942V21.6417C74.9849 21.6993 74.9849 21.8866 74.9849 21.9443C74.9849 22.0019 74.9589 22.0163 74.9329 22.0163H74.8809C74.8679 22.0163 74.8549 22.0163 74.8549 22.0451V22.1172C74.8549 22.1316 74.8679 22.146 74.8809 22.146C74.9069 22.146 75.0239 22.1316 75.1798 22.1316C75.3618 22.1316 75.4658 22.146 75.4918 22.146C75.5178 22.146 75.5178 22.1316 75.5178 22.1172V22.0595C75.5178 22.0307 75.5048 22.0307 75.4918 22.0307H75.3618C75.3228 22.0307 75.3098 22.0019 75.2968 21.9443V21.2815C75.2968 21.0077 75.2968 20.7916 75.3098 20.734C75.3098 20.7051 75.3098 20.6907 75.2838 20.6907C75.2578 20.6907 75.2188 20.7051 75.1668 20.7051C75.0759 20.7195 74.9719 20.734 74.8679 20.734H74.452V20.6619C74.452 20.3737 74.439 20.1144 74.556 19.9559C74.595 19.8983 74.686 19.8694 74.7379 19.8694C74.7899 19.8694 74.8419 19.9127 74.8809 19.9703C74.9459 20.0712 74.9979 20.1288 75.1019 20.1288C75.1928 20.1288 75.2838 20.0423 75.2838 19.9415C75.2838 19.8118 75.1408 19.6965 74.9329 19.6965C74.7379 19.6965 74.543 19.7686 74.387 19.9271C74.2441 20.0712 74.1271 20.2873 74.1271 20.6619V20.7195H73.9711C73.9451 20.7195 73.9321 20.734 73.9321 20.7484L73.9192 20.8636C73.9192 20.878 73.9191 20.8925 73.9321 20.8925H74.1271V21.9155C74.1271 21.9875 74.1141 22.0307 74.0621 22.0307H73.9321C73.9062 22.0307 73.9062 22.0307 73.9062 22.0451V22.1172C73.9062 22.1316 73.9191 22.146 73.9321 22.146C73.9581 22.146 74.1011 22.1316 74.2961 22.1316C74.504 22.1316 74.608 22.146 74.621 22.146C74.634 22.146 74.647 22.1316 74.647 22.1172V22.0595C74.647 22.0307 74.647 22.0307 74.608 22.0307H74.53C74.491 22.0307 74.465 22.0019 74.465 21.9299C74.465 21.829 74.465 21.5841 74.465 21.195V20.878H74.452ZM73.5292 20.1C73.5292 20.0135 73.4643 19.8983 73.3343 19.8983C73.2043 19.8983 73.1263 20.0135 73.1263 20.1144C73.1263 20.2297 73.2173 20.3161 73.3213 20.3161C73.4773 20.3305 73.5292 20.2152 73.5292 20.1ZM73.2173 21.6417C73.2173 21.7426 73.2173 21.8434 73.2173 21.9443C73.2173 22.0019 73.2043 22.0163 73.1653 22.0163H73.0354C73.0224 22.0163 73.0094 22.0163 73.0094 22.0451V22.1172C73.0094 22.146 73.0224 22.146 73.0354 22.146C73.0744 22.146 73.1913 22.1316 73.3603 22.1316C73.5682 22.1316 73.7112 22.146 73.7372 22.146C73.7502 22.146 73.7632 22.1316 73.7632 22.1172V22.0451C73.7632 22.0307 73.7502 22.0163 73.7372 22.0163H73.6202C73.5942 22.0163 73.5812 21.9875 73.5682 21.9299C73.5682 21.8866 73.5682 21.7714 73.5682 21.6417V21.2815C73.5682 20.9933 73.5682 20.7772 73.5682 20.734C73.5682 20.7051 73.5682 20.6907 73.5422 20.6907C73.5292 20.6907 73.5033 20.6907 73.4643 20.7051C73.4123 20.734 73.1133 20.8492 73.0614 20.8636C73.0484 20.8636 73.0354 20.878 73.0354 20.8925V20.9357C73.0354 20.9501 73.0354 20.9645 73.0614 20.9645C73.2043 21.0077 73.2173 21.0654 73.2173 21.1806V21.6417ZM72.8274 21.8146C72.8144 21.8002 72.8014 21.8002 72.8014 21.8146C72.7234 21.8866 72.6195 21.9443 72.4765 21.9443C72.3855 21.9443 72.2426 21.9155 72.1646 21.757C72.0476 21.5552 72.0476 21.4112 72.0476 21.2094C72.0476 20.9645 72.2036 20.8204 72.3205 20.8204C72.3985 20.8204 72.4635 20.8492 72.5155 20.9645C72.5415 21.0509 72.5935 21.1374 72.6974 21.1374C72.7754 21.1374 72.8274 21.0654 72.8274 20.9933C72.8274 20.8924 72.7494 20.6907 72.3985 20.6907C72.2296 20.6907 72.0866 20.7628 71.9566 20.8925C71.8007 21.0509 71.7357 21.2815 71.7357 21.4976C71.7357 21.6705 71.7617 21.8002 71.8787 21.9587C71.9956 22.1172 72.1646 22.1892 72.3725 22.1892C72.5935 22.1892 72.8144 22.0307 72.8924 21.9299C72.9054 21.9155 72.9054 21.9011 72.8924 21.8866L72.8274 21.8146ZM70.9949 21.8146C70.9949 21.8722 70.8909 21.9731 70.7999 21.9731C70.7219 21.9731 70.657 21.9011 70.657 21.7714C70.657 21.5264 70.8649 21.4688 70.9949 21.3679V21.8146ZM71.0209 21.9587C71.0599 22.1028 71.1638 22.1604 71.2808 22.1604C71.4628 22.1604 71.5277 22.0163 71.5667 21.9587C71.5797 21.9299 71.5667 21.9155 71.5667 21.9011L71.5277 21.8722C71.5147 21.8722 71.5147 21.8722 71.5017 21.8866C71.4887 21.9155 71.4498 21.9443 71.4108 21.9443C71.3588 21.9443 71.3328 21.8866 71.3328 21.6993V21.5408V21.0077C71.3328 20.9213 71.3328 20.8204 71.2548 20.7484C71.2028 20.6907 71.1378 20.6475 70.9689 20.6475C70.7609 20.6475 70.605 20.734 70.475 20.8348C70.384 20.9069 70.332 21.0221 70.332 21.1086C70.332 21.1806 70.384 21.2238 70.436 21.2238C70.566 21.2238 70.618 21.1518 70.618 21.0221C70.618 20.9357 70.592 20.8924 70.631 20.8492C70.6829 20.806 70.7479 20.7916 70.8129 20.7916C70.8779 20.7916 70.9299 20.806 70.9689 20.8492C71.0079 20.8924 71.0079 20.9645 71.0209 21.0365V21.2094C70.9559 21.2671 70.8389 21.3247 70.644 21.4256C70.423 21.5408 70.358 21.6849 70.358 21.8434C70.358 22.0307 70.449 22.1316 70.566 22.1316C70.631 22.1316 70.6959 22.1316 70.7609 22.1028C70.8649 22.1028 70.9429 22.0451 71.0209 21.9587Z" fill="white"/>
<path d="M77.5972 18.8752H1.63086V19.4228H77.5972V18.8752Z" fill="white"/>
</svg>
