<svg width="221" height="461" viewBox="0 0 221 461" fill="none" xmlns="http://www.w3.org/2000/svg">
<path d="M145.554 279.114C145.316 281.142 146.008 283.284 145.911 285.309C145.797 287.727 145.316 290.11 144.985 292.501C144.449 296.343 145.255 300.115 145.135 303.987C145.108 304.877 144.516 306.108 144.446 307.122C138.4 306.812 132.061 307.468 125.962 307.319C120.247 307.175 114.608 305.581 108.937 304.968C107.296 304.79 105.391 304.526 103.56 304.538C103.829 296.115 102.625 287.747 101.995 279.369C101.385 271.268 101.608 263.077 100.52 254.991C99.5972 248.101 97.9355 241.337 96.9449 234.458C95.802 226.522 95.0957 218.527 93.856 210.602C92.4522 201.646 90.4212 192.769 89.7999 183.704C89.5039 179.37 89.5742 175.293 88.61 171.011C87.6604 166.779 86.327 162.638 85.6119 158.359C85.0052 154.734 84.5011 151.12 84.0703 147.501L84.3956 147.463C84.8382 151.97 91.9832 157.653 95.2305 159.687C98.3019 161.607 101.734 162.773 105.163 163.872C108.375 164.898 111.461 165.46 114.626 166.387C119.532 167.826 124.423 166.445 128.966 164.484C130.783 163.699 132.943 163.148 134.634 162.199C136.879 160.938 139.352 158.45 140.871 156.372C141.372 155.684 141.568 154.511 142.254 153.998C142.116 156.158 142.037 158.324 141.785 160.276C141.524 162.289 141.829 164.775 141.366 166.782C140.645 167.181 140.129 167.752 140.109 168.608C140.029 171.717 140.519 174.806 140.428 177.934C140.281 182.854 140.753 187.241 141.269 192.004C141.876 197.643 141.225 203.571 140.947 209.219C140.217 224.154 140.384 238.869 142.034 253.719C142.603 258.845 142.597 264.015 143.206 269.137C143.622 272.607 144.604 275.831 145.554 279.114Z" fill="white"/>
<path d="M158.718 308.281C159.55 308.931 159.369 310.235 159.474 311.159C159.632 312.51 159.852 313.823 159.908 315.185C160.019 317.967 159.841 320.757 159.981 323.538C160.154 326.92 159.46 330.299 159.712 333.678C159.858 335.642 160.488 338.376 159.035 340.02C158.838 340.243 158.604 340.445 158.322 340.624C156.412 341.84 153.909 341.67 151.74 341.676L151.611 341.679C151.564 338.224 151.371 334.771 151.136 331.325C150.632 323.89 149.905 316.457 149.9 308.999C149.897 308.667 149.779 308.404 149.586 308.19C152.268 308.07 156.324 306.566 158.668 308.245C158.689 308.254 158.703 308.269 158.718 308.281Z" fill="white"/>
<path d="M150.468 294.09C150.116 295.772 149.389 297.631 149.011 298.999C148.293 301.596 146.928 304.506 146.737 307.29C145.981 307.214 145.216 307.161 144.445 307.12C144.516 306.109 145.108 304.875 145.134 303.984C145.254 300.113 144.448 296.341 144.985 292.499C145.316 290.11 145.796 287.725 145.911 285.307C146.007 283.282 145.316 281.139 145.553 279.111C145.89 280.269 146.218 281.43 146.52 282.611C147.514 286.535 148.654 290.477 150.468 294.09Z" fill="#1A5F92"/>
<path d="M196.946 341.125C192.439 340.876 188.031 340.009 183.474 340.003C181.53 340 162.446 340.653 159.037 340.02C160.491 338.379 159.861 335.642 159.714 333.678C159.462 330.302 160.157 326.92 159.984 323.538C159.84 320.757 160.022 317.967 159.911 315.185C159.855 313.823 159.635 312.51 159.477 311.159C159.368 310.235 159.55 308.931 158.721 308.281C160.01 308.377 162.367 307.932 163.026 307.952C166.039 309.784 169.441 311.144 173.374 312.126C181.141 314.066 188.388 311.402 194.546 306.467C197.699 303.94 199.991 300.895 202.145 297.569V297.566C206.972 296.033 220.254 294.489 218.205 302.756C217.953 303.776 217.2 304.776 217.728 305.769C218.047 306.367 218.982 306.704 219.457 307.135C220.752 308.316 221.294 310.83 220.843 312.454C220.263 314.547 218.17 315.892 216.931 317.556C215.304 319.746 217.124 322.732 216.497 325.156C215.949 327.272 214.601 329.042 213.112 330.583C211.705 332.043 211.415 333.42 211.125 335.399C210.858 337.21 209.923 338.617 208.522 339.78C205.993 341.87 202.435 341.193 199.37 341.198C198.558 341.198 197.752 341.172 196.946 341.125Z" fill="#F3B39A"/>
<path d="M163.028 307.953C162.366 307.933 160.01 308.381 158.723 308.281C158.708 308.27 158.691 308.258 158.673 308.243C156.329 306.564 152.272 308.067 149.591 308.188C149.037 307.584 147.859 307.408 146.962 307.314C146.886 307.305 146.813 307.3 146.736 307.291C146.927 304.507 148.293 301.593 149.011 299C149.389 297.628 150.113 295.773 150.467 294.091C150.939 295.035 151.461 295.955 152.035 296.849C155.177 301.717 158.7 305.324 163.028 307.953Z" fill="#1A5F92"/>
<path d="M142.096 65.3208C141.507 63.8965 141.354 62.0941 141.044 60.6111C140.713 59.0461 140.381 57.32 140.516 55.7139C140.645 54.2017 141.812 52.3231 143.338 51.9333C144.581 51.6139 145.997 51.8718 147.104 52.5019C147.89 52.9532 148.429 53.68 148.892 54.442C149.355 55.204 149.9 55.9337 150.243 56.7543C150.923 58.375 151.331 60.0866 151.797 61.7776C152.517 64.3625 153.089 66.9444 153.757 69.5293C154.396 72.0087 155.091 74.5291 155.299 77.0906C155.404 78.4094 155.521 79.7165 155.677 81.0294C155.756 81.6947 155.691 83.4531 156.515 83.7111C158.08 84.2005 158.051 74.3826 157.995 73.3305C157.892 71.3757 157.368 69.5117 157.242 67.5394C157.174 66.4784 157.268 65.4029 157.098 64.3625C156.746 62.1879 156.421 59.9928 156.324 57.8035C156.272 56.6723 155.864 55.4707 155.627 54.3629C155.401 53.2814 155.176 52.2 154.982 51.1156C154.66 49.3015 154.211 46.9657 154.976 45.2044C156.049 42.7396 159.847 43.106 161.424 44.8058C162.174 45.6147 162.705 46.576 163.402 47.4171C163.994 48.1292 164.472 48.5981 164.829 49.5067C165.117 50.2306 165.38 51.0072 165.609 51.7956C165.797 51.0101 166.453 50.2393 167.145 49.9756C168.176 49.5799 169.428 49.6825 170.462 50.0225C172.358 50.6467 173.141 52.4784 173.727 54.1812C174.466 56.3264 175.837 58.1904 176.508 60.362C177.153 62.4487 177.974 64.4856 178.425 66.6308C179.011 69.4238 179.281 72.3516 179.542 75.1885C179.656 76.4517 179.89 77.7676 180.057 79.0835L180.154 79.0717C180.377 80.5986 181.573 82.6325 181.962 83.796C182.314 84.8511 182.59 85.9091 182.801 86.9788C183.264 89.3322 183.419 91.7236 183.416 94.162C183.413 105.571 181.537 117.622 176.798 128.059C175.732 130.409 175.395 133.413 175.151 135.96C174.92 138.389 174.923 140.831 175.11 143.257C175.272 145.426 175.579 147.586 175.987 149.722C175.228 149.063 173.748 149.722 172.953 150.086C171.898 150.569 170.969 150.904 169.838 151.208C167.558 151.827 165.248 152.334 162.933 152.806C160.164 153.371 157.494 154.28 154.654 154.611C151.682 154.957 148.687 154.963 145.698 154.971C145.311 154.907 145.015 155.097 144.789 155.473L144.666 155.446C145.068 154.69 144.61 153.582 144.476 152.844C144.25 151.607 144.291 150.3 144.124 149.048C143.998 148.114 143.843 147.182 143.661 146.255C143.353 144.679 142.972 143.117 142.559 141.56C141.897 139.087 141.149 136.634 140.455 134.166C139.76 131.699 139.124 129.219 138.684 126.693C137.747 121.286 137.509 115.797 137.509 110.319C137.509 109.202 137.521 108.08 137.536 106.963C137.591 103.077 137.852 99.2526 137.738 95.3577C137.597 90.5719 137.899 85.7567 137.407 80.9826C137.284 79.8103 137.052 78.638 136.859 77.4628C136.73 76.6451 136.615 75.8245 136.58 75.001C136.548 74.2771 136.73 73.6294 136.648 72.8938C136.545 71.9589 136.407 71.0269 136.234 70.1008C135.892 68.2457 135.598 66.499 136.387 64.6966C137.09 63.0935 138.506 62.4868 140.062 63.4188C140.888 63.8906 141.548 64.5559 142.096 65.3208Z" fill="#F3B39A"/>
<path d="M176.29 150.109C176.771 151.156 176.765 152.34 176.841 153.465C176.915 154.555 177.331 155.584 177.381 156.663L176.897 156.727C176.836 156.727 176.774 156.733 176.71 156.739C173.169 159.581 168.345 158.893 164.509 160.912C163.354 161.519 162.314 162.032 161.033 162.418C158.135 163.298 155.145 163.834 152.171 164.37C149.879 164.784 147.581 165.176 145.31 165.689C145.049 165.748 144.738 165.803 144.404 165.865C144.337 163.655 143.686 157.307 144.8 155.455C145.026 155.083 145.322 154.892 145.708 154.954C148.695 154.945 151.693 154.939 154.665 154.593C157.505 154.262 160.174 153.357 162.944 152.788C165.259 152.316 167.569 151.806 169.849 151.191C170.98 150.883 171.909 150.552 172.964 150.068C173.755 149.705 175.235 149.046 175.997 149.705C176.112 149.808 176.211 149.939 176.29 150.109Z" fill="white"/>
<path d="M40.2411 353.082C35.8158 352.349 31.6922 350.738 27.4339 349.132C20.4119 346.488 13.3342 344.272 7.45229 339.299C4.14644 336.503 3.06793 332.242 2.02753 328.23C0.34823 321.744 0.154803 315.261 0.00533649 308.606C-0.0503471 306.15 0.34823 303.679 0.342369 301.176C0.327715 294.984 0.286685 288.794 0.254447 282.604C0.192902 270.096 0.18411 257.585 0.570965 245.085C0.653025 242.451 1.28313 239.907 1.42966 237.304C1.99529 227.126 2.90675 216.968 3.38738 206.787C3.60132 202.27 3.742 197.763 3.87095 193.25C3.98818 188.994 4.25487 184.557 6.12174 180.653C8.49562 175.683 12.7422 171.715 17.2292 168.64C22.3315 165.144 27.4222 161.607 32.8294 158.588C35.508 157.09 38.2658 155.719 41.1262 154.602C43.8371 153.544 46.6741 152.756 49.3879 151.666C52.1545 150.552 54.9709 149.547 57.6613 148.213C59.2556 147.422 60.5774 146.385 62.201 145.652C64.0796 144.802 65.8937 143.817 67.7049 142.83C68.5372 142.372 69.5688 141.906 70.3923 141.288C69.9351 142.27 69.5366 143.275 69.1702 144.274C68.4434 146.253 67.9217 148.102 67.6023 150.186C67.2213 152.65 67.0015 155.142 66.4945 157.589C65.5801 161.979 62.9454 165.59 65.9904 169.713C68.587 173.224 73.323 175.786 77.1154 177.843C77.7777 178.2 78.1763 178.441 78.5895 178.792C77.0451 180.982 75.4595 183.156 73.4022 184.628C71.2715 186.151 69.3373 187.822 67.6082 189.786C66.7084 190.808 64.0561 192.268 64.4635 193.886C62.4325 196.866 64.8914 200.702 66.4476 203.308C71.0019 210.922 75.0229 220.294 75.7526 229.254C76.5117 238.617 80.5619 247.116 82.9387 256.114C84.9228 263.625 86.5699 271.333 88.7972 278.75C90.33 283.853 93.1933 288.287 94.814 293.372C95.5848 295.795 96.083 298.295 96.8127 300.734C96.9446 301.176 97.6421 304.426 98.2195 305.396C98.9463 305.285 99.679 305.127 100.438 304.91C101.405 304.634 102.466 304.532 103.559 304.529C105.391 304.52 107.296 304.781 108.937 304.96C114.608 305.572 120.25 307.17 125.962 307.31C132.06 307.46 138.4 306.803 144.446 307.114C145.216 307.152 145.981 307.208 146.737 307.284C146.814 307.29 146.887 307.299 146.963 307.307C147.857 307.401 149.038 307.577 149.592 308.181C149.785 308.395 149.903 308.658 149.906 308.99C149.914 316.448 150.638 323.88 151.142 331.316C151.377 334.762 151.57 338.212 151.617 341.67C151.62 341.843 151.623 342.022 151.626 342.195C151.646 344.434 152.262 347.276 151.617 349.451C151.101 351.189 149.929 351.283 148.206 351.491C147.951 351.523 147.696 351.546 147.441 351.564C143.795 351.842 140.193 351.004 136.553 351.001C128.854 350.99 120.938 351.11 113.269 351.728C103.117 352.546 93.0292 353.964 82.8948 355.098C73.0769 356.197 62.6816 356.35 52.9048 355.11C49.3146 354.653 45.8095 353.706 42.2194 353.346C41.5512 353.281 40.8947 353.191 40.2411 353.082Z" fill="#1A5F92"/>
<path d="M82.974 132.596C83.0649 133.279 82.7718 134.554 82.8275 135.184C83.1821 139.31 83.5807 143.41 84.0672 147.501C84.498 151.121 85.0021 154.734 85.6088 158.36C86.3239 162.639 87.6573 166.783 88.6069 171.012C89.5711 175.291 89.4978 179.37 89.7968 183.705C90.4181 192.769 92.4491 201.646 93.8529 210.603C95.0926 218.527 95.7989 226.522 96.9418 234.459C97.9324 241.337 99.5941 248.101 100.517 254.991C101.602 263.077 101.379 271.269 101.991 279.369C102.622 287.748 103.826 296.118 103.556 304.538C102.463 304.544 101.399 304.646 100.435 304.919C99.6791 305.136 98.9435 305.291 98.2167 305.406C97.6394 304.438 96.9418 301.188 96.81 300.743C96.0831 298.307 95.5849 295.807 94.8112 293.381C93.1905 288.296 90.3272 283.862 88.7945 278.759C86.5671 271.339 84.923 263.631 82.9359 256.123C80.5591 247.125 76.5089 238.623 75.7498 229.263C75.023 220.3 70.9991 210.928 66.4448 203.317C64.8886 200.712 62.4297 196.875 64.4607 193.895C64.0533 192.277 66.7056 190.817 67.6054 189.795C69.3345 187.828 71.2688 186.161 73.3994 184.637C75.4568 183.162 77.0423 180.991 78.5868 178.802C78.1765 178.45 77.775 178.21 77.1126 177.852C73.3203 175.792 68.5842 173.233 65.9876 169.722C62.9426 165.599 65.5773 161.988 66.4917 157.598C66.9987 155.151 67.2185 152.662 67.5995 150.195C67.9219 148.111 68.4406 146.262 69.1674 144.284C69.5338 143.284 69.9353 142.276 70.3896 141.297C71.5706 138.745 73.1327 136.376 75.5095 134.788C76.4649 134.149 82.2326 130.433 82.9242 132.391C82.9506 132.446 82.9653 132.517 82.974 132.596Z" fill="#1A5F92"/>
<path d="M144.41 166.165C144.41 166.285 144.407 166.381 144.401 166.458C144.176 166.367 144.328 166.311 144.41 166.165Z" fill="#229F49"/>
<path d="M144.412 166.164C144.33 166.311 144.177 166.367 144.403 166.457C144.409 166.381 144.412 166.284 144.412 166.164ZM141.373 166.777C142.255 166.287 143.442 166.05 144.406 165.868C144.743 165.807 145.054 165.751 145.312 165.692C147.583 165.18 149.881 164.787 152.172 164.374C155.147 163.837 158.136 163.304 161.035 162.422C162.316 162.035 163.356 161.522 164.511 160.915C168.35 158.896 173.174 159.585 176.711 156.742C176.779 156.733 176.837 156.73 176.899 156.73L177.382 156.666C177.333 155.587 176.917 154.559 176.843 153.468C176.767 152.343 176.773 151.159 176.292 150.113C176.213 149.943 176.114 149.811 175.996 149.714C175.586 147.578 175.281 145.418 175.12 143.249L175.211 143.24C176.301 143.645 177.385 144.415 178.335 144.873C182.649 146.959 187.784 147.03 192.057 149.242C195.195 150.866 198.771 153.539 201.47 155.872C206.98 160.625 209.826 165.534 211.411 172.67C212.361 176.958 212.944 181.319 213.082 185.706C213.556 200.732 213.674 215.767 213.644 230.798C213.612 245.393 213.568 259.59 210.989 273.997C210.265 278.039 210.16 282.212 209.025 286.177C207.959 289.893 205.095 292.894 203.07 296.127C202.765 296.613 202.464 297.094 202.153 297.566V297.569C199.999 300.895 197.704 303.94 194.554 306.466C188.393 311.402 181.148 314.066 173.382 312.126C169.449 311.144 166.046 309.781 163.034 307.952C158.705 305.324 155.182 301.716 152.044 296.848C151.466 295.957 150.947 295.034 150.476 294.09C148.661 290.474 147.521 286.535 146.528 282.613C146.226 281.432 145.898 280.269 145.561 279.114C144.611 275.829 143.632 272.608 143.219 269.132C142.612 264.009 142.615 258.836 142.047 253.714C140.397 238.864 140.227 224.149 140.96 209.214C141.238 203.566 141.889 197.64 141.282 191.999C140.766 187.236 140.294 182.849 140.441 177.928C140.535 174.801 140.045 171.712 140.121 168.603C140.136 167.747 140.652 167.175 141.373 166.777Z" fill="#1A5F92"/>
<path d="M144.675 155.431L144.798 155.458C143.684 157.31 144.338 163.658 144.402 165.868C143.438 166.052 142.254 166.287 141.369 166.776C141.832 164.769 141.527 162.283 141.788 160.27C142.04 158.318 142.119 156.152 142.257 153.992C142.43 151.241 142.7 148.503 143.55 146.258L143.67 146.235C143.851 147.161 144.007 148.093 144.133 149.028C144.3 150.279 144.259 151.583 144.484 152.823C144.619 153.568 145.077 154.675 144.675 155.431Z" fill="#1A5F92"/>
<path d="M125.443 70.6954C126.531 71.1907 127.809 72.111 127.677 73.4737C127.568 74.561 125.945 75.2908 124.978 75.4139C123.706 75.5751 122.41 75.3084 121.173 75.0417C120.133 74.8189 119.189 74.6167 118.111 74.6519C116.974 74.6871 115.845 74.857 114.711 74.8981C112.718 74.9655 110.681 74.8805 108.794 74.1742C107.812 73.8049 106.743 73.632 106.365 72.489C105.424 69.6345 111.086 69.3649 112.648 69.3473C113.832 69.3356 115.016 69.0894 116.203 69.1802C116.681 69.2183 117.091 69.3942 117.575 69.4264C118.205 69.4704 118.838 69.4733 119.468 69.5378C120.62 69.6579 121.786 70.0067 122.935 70.0653C123.832 70.1122 124.605 70.3144 125.443 70.6954Z" fill="#8C542C"/>
<path d="M80.1898 68.1107C80.3334 68.266 80.4682 68.4214 80.5855 68.5767C81.2156 69.4032 81.4119 70.4142 81.9336 71.2729C82.4963 72.202 83.3638 72.9376 83.9324 73.9018C83.9324 73.9252 83.9353 73.9516 83.9411 73.9721C83.9617 74.1978 83.988 74.4205 84.0203 74.6433C84.2459 76.2083 84.876 77.6678 85.2658 79.1917C85.6204 80.5809 85.3303 81.6125 85.3332 82.9899C85.3362 83.6904 85.3596 84.3938 85.427 85.0913C85.4651 85.5309 85.4475 87.2864 85.8989 87.5238C86.6022 87.8872 87.1005 85.8767 87.1884 85.399C87.502 83.6963 88.5219 82.4273 88.9937 80.8154C89.4831 79.1302 89.3952 77.3512 89.656 75.6251C89.8934 74.0454 90.4122 72.6064 91.0012 71.1352C91.5317 69.8193 92.323 68.6441 92.8622 67.337C92.9941 67.0146 93.1055 66.6834 93.1993 66.3406C93.636 66.7391 94.3159 66.9179 94.8463 67.0879C95.6025 67.3282 96.385 67.7473 97.1909 67.8528C98.6709 68.0433 99.8022 68.2221 101.156 67.5949C102.528 66.9589 104.022 66.8065 105.344 65.9859C106.141 65.4906 107.073 65.2826 107.897 64.843C108.621 64.462 109.277 63.955 109.916 63.4421C111.132 62.4691 111.891 61.3232 112.879 60.1948C113.336 59.6732 113.993 59.3274 114.368 58.7764C114.799 58.1521 114.86 57.2905 115.133 56.593C115.484 55.6845 116.015 54.902 116.34 53.9876C116.619 53.2051 117 52.4519 117.307 51.6753C117.935 50.0927 118.5 48.4837 119.072 46.8806C120.22 43.6685 121.378 40.4154 123.078 37.4408C124.341 35.231 125.971 33.1824 128.057 31.6966C130.249 30.1316 133.47 29.522 134.701 32.5435C135.533 34.5833 135.446 37.0217 135.152 39.167C134.678 42.6311 134.886 46.1157 134.194 49.5475C133.629 52.3435 132.491 54.9489 131.82 57.7008C131.208 60.2242 131.709 62.9204 131.07 65.3793C130.504 67.5685 130.645 69.9952 131.507 72.1229C132.228 73.9077 134.625 77.1227 136.615 77.4861L136.873 77.445C137.063 78.6203 137.298 79.7925 137.421 80.9648C137.913 85.739 137.611 90.5541 137.752 95.34C137.866 99.2349 137.608 103.059 137.55 106.946C137.535 108.062 137.523 109.185 137.523 110.301C137.523 115.779 137.758 121.268 138.699 126.675C139.138 129.201 139.774 131.681 140.469 134.149C139.238 135.227 138.18 136.329 136.709 137.135C135.167 137.982 133.511 138.591 131.879 139.225C128.758 140.438 125.458 141.033 122.117 140.567C119.963 140.268 118.187 139.474 116.205 138.612C114.939 138.064 113.667 137.557 112.466 136.88C110.874 135.977 109.582 134.658 107.996 133.803C106.338 132.912 105.042 131.485 103.7 130.18C101.461 128.006 99.6938 125.529 97.2876 123.569C94.5503 121.335 92.4256 117.766 90.6583 114.759C90.5353 114.548 90.4151 114.337 90.3008 114.126C89.3864 112.47 88.6537 110.753 87.8243 109.056C85.9194 105.155 85.3479 100.349 84.6709 96.0903C84.3046 93.7808 83.0062 91.3337 80.8199 90.3314C78.9062 89.4551 76.5382 89.2089 74.8354 87.9136C71.5032 85.3814 70.0994 80.6747 69.6217 76.6889C69.2788 73.8168 69.1176 70.4201 70.7353 67.8675C71.7142 66.3259 73.628 65.3588 75.4684 65.3705C76.4327 65.3793 77.4291 65.6606 78.1852 66.279C78.8124 66.8065 79.589 67.4542 80.1898 68.1107ZM127.673 73.4739C127.805 72.1111 126.527 71.1909 125.44 70.6956C124.605 70.3146 123.831 70.1095 122.931 70.0626C121.783 70.0039 120.616 69.6552 119.464 69.535C118.834 69.4676 118.201 69.4676 117.571 69.4237C117.088 69.3885 116.68 69.2156 116.2 69.1775C115.013 69.0866 113.829 69.3328 112.645 69.3445C111.083 69.3621 105.42 69.6317 106.361 72.4863C106.739 73.6322 107.806 73.8022 108.791 74.1714C110.678 74.8777 112.715 74.9598 114.708 74.8953C115.842 74.8572 116.97 74.6843 118.107 74.6491C119.183 74.614 120.13 74.8162 121.17 75.0389C122.407 75.3056 123.702 75.5723 124.974 75.4111C125.941 75.291 127.568 74.5612 127.673 73.4739Z" fill="#F3B39A"/>
<path d="M83.9297 73.9019C83.9356 73.9107 83.9415 73.9225 83.9474 73.9314C83.9445 73.9462 83.9415 73.961 83.9386 73.9728C83.9326 73.9491 83.9297 73.9255 83.9297 73.9019Z" fill="#229F49"/>
<path d="M83.931 73.9024C83.3624 72.9382 82.4979 72.2026 81.9323 71.2736C81.4106 70.4149 81.2142 69.4038 80.5841 68.5773C80.4669 68.422 80.335 68.2666 80.1885 68.1113C79.9247 66.7251 80.2178 65.2304 80.0302 63.8295C79.787 62.0271 79.3708 60.257 79.1246 58.4575C78.7378 55.6499 79.2682 53.024 79.321 50.2164C79.4822 41.2161 80.8596 31.2312 86.5892 23.9337C87.823 22.3628 88.6964 20.6513 89.895 19.0951C91.97 16.3959 94.1446 13.052 97.0841 11.2085C101.375 8.51814 105.542 5.49657 110.305 3.67659C112.799 2.72118 115.436 2.26985 118.068 1.86541C120.697 1.4639 123.314 0.810355 125.943 0.482115C131.476 -0.209534 137.059 0.397124 142.61 0.414708C146.018 0.4235 149.389 0.616928 152.712 1.44632C155.904 2.24641 158.506 4.02535 161.557 5.21229C162.747 5.67827 163.69 6.7304 164.713 7.58031C167.96 7.5129 170.85 10.4436 172.949 12.5596C174.273 13.8931 175.554 15.2705 176.864 16.6157C178.148 17.9316 178.901 19.7223 180.129 21.1612C180.894 22.061 181.902 22.5973 182.643 23.5058C184.821 26.1698 187.209 28.5349 189.575 31.0436C191.145 32.7083 192.968 34.0359 194.044 36.0639C195.122 38.0891 195.899 40.1083 196.491 42.3298C197.142 44.774 198.261 47.227 198.584 49.7357C199.439 56.324 197.197 64.1167 194.923 70.2742C192.655 76.4345 189.082 82.0967 183.88 86.1704L182.808 86.9705C182.596 85.9008 182.321 84.8428 181.969 83.7877C181.58 82.6271 180.384 80.5903 180.161 79.0634L180.064 79.0751C179.894 77.7592 179.663 76.4433 179.549 75.1802C179.288 72.3433 179.018 69.4184 178.432 66.6225C177.981 64.4772 177.16 62.4404 176.515 60.3537C175.844 58.182 174.47 56.3181 173.734 54.1728C173.148 52.4701 172.365 50.6384 170.469 50.0141C169.438 49.6742 168.186 49.5716 167.152 49.9673C166.46 50.231 165.806 51.0018 165.616 51.7872C165.387 50.9989 165.124 50.2222 164.836 49.4983C164.479 48.5927 164.004 48.1209 163.409 47.4087C162.712 46.5676 162.181 45.6063 161.431 44.7975C159.854 43.0977 156.059 42.7313 154.983 45.196C154.215 46.9574 154.664 49.2932 154.989 51.1073C155.183 52.1946 155.408 53.2731 155.634 54.3545C155.868 55.4623 156.279 56.6669 156.331 57.7952C156.428 59.9844 156.756 62.1795 157.105 64.3541C157.275 65.3945 157.178 66.4701 157.249 67.531C157.375 69.5034 157.899 71.3673 158.002 73.3221C158.055 74.3743 158.084 84.1921 156.522 83.7027C155.698 83.4448 155.763 81.6864 155.684 81.0211C155.528 79.7082 155.411 78.4011 155.306 77.0822C155.098 74.5208 154.403 72.0004 153.764 69.521C153.096 66.9361 152.524 64.3541 151.803 61.7692C151.335 60.0812 150.927 58.3667 150.25 56.746C149.907 55.9283 149.362 55.1956 148.899 54.4337C148.439 53.6717 147.9 52.9449 147.111 52.4935C146.004 51.8634 144.588 51.6055 143.345 51.925C141.816 52.3177 140.652 54.1933 140.523 55.7056C140.388 57.3116 140.719 59.0378 141.051 60.6028C141.361 62.0858 141.514 63.8911 142.103 65.3125C141.555 64.5446 140.895 63.8823 140.084 63.3958C138.524 62.4638 137.112 63.0705 136.408 64.6736C135.62 66.4789 135.913 68.2227 136.256 70.0778C136.429 71.001 136.564 71.933 136.669 72.8708C136.751 73.6093 136.57 74.257 136.602 74.978C136.64 75.8015 136.751 76.6192 136.88 77.4398L136.622 77.4808C134.632 77.1174 132.235 73.9024 131.514 72.1176C130.652 69.9899 130.512 67.5633 131.077 65.374C131.713 62.9152 131.215 60.216 131.828 57.6955C132.496 54.9436 133.633 52.3382 134.202 49.5423C134.893 46.1104 134.685 42.6258 135.16 39.1617C135.453 37.0164 135.541 34.5781 134.709 32.5383C133.475 29.5167 130.254 30.1263 128.065 31.6913C125.978 33.1801 124.349 35.2257 123.085 37.4355C121.386 40.4073 120.231 43.6604 119.079 46.8753C118.508 48.4784 117.942 50.0874 117.315 51.67C117.007 52.4437 116.626 53.1998 116.348 53.9823C116.022 54.8967 115.492 55.6792 115.14 56.5877C114.868 57.2852 114.806 58.1469 114.375 58.7711C113.997 59.3221 113.341 59.6679 112.886 60.1896C111.899 61.3179 111.14 62.4638 109.924 63.4368C109.285 63.9497 108.628 64.4538 107.904 64.8377C107.078 65.2773 106.146 65.4854 105.352 65.9807C104.027 66.8013 102.535 66.9566 101.164 67.5896C99.8096 68.2168 98.6784 68.038 97.1984 67.8475C96.3953 67.742 95.6128 67.3229 94.8538 67.0826C94.3233 66.9097 93.6434 66.7339 93.2067 66.3353C93.11 66.6753 93.0016 67.0094 92.8697 67.3317C92.3304 68.6418 91.5391 69.8141 91.0087 71.1299C90.4167 72.6041 89.9009 74.0401 89.6635 75.6198C89.4027 77.346 89.4906 79.122 89.0011 80.8101C88.5293 82.422 87.5123 83.691 87.1958 85.3937C87.1079 85.8715 86.6097 87.8819 85.9063 87.5185C85.452 87.2841 85.4726 85.5256 85.4345 85.086C85.3671 84.3885 85.3436 83.6851 85.3407 82.9847C85.3348 81.6073 85.6279 80.5756 85.2733 79.1865C84.8835 77.6625 84.2534 76.2001 84.0277 74.638C83.9955 74.4153 83.9691 74.1925 83.9486 73.9669C83.9544 73.9552 83.9544 73.9405 83.9574 73.9259C83.9427 73.92 83.9369 73.9112 83.931 73.9024Z" fill="#8C542C"/>
<path d="M140.465 134.152C139.234 135.231 138.176 136.333 136.704 137.139C135.163 137.986 133.507 138.595 131.875 139.228C128.753 140.442 125.453 141.037 122.112 140.571C119.958 140.272 118.182 139.478 116.201 138.616C114.935 138.068 113.663 137.561 112.462 136.884C110.87 135.981 109.578 134.662 107.992 133.807C106.333 132.916 105.038 131.488 103.696 130.184C102.175 128.71 100.874 127.095 99.4434 125.598C101.662 130.219 104.519 134.522 108.159 138.112C113.291 143.17 120.058 146.74 127.241 147.279C132.763 147.692 138.492 146.174 142.926 142.924C142.812 142.464 142.692 142.004 142.572 141.547C141.907 139.073 141.159 136.62 140.465 134.152Z" fill="#F4936E"/>
<path d="M127.238 147.279C120.051 146.739 113.284 143.17 108.156 138.111C104.516 134.521 101.658 130.219 99.4397 125.597C98.7598 124.888 98.0535 124.202 97.2798 123.572C94.5425 121.339 92.4177 117.769 90.6505 114.762C90.5274 114.551 90.4072 114.34 90.2929 114.129C90.2577 115.768 89.8475 117.251 89.6863 118.886C89.5456 120.331 89.5397 121.691 89.1558 123.133C88.5667 125.336 87.6289 127.661 86.0961 129.387C85.5481 130.005 84.8506 130.278 84.3172 130.937C83.8571 131.503 83.4468 132.068 82.9779 132.59C83.0687 133.273 82.7756 134.548 82.8313 135.178C83.1859 139.304 83.5845 143.404 84.071 147.496L84.3963 147.457C84.8389 151.965 91.9839 157.651 95.2312 159.682C98.3026 161.601 101.734 162.768 105.163 163.867C108.375 164.892 111.461 165.455 114.627 166.381C119.533 167.82 124.424 166.44 128.967 164.479C130.784 163.694 132.944 163.143 134.635 162.193C136.88 160.933 139.353 158.445 140.871 156.367C141.372 155.678 141.569 154.506 142.255 153.993C142.427 151.241 142.697 148.504 143.547 146.259L143.667 146.235C143.45 145.125 143.195 144.02 142.92 142.921C138.489 146.174 132.759 147.695 127.238 147.279Z" fill="#F3B39A"/>
<path d="M38.0392 385.124C38.0216 384.54 38.007 383.96 37.9952 383.377C38.004 383.96 38.0187 384.54 38.0392 385.124C38.1682 389.276 38.2795 393.482 37.9366 397.62C37.8018 399.223 37.7051 400.832 37.623 402.438C37.7051 400.829 37.8018 399.223 37.9366 397.62C38.2795 393.482 38.1682 389.276 38.0392 385.124Z" fill="#1A5F92"/>
<path d="M36.3629 415.304C36.0844 416.641 35.7914 417.983 35.5598 419.39C35.0265 422.616 34.9444 425.793 34.7715 429.008C34.9473 425.79 35.0294 422.616 35.5628 419.39C35.7914 417.983 36.0844 416.641 36.3629 415.304Z" fill="#1A5F92"/>
<path d="M37.9766 382.442C37.9736 382.178 37.9736 381.912 37.9707 381.648C37.9707 381.915 37.9736 382.178 37.9766 382.442Z" fill="#229F49"/>
<path d="M38.4824 373.328C38.4912 373.266 38.4971 373.205 38.5059 373.143C38.4971 373.208 38.4883 373.266 38.4824 373.328Z" fill="#229F49"/>
<path d="M46.6048 446.543C46.5545 446.546 46.5073 446.549 46.457 446.552C46.5073 446.549 46.5545 446.543 46.6048 446.543Z" fill="#229F49"/>
<path d="M38.0176 378.749C38.0293 378.435 38.044 378.122 38.0586 377.808C38.044 378.122 38.0293 378.435 38.0176 378.749Z" fill="#229F49"/>
<path d="M37.9707 381.311C37.9707 380.538 37.9854 379.764 38.0088 378.99C37.9824 379.764 37.9707 380.538 37.9707 381.311Z" fill="#229F49"/>
<path d="M45.9757 446.582C45.9112 446.587 45.8438 446.593 45.7793 446.599C45.8438 446.59 45.9082 446.584 45.9757 446.582Z" fill="#229F49"/>
<path d="M38.0781 377.543C38.0957 377.215 38.1192 376.883 38.1426 376.555C38.1192 376.886 38.0957 377.215 38.0781 377.543Z" fill="#229F49"/>
<path d="M37.9873 383.181C37.9873 383.246 37.9902 383.313 37.9932 383.378C37.9902 383.216 37.9873 383.055 37.9844 382.894C37.9844 382.991 37.9844 383.085 37.9873 383.181Z" fill="#229F49"/>
<path d="M38.7559 371.33C38.7618 371.292 38.7677 371.25 38.7736 371.212C38.7677 371.253 38.7618 371.292 38.7559 371.33Z" fill="#229F49"/>
<path d="M37.6176 402.438C37.5004 404.689 37.4095 406.94 37.2835 409.188C37.1634 411.324 36.7736 413.306 36.3574 415.304C36.7765 413.306 37.1663 411.324 37.2835 409.188C37.4125 406.937 37.5033 404.686 37.6176 402.438Z" fill="#1A5F92"/>
<path d="M34.768 429.009C34.7064 430.137 34.6332 431.268 34.5277 432.408C34.343 434.387 34.0119 436.254 33.6367 438.126C34.0119 436.251 34.343 434.384 34.5277 432.408C34.6361 431.268 34.7094 430.137 34.768 429.009Z" fill="#1A5F92"/>
<path d="M38.2774 375.071C38.2745 375.109 38.2686 375.147 38.2627 375.185C38.2217 375.584 38.1865 375.979 38.1543 376.378C38.1865 375.979 38.2217 375.584 38.2627 375.185C38.2686 375.147 38.2745 375.109 38.2774 375.071Z" fill="#229F49"/>
<path d="M40.4063 356.732C40.4033 357.292 40.3887 357.851 40.3652 358.411C40.3916 357.851 40.4063 357.292 40.4063 356.732Z" fill="#229F49"/>
<path d="M100.991 353.739C101.232 360.45 100.9 367.158 100.59 373.861C100.842 373.873 101.103 373.881 101.402 373.899C108.916 373.398 116.723 374.435 124.317 374.104C131.676 373.785 142.186 375.947 149.149 374.01C149.111 372.697 149.052 371.384 148.923 370.077C148.352 364.444 147.458 358.571 147.484 352.915C147.487 352.367 147.455 351.904 147.44 351.567C143.794 351.845 140.193 351.007 136.553 351.004C128.854 350.992 120.938 351.113 113.268 351.731C109.168 352.062 105.077 352.49 100.988 352.959C100.985 353.193 100.983 353.44 100.991 353.739Z" fill="white"/>
<path d="M201.274 452.46C200.841 452.408 200.416 452.349 200.011 452.302C197.136 451.953 194.191 451.247 191.287 451.253C187.257 451.262 183.283 452.202 179.25 452.123C177.272 452.085 175.604 451.616 173.711 451.226C171.683 450.807 169.588 451.051 167.548 450.772C163.852 450.271 159.905 450.072 156.177 450.066C153.038 450.066 150.775 447.903 150.573 444.606C150.38 441.414 151.347 438.261 151.616 435.102C152.478 425.046 150.799 415.012 150.485 404.991C150.403 402.395 150.852 399.901 150.793 397.301C150.658 391.598 150.028 385.924 149.445 380.25C149.231 378.175 149.213 376.095 149.149 374.014V374.011C142.185 375.951 131.676 373.785 124.317 374.105C116.726 374.433 108.916 373.395 101.402 373.9C101.103 373.885 100.842 373.873 100.59 373.861C100.566 374.38 100.543 374.899 100.519 375.418C100.367 378.794 100.326 382.176 100.308 385.555C100.291 388.864 100.719 392.515 100.08 395.769C98.887 401.847 99.8776 408.391 99.7603 414.616C99.6636 419.663 99.3706 424.492 99.7457 429.548C100.144 434.908 102.149 442.247 97.5154 446.444C94.0923 449.547 88.5123 448.782 84.2803 448.782C80.5788 448.782 76.8099 449.474 73.1143 449.128C69.9257 448.832 66.6931 448.562 63.4664 448.366C61.0309 448.217 58.6365 448.225 56.1835 447.836C53.0594 447.337 50.1463 446.514 47.0895 446.534L47.0924 446.728C45.9876 449.025 46.3803 458.251 48.1446 460.886H123.188H201.087C201.289 457.967 201.324 454.65 201.274 452.46Z" fill="#DBD0C3"/>
<path d="M35.2302 445.137C34.2777 444.504 33.6007 443.616 33.2871 442.596C33.6036 443.613 34.2777 444.504 35.2302 445.137C37.9147 446.921 42.0529 447.086 45.1624 446.666C45.1917 446.664 45.221 446.661 45.2503 446.655C45.221 446.658 45.1917 446.661 45.1624 446.664C42.0558 447.086 37.9176 446.918 35.2302 445.137Z" fill="#229F49"/>
<path d="M39.9062 363.513C39.9238 363.376 39.9414 363.238 39.959 363.103C39.9414 363.238 39.9238 363.376 39.9062 363.513Z" fill="#229F49"/>
<path d="M40.0938 361.933C40.1143 361.737 40.1348 361.541 40.1553 361.347C40.1348 361.541 40.1143 361.737 40.0938 361.933Z" fill="#229F49"/>
<path d="M40.1758 361.128C40.2022 360.858 40.2256 360.588 40.2461 360.319C40.2256 360.588 40.1992 360.858 40.1758 361.128Z" fill="#229F49"/>
<path d="M40.2617 360.131C40.2793 359.917 40.294 359.706 40.3086 359.492C40.294 359.706 40.2793 359.917 40.2617 360.131Z" fill="#229F49"/>
<path d="M40.0039 362.736C40.0215 362.578 40.042 362.42 40.0596 362.262C40.0391 362.42 40.0215 362.578 40.0039 362.736Z" fill="#229F49"/>
<path d="M40.3702 354.855C40.3438 354.275 40.3028 353.692 40.2441 353.105C40.3028 353.692 40.3438 354.275 40.3702 354.855Z" fill="#229F49"/>
<path d="M40.3223 359.243C40.334 359.038 40.3457 358.836 40.3545 358.63C40.3457 358.836 40.334 359.041 40.3223 359.243Z" fill="#229F49"/>
<path d="M40.4024 355.7C40.3965 355.459 40.3877 355.219 40.3789 354.976C40.3877 355.219 40.3965 355.459 40.4024 355.7Z" fill="#229F49"/>
<path d="M40.4082 356.596C40.4082 356.359 40.4053 356.121 40.4023 355.887C40.4082 356.121 40.4082 356.359 40.4082 356.596Z" fill="#229F49"/>
<path d="M100.988 353.74C100.976 353.441 100.979 353.194 100.985 352.957C94.9538 353.649 88.9311 354.425 82.8909 355.099C73.073 356.198 62.6778 356.351 52.9009 355.111C49.3108 354.654 45.8057 353.707 42.2155 353.347C41.5503 353.279 40.8909 353.189 40.2402 353.083C40.2402 353.092 40.2402 353.101 40.2432 353.106C40.3018 353.69 40.3428 354.273 40.3692 354.856C40.3721 354.897 40.3721 354.935 40.375 354.976C40.3868 355.217 40.3926 355.46 40.3985 355.7C40.3985 355.762 40.4014 355.823 40.4014 355.885C40.4044 356.122 40.4073 356.36 40.4073 356.594C40.4073 356.638 40.4073 356.685 40.4073 356.729C40.4044 357.069 40.3985 357.412 40.3897 357.752C60.471 360.457 80.7691 361.204 101.038 361.796C101.088 359.114 101.085 356.427 100.988 353.74Z" fill="#124B73"/>
<path d="M40.3917 357.754C40.3859 357.974 40.38 358.191 40.3683 358.411C40.3653 358.484 40.3624 358.557 40.3566 358.631C40.3478 358.836 40.336 359.041 40.3243 359.243C40.3185 359.325 40.3155 359.407 40.3097 359.492C40.295 359.706 40.2804 359.917 40.2628 360.131C40.2569 360.193 40.254 360.257 40.2481 360.319C40.2247 360.588 40.2012 360.858 40.1778 361.128C40.1719 361.201 40.1631 361.274 40.1573 361.347C40.1367 361.544 40.1192 361.74 40.0957 361.934C40.084 362.042 40.0723 362.153 40.0606 362.262C40.043 362.42 40.0254 362.578 40.0049 362.737C39.9902 362.86 39.9756 362.98 39.9609 363.103C39.9433 363.241 39.9257 363.378 39.9082 363.513C39.744 364.809 39.5506 366.104 39.3543 367.399C39.1579 368.668 38.9586 369.94 38.774 371.215C38.7681 371.253 38.7622 371.294 38.7564 371.332C38.6685 371.936 38.5864 372.543 38.5073 373.146C38.4985 373.208 38.4926 373.27 38.4838 373.331C38.4106 373.911 38.3402 374.492 38.2787 375.075C38.2757 375.113 38.2699 375.151 38.267 375.189C38.2259 375.588 38.1908 375.983 38.1585 376.382C38.1527 376.441 38.1497 376.502 38.1468 376.561C38.1204 376.889 38.0999 377.22 38.0823 377.548C38.0765 377.636 38.0735 377.727 38.0677 377.815C38.0501 378.129 38.0384 378.442 38.0266 378.756C38.0237 378.835 38.0208 378.917 38.0178 378.996C37.9915 379.77 37.9797 380.544 37.9797 381.317C37.9797 381.429 37.9797 381.543 37.9797 381.654C37.9797 381.918 37.9827 382.185 37.9856 382.449C37.9885 382.598 37.9885 382.748 37.9915 382.9C37.9944 383.061 37.9973 383.222 38.0003 383.383C38.012 383.964 38.0266 384.547 38.0442 385.13C38.1732 389.286 38.2875 393.489 37.9416 397.627C37.8068 399.23 37.7101 400.836 37.6281 402.445C37.5108 404.696 37.42 406.946 37.2969 409.194C37.1767 411.334 36.7869 413.312 36.3708 415.311C36.0924 416.647 35.7993 417.989 35.5678 419.396C35.0373 422.623 34.9523 425.8 34.7765 429.015C34.7149 430.143 34.6417 431.274 34.5362 432.414C34.3515 434.393 34.0203 436.259 33.6452 438.132C33.4987 438.859 33.3492 439.589 33.1968 440.324C33.0327 441.116 33.0767 441.889 33.2965 442.596C33.61 443.616 34.287 444.504 35.2395 445.137C37.9241 446.918 42.0622 447.086 45.1747 446.666C45.204 446.664 45.2333 446.661 45.2626 446.658C45.4384 446.634 45.6143 446.617 45.7901 446.599C45.8546 446.593 45.922 446.587 45.9865 446.581C46.1476 446.57 46.3088 446.558 46.4671 446.552C46.5169 446.549 46.5638 446.546 46.6136 446.543C46.7778 446.537 46.9389 446.535 47.1001 446.535C50.1569 446.514 53.07 447.338 56.1941 447.836C58.6472 448.229 61.0416 448.217 63.477 448.366C66.7037 448.563 69.9363 448.832 73.1249 449.128C76.8205 449.474 80.5894 448.782 84.2909 448.782C88.5229 448.782 94.1 449.547 97.526 446.444C102.16 442.247 100.155 434.911 99.7563 429.548C99.3812 424.493 99.6743 419.663 99.771 414.616C99.8911 408.391 98.8976 401.85 100.09 395.769C100.729 392.516 100.301 388.864 100.319 385.555C100.337 382.176 100.378 378.794 100.53 375.418C100.553 374.899 100.577 374.38 100.6 373.862C100.202 373.844 99.8237 373.832 99.3489 373.806C99.8237 373.829 100.199 373.844 100.6 373.862C100.785 369.841 100.978 365.82 101.052 361.796C80.7711 361.207 60.473 360.459 40.3917 357.754Z" fill="#1A5F92"/>
<path d="M156.205 351.102C156.504 349.962 156.457 348.666 157.181 347.737C157.72 347.043 158.585 346.697 159.414 346.401C165.173 344.346 171.266 343.23 177.38 343.109C181.544 343.027 185.841 343.385 189.762 341.984C190.709 341.644 191.611 341.21 192.496 340.733C189.507 340.402 186.523 340.012 183.476 340.006C181.532 340.003 162.448 340.657 159.039 340.023C158.843 340.246 158.608 340.448 158.327 340.627C156.416 341.843 153.913 341.673 151.745 341.679L151.616 341.682C151.619 341.855 151.622 342.034 151.625 342.207C151.645 344.446 152.26 347.289 151.616 349.463C151.1 351.201 149.928 351.295 148.204 351.503C147.949 351.535 147.694 351.559 147.439 351.576C147.454 351.913 147.486 352.376 147.483 352.924C147.478 354.079 147.513 355.243 147.574 356.412C148.659 356.38 149.734 356.254 150.783 355.969C153.236 355.295 155.56 353.563 156.205 351.102Z" fill="#124B73"/>
<path d="M208.05 440.178C207.839 434.876 207.358 429.586 206.845 424.311C206.64 422.195 206.649 419.889 206.194 417.811C205.828 416.126 205.265 414.566 205.098 412.79C204.917 410.847 204.911 408.89 204.741 406.944C204.436 403.471 203.39 400.013 202.798 396.575C202.475 394.726 202.206 392.867 202.056 390.998C201.965 389.884 202.112 388.832 202.135 387.756C202.147 387.343 202.138 386.924 202.088 386.499C201.409 380.547 200.318 374.644 199.668 368.692C199.451 366.708 199.281 364.718 199.193 362.722C199.052 359.645 198.97 356.576 198.674 353.511C198.396 350.645 197.282 347.887 197.209 345.009C197.18 343.989 196.834 342.26 196.948 341.123C195.456 341.041 193.976 340.888 192.499 340.727C191.617 341.205 190.714 341.641 189.765 341.978C185.841 343.382 181.547 343.022 177.383 343.104C171.269 343.224 165.176 344.341 159.417 346.395C158.588 346.691 157.723 347.037 157.184 347.731C156.46 348.663 156.507 349.956 156.208 351.096C155.563 353.558 153.239 355.29 150.783 355.958C149.734 356.242 148.659 356.368 147.574 356.401C147.812 360.958 148.468 365.591 148.922 370.075C149.051 371.385 149.11 372.698 149.148 374.011C149.212 376.089 149.23 378.173 149.444 380.248C150.027 385.919 150.657 391.593 150.792 397.299C150.854 399.898 150.405 402.392 150.484 404.989C150.795 415.006 152.477 425.044 151.616 435.099C151.346 438.258 150.379 441.412 150.572 444.603C150.775 447.9 153.037 450.063 156.176 450.063C159.904 450.069 163.851 450.268 167.547 450.77C169.59 451.048 171.685 450.805 173.71 451.224C175.604 451.614 177.271 452.085 179.249 452.121C183.285 452.2 187.256 451.259 191.286 451.25C194.19 451.244 197.136 451.951 200.011 452.299C200.415 452.349 200.84 452.405 201.274 452.458C203.947 452.786 206.942 452.941 207.824 449.823C208.691 446.766 208.176 443.299 208.05 440.178Z" fill="#1A5F92"/>
<path d="M96.7123 65.4616C96.5951 65.4616 96.4749 65.4323 96.3665 65.3737C96.009 65.1832 95.8771 64.7377 96.0676 64.3802C96.9497 62.739 98.3418 61.5579 99.687 60.412C100.024 60.1248 100.361 59.8405 100.683 59.5504C101.621 58.7122 102.366 57.7451 103.154 56.7222C103.67 56.054 104.2 55.3624 104.795 54.7088C106.111 53.2552 107.002 51.0161 107.122 48.8679C107.146 48.4635 107.483 48.1557 107.896 48.1763C108.3 48.1997 108.608 48.5455 108.588 48.95C108.45 51.4176 107.412 53.9996 105.883 55.6906C105.329 56.3031 104.813 56.9713 104.315 57.6161C103.52 58.6477 102.7 59.7116 101.662 60.6406C101.328 60.9395 100.982 61.2326 100.637 61.5286C99.3939 62.5837 98.1103 63.6768 97.3571 65.0718C97.2252 65.321 96.9732 65.4616 96.7123 65.4616Z" fill="#693F21"/>
<path d="M83.8843 74.0754C83.5004 74.0754 83.178 73.7765 83.1546 73.3896C83.0696 72.0649 83.1165 70.7315 83.1633 69.4419C83.1897 68.7181 83.2161 67.9707 83.219 67.2439C83.219 66.8395 83.5473 66.5142 83.9517 66.5142C83.9517 66.5142 83.9517 66.5142 83.9546 66.5142C84.3591 66.5142 84.6873 66.8453 84.6844 67.2498C84.6815 68 84.6551 68.762 84.6287 69.4976C84.5847 70.752 84.5378 72.0474 84.617 73.2988C84.6434 73.7032 84.3356 74.052 83.9312 74.0754C83.9136 74.0754 83.899 74.0754 83.8843 74.0754Z" fill="#693F21"/>
<path d="M92.8548 68.0701C92.7611 68.0701 92.6673 68.0525 92.5764 68.0144C92.2013 67.8591 92.0255 67.4312 92.1778 67.0561C92.5119 66.2443 92.7025 65.3006 92.8871 64.3891C93.0102 63.7795 93.1362 63.1494 93.3091 62.5486C94.118 59.7088 95.1877 57.4873 96.486 55.9457C96.7175 55.6732 96.9754 55.3098 97.2539 54.9288C97.9396 53.9763 98.7192 52.8978 99.5838 52.4054C99.9355 52.2061 100.384 52.3292 100.583 52.6809C100.782 53.0326 100.659 53.481 100.308 53.6803C99.7186 54.0144 99.0094 54.9991 98.4408 55.7875C98.1477 56.1919 97.8722 56.5758 97.6055 56.8924C96.442 58.2727 95.469 60.3125 94.7188 62.9502C94.5635 63.4953 94.4462 64.0697 94.3261 64.6793C94.1268 65.6611 93.9216 66.6751 93.5348 67.6158C93.4175 67.9001 93.1421 68.0701 92.8548 68.0701Z" fill="#693F21"/>
<path d="M124.396 141.461C123.59 141.461 122.793 141.406 122.008 141.297C119.827 140.995 118.019 140.21 116.105 139.377L115.903 139.29C115.663 139.184 115.42 139.081 115.179 138.979C114.156 138.542 113.101 138.091 112.093 137.522C111.281 137.062 110.552 136.505 109.845 135.966C109.104 135.401 108.406 134.867 107.636 134.454C106.15 133.654 104.966 132.479 103.82 131.344C103.606 131.133 103.392 130.922 103.178 130.711C102.255 129.815 101.405 128.862 100.584 127.945C99.3592 126.57 98.2016 125.275 96.8124 124.144C93.9227 121.787 91.6632 117.942 90.0132 115.138C89.808 114.789 89.9252 114.34 90.274 114.135C90.6228 113.93 91.0712 114.047 91.2763 114.396C92.9585 117.256 95.0511 120.817 97.7385 123.009C99.2156 124.214 100.467 125.615 101.677 126.972C102.48 127.871 103.313 128.803 104.198 129.662C104.418 129.873 104.635 130.09 104.851 130.304C105.974 131.415 107.035 132.467 108.333 133.164C109.203 133.633 109.983 134.228 110.736 134.803C111.434 135.333 112.093 135.837 112.817 136.247C113.752 136.778 114.725 137.191 115.757 137.631C116 137.736 116.246 137.839 116.489 137.944L116.691 138.032C118.591 138.859 120.229 139.571 122.21 139.846C125.164 140.257 128.326 139.82 131.606 138.545L132.119 138.346C133.54 137.798 135.011 137.229 136.348 136.494C137.426 135.902 138.285 135.122 139.194 134.299C139.522 134.003 139.862 133.695 140.216 133.39C140.524 133.126 140.987 133.164 141.248 133.472C141.512 133.78 141.474 134.243 141.166 134.504C140.826 134.794 140.495 135.093 140.175 135.383C139.243 136.227 138.279 137.1 137.048 137.777C135.624 138.56 134.109 139.143 132.64 139.712L132.128 139.911C129.481 140.942 126.887 141.461 124.396 141.461Z" fill="#AB5F40"/>
<path d="M79.9662 84.8808C79.8255 84.8808 79.6819 84.8398 79.5588 84.7548C78.536 84.0661 75.913 81.531 76.5109 79.459C76.7014 78.7967 77.1468 78.3366 77.5073 77.9673C77.9616 77.4984 78.1286 77.2903 78.0847 76.9591C77.9792 76.1971 77.5806 75.3296 77.2172 74.5735C76.6457 73.3954 75.4675 71.5226 73.9963 72.2231C73.63 72.3989 73.1933 72.2407 73.0204 71.8773C72.8475 71.5109 72.9999 71.0742 73.3662 70.9013C75.2771 69.9899 77.1615 71.0977 78.536 73.9346C78.9492 74.7904 79.4035 75.7839 79.5383 76.7598C79.6848 77.8266 79.0372 78.4978 78.5624 78.9843C78.2664 79.289 78.0114 79.5528 77.9235 79.8635C77.6539 80.7954 79.2189 82.7531 80.3824 83.5386C80.7194 83.7642 80.8073 84.2214 80.5816 84.5555C80.4351 84.7695 80.2036 84.8808 79.9662 84.8808Z" fill="#AB5F40"/>
<path d="M134.103 113.121C131.591 113.121 128.789 111.471 127.277 109.76C127.01 109.455 127.037 108.995 127.342 108.725C127.646 108.456 128.107 108.485 128.376 108.79C129.765 110.363 132.541 111.893 134.604 111.624C135.641 111.489 136.389 110.929 136.893 109.921C137.075 109.557 137.514 109.411 137.875 109.593C138.238 109.774 138.385 110.214 138.203 110.574C137.485 112.013 136.307 112.878 134.794 113.077C134.569 113.107 134.337 113.121 134.103 113.121Z" fill="#AB5F40"/>
<path d="M126.177 120.744C126.065 120.744 125.954 120.718 125.848 120.665C124.911 120.193 124.028 119.622 123.173 119.068C122.695 118.76 122.203 118.441 121.713 118.148C120.705 117.547 119.591 117.031 118.513 116.536C117.76 116.19 116.983 115.83 116.242 115.443C115.884 115.255 115.743 114.813 115.931 114.455C116.118 114.098 116.561 113.96 116.918 114.144C117.628 114.517 118.39 114.865 119.125 115.205C120.236 115.718 121.388 116.249 122.463 116.89C122.973 117.195 123.477 117.521 123.967 117.837C124.79 118.368 125.64 118.919 126.508 119.355C126.868 119.537 127.015 119.977 126.833 120.34C126.704 120.595 126.446 120.744 126.177 120.744Z" fill="#AB5F40"/>
<path d="M121.981 89.9423C120.504 90.7629 117.55 89.617 116.093 88.9927C114.918 88.4916 111.354 86.654 111.363 85.3586C110.935 85.4554 110.83 85.2619 111.076 84.8985C111.322 84.5351 111.861 84.4853 112.269 84.6553C112.673 84.8252 112.984 85.1564 113.309 85.4524C115.448 87.4248 118.452 88.1194 121.327 88.5649C121.621 88.6088 121.919 88.6557 122.174 88.8052C122.429 88.9546 122.629 89.236 122.594 89.529C122.555 89.8192 122.242 90.083 121.981 89.9423Z" fill="#231F20"/>
<path d="M143.668 146.974C143.326 146.974 143.018 146.73 142.95 146.382C142.675 144.975 142.326 143.498 141.857 141.733C141.453 140.218 141.007 138.68 140.577 137.194C139.598 133.823 138.587 130.339 137.971 126.799C136.802 120.055 136.723 113.264 136.813 106.934C136.834 105.557 136.878 104.168 136.925 102.825C137.007 100.384 137.089 97.8606 137.016 95.3637C136.966 93.6404 136.972 91.8908 136.978 90.1997C136.989 87.187 137.001 84.0716 136.687 81.0413C136.602 80.2236 136.459 79.3766 136.318 78.5619C136.268 78.2747 136.219 77.9875 136.172 77.7002C136.107 77.3017 136.377 76.9236 136.775 76.8591C137.177 76.7947 137.552 77.0643 137.616 77.4629C137.663 77.7471 137.713 78.0314 137.76 78.3128C137.904 79.1539 138.053 80.0214 138.144 80.8889C138.466 83.9954 138.455 87.1518 138.443 90.2027C138.437 91.882 138.431 93.6199 138.481 95.3168C138.554 97.8606 138.472 100.407 138.39 102.869C138.346 104.206 138.299 105.589 138.282 106.952C138.191 113.212 138.267 119.92 139.416 126.544C140.017 130.005 141.016 133.448 141.983 136.781C142.417 138.275 142.865 139.82 143.273 141.35C143.75 143.146 144.105 144.652 144.389 146.091C144.468 146.49 144.208 146.874 143.812 146.95C143.762 146.971 143.715 146.974 143.668 146.974Z" fill="#AB5F40"/>
<path d="M147.928 88.2046C147.608 88.2046 147.315 87.9965 147.224 87.6741C146.837 86.3377 146.667 84.9661 146.5 83.6385C146.324 82.2406 146.16 80.9188 145.765 79.6322C145.278 78.0555 144.938 76.4289 144.61 74.8581C144.323 73.4865 144.027 72.071 143.637 70.7111C143.112 68.8736 142.406 66.7957 141.163 65.3069C140.906 64.9962 140.947 64.5332 141.257 64.2753C141.568 64.0174 142.028 64.0584 142.289 64.3691C143.707 66.0659 144.478 68.3226 145.047 70.3067C145.451 71.7164 145.753 73.1612 146.046 74.5562C146.368 76.0948 146.702 77.6862 147.168 79.2014C147.602 80.6111 147.784 82.0559 147.957 83.4568C148.124 84.7844 148.279 86.0388 148.634 87.2667C148.745 87.6565 148.522 88.061 148.133 88.1753C148.065 88.1928 147.995 88.2046 147.928 88.2046Z" fill="#AB5F40"/>
<path d="M169.696 82.8035C169.532 82.8035 169.368 82.7508 169.233 82.6365C168.92 82.3815 168.873 81.9185 169.131 81.6049C169.708 80.8986 169.418 79.061 169.204 77.7187C169.113 77.1385 169.025 76.5904 169.002 76.1391C168.984 75.8021 168.967 75.465 168.952 75.128C168.882 73.7095 168.811 72.2442 168.647 70.8257C168.512 69.6739 168.419 68.5016 168.325 67.3704C168.187 65.6735 168.043 63.9209 167.768 62.224C167.551 60.8964 167.106 59.6538 166.634 58.3408C166.177 57.066 165.705 55.7472 165.459 54.3404C165.309 53.4817 165.092 52.5791 164.811 51.6588C164.694 51.272 164.913 50.8617 165.3 50.7444C165.687 50.6272 166.097 50.847 166.215 51.2339C166.511 52.2127 166.742 53.174 166.903 54.0884C167.129 55.372 167.56 56.5736 168.014 57.8456C168.489 59.1644 168.975 60.5272 169.216 61.9896C169.5 63.7422 169.647 65.527 169.787 67.2532C169.878 68.3727 169.972 69.5303 170.104 70.6557C170.274 72.124 170.347 73.6157 170.417 75.0577C170.435 75.3918 170.45 75.7288 170.467 76.0629C170.488 76.438 170.567 76.9509 170.655 77.4902C170.924 79.1958 171.261 81.3177 170.268 82.5339C170.118 82.7098 169.907 82.8035 169.696 82.8035Z" fill="#AB5F40"/>
<path d="M180.5 99.9883C180.497 99.9883 180.494 99.9883 180.488 99.9883C180.084 99.9825 179.761 99.6513 179.767 99.2439C179.782 98.2064 179.776 97.1455 179.767 96.1198C179.755 94.2969 179.741 92.4124 179.852 90.5514C179.923 89.3586 179.797 88.1805 179.665 86.9291C179.521 85.5721 179.372 84.1712 179.498 82.7528C179.571 81.9234 179.544 80.9943 179.418 79.8279C179.375 79.4264 179.665 79.063 180.066 79.0191C180.471 78.9751 180.831 79.2652 180.875 79.6667C181.013 80.9328 181.039 81.9527 180.957 82.8788C180.846 84.1566 180.981 85.4256 181.121 86.7737C181.253 88.0281 181.391 89.3234 181.315 90.6364C181.206 92.4505 181.221 94.3115 181.233 96.111C181.238 97.1426 181.247 98.2123 181.233 99.2644C181.227 99.6659 180.901 99.9883 180.5 99.9883Z" fill="#AB5F40"/>
<path d="M162.585 308.412C162.45 308.412 162.315 308.377 162.195 308.298C158.057 305.686 154.534 302.07 151.422 297.243C148.465 292.656 146.976 287.378 145.809 282.794C145.49 281.54 145.138 280.306 144.804 279.152C144.693 278.762 144.915 278.357 145.305 278.243C145.695 278.129 146.099 278.354 146.214 278.744C146.551 279.914 146.908 281.159 147.234 282.434C148.371 286.906 149.819 292.05 152.655 296.452C155.692 301.158 158.971 304.532 162.977 307.061C163.32 307.278 163.423 307.729 163.206 308.072C163.065 308.292 162.828 308.412 162.585 308.412Z" fill="#3F85BA"/>
<path d="M141.671 167.357C141.396 167.357 141.129 167.199 141.006 166.932C140.836 166.566 140.994 166.129 141.36 165.959C142.322 165.513 143.459 165.299 144.373 165.13C144.772 165.056 145.153 165.317 145.229 165.716C145.302 166.114 145.041 166.495 144.643 166.571C143.81 166.727 142.773 166.92 141.979 167.289C141.879 167.333 141.774 167.357 141.671 167.357Z" fill="#3F85BA"/>
<path d="M199.763 278.853C199.567 278.853 199.37 278.774 199.224 278.619C198.948 278.323 198.969 277.857 199.265 277.584C203.081 274.062 198.119 253.743 196.489 247.064C196.314 246.337 196.158 245.707 196.035 245.188C195.03 240.942 193.843 236.663 192.697 232.522C191.598 228.553 190.461 224.45 189.479 220.371C188.512 216.347 187.765 212.218 187.041 208.229L187.023 208.126C186.809 206.948 186.657 205.75 186.51 204.592C186.17 201.902 185.848 199.358 184.802 196.922C183.84 194.683 183.533 192.216 183.237 189.827C183.081 188.576 182.92 187.283 182.668 186.07C182.466 185.1 182.261 184.141 182.056 183.186C181.103 178.731 180.203 174.526 179.749 169.971C179.679 169.262 179.626 168.541 179.576 167.844C179.412 165.534 179.257 163.351 178.451 161.276C178.313 160.924 178.214 160.461 178.108 159.975C177.797 158.553 177.481 157.378 176.801 157.469C176.399 157.519 176.033 157.237 175.98 156.836C175.931 156.434 176.212 156.068 176.613 156.015C178.685 155.752 179.222 158.199 179.538 159.661C179.632 160.092 179.72 160.499 179.817 160.745C180.702 163.029 180.872 165.423 181.036 167.738C181.086 168.424 181.135 169.136 181.203 169.825C181.648 174.297 182.539 178.465 183.483 182.878C183.688 183.834 183.893 184.798 184.095 185.768C184.362 187.04 184.526 188.365 184.685 189.645C184.969 191.931 185.262 194.296 186.141 196.345C187.269 198.971 187.618 201.737 187.958 204.41C188.102 205.547 188.251 206.725 188.456 207.866L188.474 207.968C189.195 211.939 189.939 216.045 190.895 220.031C191.868 224.084 193.002 228.175 194.098 232.132C195.25 236.285 196.44 240.578 197.451 244.851C197.574 245.367 197.726 245.994 197.902 246.718C201.264 260.484 204.168 275.04 200.25 278.663C200.121 278.789 199.942 278.853 199.763 278.853Z" fill="#3F85BA"/>
<path d="M79.3597 180.281C79.1634 180.281 78.967 180.202 78.8234 180.05C78.0673 179.241 77.7391 179.018 76.7661 178.491L76.6957 178.453C72.8565 176.369 68.0794 173.775 65.4007 170.153C62.9008 166.768 63.9149 163.614 64.8937 160.566C65.219 159.558 65.5531 158.515 65.7759 157.445C66.0983 155.898 66.3063 154.289 66.5115 152.736C66.6258 151.865 66.743 150.968 66.8778 150.083C67.1885 148.064 67.6838 146.197 68.4839 144.028C68.8736 142.97 69.2253 142.1 69.5917 141.288C69.7587 140.919 70.1925 140.755 70.5617 140.922C70.931 141.089 71.0951 141.523 70.9281 141.892C70.5764 142.671 70.2364 143.513 69.8613 144.535C69.0964 146.61 68.6245 148.389 68.3285 150.309C68.1937 151.176 68.0794 152.067 67.9651 152.929C67.76 154.512 67.546 156.144 67.2119 157.747C66.9745 158.893 66.6258 159.974 66.2917 161.018C65.3451 163.963 64.5274 166.507 66.5818 169.285C69.0641 172.647 73.6829 175.153 77.3962 177.169L77.4665 177.207C78.5743 177.808 79.0286 178.124 79.8961 179.053C80.1715 179.349 80.1569 179.812 79.8609 180.088C79.7173 180.217 79.5385 180.281 79.3597 180.281Z" fill="#3F85BA"/>
<path d="M98.5069 306.411C97.6453 306.411 97.2027 305.447 96.2532 301.531C96.1858 301.25 96.1359 301.042 96.1096 300.954C95.7725 299.825 95.4824 298.674 95.1981 297.56C94.8669 296.253 94.527 294.902 94.1137 293.606C93.343 291.186 92.2557 288.859 91.2065 286.605C90.0723 284.17 88.8971 281.652 88.094 278.973C86.6932 274.308 85.5062 269.466 84.3603 264.78C83.6775 261.993 82.9712 259.112 82.2297 256.31C81.4296 253.28 80.4185 250.249 79.4396 247.319C77.5171 241.557 75.5301 235.599 75.0201 229.324C74.3988 221.681 71.1311 212.578 65.8177 203.692L65.633 203.384C64.0827 200.805 61.7645 196.94 63.6929 193.734C63.5581 192.271 64.9619 191.108 66.1049 190.161C66.4859 189.844 66.8493 189.546 67.0574 189.308C68.7015 187.435 70.6358 185.712 72.9745 184.039C75.0436 182.556 76.6672 180.249 78.241 178.019C80.0375 175.469 81.8956 172.832 84.4658 171.349C84.8146 171.147 85.263 171.267 85.4681 171.615C85.6703 171.967 85.5502 172.416 85.1985 172.618C82.9096 173.939 81.2245 176.331 79.4396 178.863C77.7984 181.193 76.0986 183.605 73.8303 185.232C71.5853 186.841 69.7302 188.49 68.1593 190.278C67.875 190.601 67.4706 190.938 67.0427 191.292C66.1782 192.01 64.9942 192.992 65.1759 193.719C65.2257 193.921 65.1876 194.138 65.0704 194.311C63.3823 196.79 65.4103 200.169 66.8933 202.637L67.0779 202.945C70.9171 209.363 75.6649 219.131 76.4826 229.21C76.9778 235.309 78.9356 241.182 80.8317 246.862C81.8165 249.816 82.8364 252.87 83.6482 255.944C84.3926 258.757 85.0989 261.647 85.7847 264.44C86.9276 269.106 88.1116 273.933 89.4979 278.56C90.2716 281.136 91.4233 283.607 92.537 285.992C93.6067 288.287 94.7116 290.658 95.5117 293.167C95.9396 294.506 96.2854 295.878 96.6224 297.205C96.9009 298.304 97.1881 299.442 97.5163 300.538C97.5456 300.637 97.6042 300.872 97.6804 301.191C98.2021 303.348 98.5919 304.638 98.8381 305.025C99.0784 305.145 99.2425 305.391 99.2454 305.675C99.2484 306.08 98.923 306.411 98.5186 306.414C98.5127 306.411 98.5098 306.411 98.5069 306.411ZM98.882 305.086H98.8849H98.882Z" fill="#3F85BA"/>
<path d="M67.364 356.713C62.3056 356.713 57.4113 356.423 52.813 355.84C51.1455 355.629 49.4808 355.309 47.8718 355.002C45.9962 354.641 44.059 354.269 42.1423 354.078C41.3451 353.999 40.5216 353.882 39.701 353.736C39.3024 353.665 39.0387 353.284 39.109 352.886C39.1793 352.487 39.5603 352.223 39.9589 352.294C40.7443 352.434 41.5268 352.543 42.2888 352.619C44.2671 352.818 46.2394 353.196 48.1473 353.563C49.7329 353.867 51.3741 354.181 52.9947 354.386C62.1063 355.541 72.4166 355.535 82.8089 354.372C86.0796 354.005 89.403 353.604 92.618 353.214C95.3055 352.889 98.0867 352.552 100.824 352.238C101.228 352.188 101.589 352.481 101.636 352.883C101.683 353.284 101.393 353.648 100.991 353.695C98.2596 354.008 95.4813 354.345 92.7939 354.67C89.5759 355.06 86.2496 355.465 82.973 355.831C77.7036 356.417 72.4518 356.713 67.364 356.713Z" fill="#3F85BA"/>
<path d="M147.01 352.332C146.623 352.332 146.301 352.031 146.28 351.638C146.26 351.233 146.57 350.89 146.975 350.867C147.368 350.847 147.751 350.814 148.118 350.77L148.258 350.753C149.999 350.545 150.565 350.422 150.914 349.249C151.318 347.886 151.172 346.163 151.031 344.496C150.964 343.693 150.899 342.934 150.893 342.21C150.89 341.949 150.887 341.688 150.884 341.427C150.879 341.023 151.201 340.689 151.605 340.683C152.004 340.674 152.344 340.999 152.35 341.404C152.353 341.668 152.356 341.931 152.359 342.195C152.364 342.866 152.426 343.596 152.493 344.373C152.646 346.175 152.804 348.039 152.323 349.665C151.684 351.819 150.108 352.007 148.44 352.209L148.3 352.227C147.901 352.277 147.482 352.312 147.057 352.332C147.036 352.332 147.025 352.332 147.01 352.332Z" fill="#3F85BA"/>
<path d="M149.611 308.947C149.406 308.947 149.204 308.862 149.06 308.697C148.653 308.229 147.322 308.091 146.886 308.047C145.925 307.947 144.934 307.877 143.855 307.833C143.451 307.815 143.137 307.475 143.155 307.071C143.173 306.666 143.51 306.359 143.917 306.37C145.028 306.417 146.048 306.491 147.038 306.593C148.193 306.713 149.471 306.942 150.165 307.736C150.432 308.041 150.4 308.504 150.095 308.771C149.954 308.885 149.781 308.947 149.611 308.947Z" fill="#3F85BA"/>
<path d="M42.3592 308.046C42.072 308.046 41.8024 307.879 41.6852 307.598C41.5269 307.226 41.7027 306.795 42.0749 306.636C50.1491 303.231 59.0467 303.77 66.7545 304.541C67.6366 304.629 68.5188 304.723 69.4009 304.814C72.5368 305.142 75.7752 305.485 78.9668 305.608C81.1648 305.693 83.1167 305.669 84.9337 305.535C85.6517 305.482 86.3639 305.353 87.12 305.215C88.1692 305.025 89.2565 304.831 90.3555 304.857C90.7424 304.866 91.1263 304.878 91.5015 304.89C94.5875 304.981 97.2515 305.06 100.235 304.21C101.234 303.926 102.398 303.794 103.769 303.8C104.174 303.802 104.499 304.131 104.499 304.535C104.496 304.94 104.168 305.265 103.767 305.265C103.728 305.265 103.69 305.265 103.652 305.265C102.462 305.265 101.475 305.382 100.637 305.62C97.4362 306.528 94.6666 306.449 91.4604 306.352C91.0853 306.34 90.7072 306.329 90.3204 306.32C89.3708 306.297 88.4037 306.469 87.3838 306.657C86.6248 306.795 85.8422 306.935 85.0451 306.994C83.1724 307.132 81.1648 307.158 78.914 307.07C75.6727 306.947 72.4078 306.601 69.2485 306.27C68.3693 306.176 67.4901 306.085 66.6109 305.998C59.0819 305.244 50.4011 304.714 42.6464 307.985C42.5497 308.029 42.453 308.046 42.3592 308.046Z" fill="#3F85BA"/>
<path d="M26.1439 314.323C25.9124 314.323 25.6838 314.212 25.5431 314.01C25.335 313.711 25.379 313.301 25.6457 313.052C25.9827 312.741 26.3432 312.495 26.6919 312.257L26.8209 312.169C27.0055 312.043 27.2312 312.011 27.4305 312.07C27.5506 312.002 27.6737 311.935 27.7968 311.868C30.6572 310.297 34.2151 308.345 37.2953 308.26C37.7026 308.254 38.0367 308.568 38.0485 308.972C38.0602 309.376 37.7407 309.713 37.3363 309.725C34.6107 309.798 31.2257 311.657 28.5031 313.151C27.7851 313.544 27.1081 313.916 26.4751 314.241C26.3696 314.297 26.2553 314.323 26.1439 314.323Z" fill="#3F85BA"/>
<path d="M25.1359 305.948C24.9454 305.948 24.7578 305.874 24.6142 305.728C24.33 305.441 24.3358 304.975 24.623 304.69C28.8491 300.538 38.3886 301.294 43.3591 302.396C43.7548 302.484 44.0039 302.873 43.9159 303.269C43.828 303.665 43.4382 303.914 43.0426 303.826C40.1382 303.181 36.6947 302.885 33.8343 303.038C30.0742 303.237 27.246 304.169 25.6517 305.734C25.5052 305.877 25.3205 305.948 25.1359 305.948Z" fill="#3F85BA"/>
<path d="M43.1983 236.211C42.7968 236.211 42.4715 235.888 42.4656 235.487C42.4304 232.785 40.9915 230.112 39.6023 227.524C38.8139 226.056 37.9963 224.538 37.4512 223.031C37.0555 221.938 36.6657 220.848 36.2759 219.758C34.9102 215.933 33.4976 211.98 31.83 208.158C29.5236 202.874 26.6749 198.616 21.9916 193.458C21.4641 192.874 20.8457 192.106 20.1306 191.218C17.8066 188.335 14.2956 183.974 11.6198 183.692C11.2183 183.651 10.9252 183.288 10.9692 182.886C11.0132 182.485 11.3707 182.192 11.7752 182.236C15.0576 182.582 18.6506 187.042 21.2736 190.301C21.974 191.172 22.5807 191.922 23.0789 192.473C27.8765 197.757 30.8014 202.132 33.1752 207.572C34.8633 211.437 36.2847 215.417 37.6592 219.265C38.049 220.353 38.4359 221.443 38.8315 222.533C39.3415 223.94 40.0976 225.344 40.8977 226.833C42.3718 229.573 43.8958 232.41 43.9368 235.469C43.9427 235.874 43.6174 236.205 43.2129 236.211C43.2071 236.211 43.2012 236.211 43.1983 236.211Z" fill="#3F85BA"/>
<path d="M9.17388 251.334C8.9658 251.334 8.75772 251.246 8.61118 251.07C8.35035 250.76 8.39138 250.296 8.70203 250.039C11.2635 247.893 14.3993 245.977 17.4297 244.119C22.3387 241.112 27.4117 238.005 30.4216 233.791C30.656 233.462 31.1132 233.383 31.4444 233.621C31.7726 233.855 31.8488 234.312 31.6144 234.644C28.4316 239.101 23.2296 242.29 18.1946 245.37C15.0705 247.281 12.1222 249.089 9.64279 251.164C9.50505 251.278 9.338 251.334 9.17388 251.334Z" fill="#3F85BA"/>
<path d="M49.667 306.572C49.3916 306.572 49.1278 306.417 49.0047 306.15C47.5569 303.067 47.6009 299.436 47.6448 295.922C47.6624 294.483 47.68 293.123 47.595 291.834C47.2228 286.151 46.5663 280.416 45.9831 275.486C45.863 274.469 45.7399 273.449 45.6168 272.432C44.4474 262.691 43.24 252.621 43.3074 242.615C43.3103 242.211 43.6444 241.871 44.0459 241.888C44.4504 241.891 44.7757 242.222 44.7727 242.627C44.7053 252.539 45.9099 262.562 47.0734 272.259C47.1964 273.279 47.3166 274.296 47.4397 275.316C48.0258 280.263 48.6853 286.022 49.0604 291.74C49.1483 293.088 49.1307 294.474 49.1131 295.942C49.0721 299.289 49.0281 302.751 50.3323 305.529C50.5052 305.895 50.347 306.332 49.9806 306.505C49.8781 306.549 49.7725 306.572 49.667 306.572Z" fill="#3F85BA"/>
<path d="M61.6779 386.185C61.2939 386.185 60.91 386.179 60.5261 386.165C57.7566 386.056 54.9606 385.643 52.2556 385.241C48.5307 384.687 44.6768 384.116 40.9284 384.368C40.0052 384.43 38.4607 384.535 37.4291 383.676C37.1185 383.418 37.0774 382.955 37.3353 382.645C37.5932 382.334 38.0563 382.293 38.3669 382.551C38.9472 383.035 40.0785 382.958 40.8287 382.909C44.7325 382.648 48.6655 383.231 52.4666 383.794C55.1336 384.189 57.8884 384.6 60.5788 384.702C61.9592 384.755 63.3777 384.69 64.7492 384.629C66.1853 384.564 67.6682 384.497 69.1365 384.561C71.5573 384.667 74.0074 384.585 75.5108 383.24C77.1286 381.795 77.5829 379.04 77.9814 376.61C78.1368 375.664 78.2833 374.77 78.4914 373.964C79.1478 371.411 79.0922 370.506 77.4773 369.826C75.9387 369.178 74.1041 369.043 72.2021 368.95C69.8428 368.835 67.4367 368.976 65.1127 369.108C63.9345 369.175 62.7183 369.246 61.5137 369.284C61.1152 369.304 60.7723 368.979 60.7576 368.574C60.7459 368.17 61.0624 367.833 61.4668 367.818C62.6538 367.78 63.8612 367.713 65.0277 367.645C67.3927 367.508 69.834 367.367 72.2724 367.484C74.3122 367.581 76.2875 367.73 78.0459 368.472C81.0851 369.753 80.4344 372.288 79.9128 374.324C79.7223 375.069 79.5787 375.93 79.4292 376.845C78.9896 379.515 78.4943 382.542 76.4897 384.33C74.5935 386.021 71.8035 386.144 69.072 386.021C67.6712 385.959 66.2205 386.024 64.8166 386.088C63.7909 386.138 62.7388 386.185 61.6779 386.185Z" fill="#3F85BA"/>
<path d="M55.3197 368.873C55.2553 368.873 55.1908 368.864 55.1234 368.847C52.3626 368.085 49.3059 368.19 46.3488 368.293C44.0951 368.372 41.7622 368.451 39.5232 368.158C39.1217 368.105 38.8403 367.739 38.8931 367.337C38.9458 366.936 39.3092 366.651 39.7137 366.707C41.8326 366.986 44.101 366.906 46.2961 366.83C49.3616 366.725 52.5326 366.613 55.5102 367.434C55.9 367.542 56.1286 367.944 56.0231 368.337C55.9381 368.659 55.6421 368.873 55.3197 368.873Z" fill="#3F85BA"/>
<path d="M188.627 370.52C188.293 370.52 187.988 370.288 187.912 369.948C187.824 369.553 188.073 369.163 188.466 369.072C191.403 368.413 194.436 368.251 197.37 368.093C198.12 368.052 198.87 368.011 199.62 367.964C200.016 367.941 200.374 368.245 200.4 368.647C200.426 369.051 200.119 369.4 199.717 369.427C198.964 369.476 198.208 369.514 197.452 369.556C194.58 369.711 191.608 369.869 188.791 370.502C188.736 370.514 188.68 370.52 188.627 370.52Z" fill="#3F85BA"/>
<path d="M185.424 388.5C183.703 388.5 181.977 388.412 180.257 388.154C178.701 387.92 176.901 387.568 175.368 386.739C173.701 385.836 172.575 384.506 171.922 382.674C170.761 379.415 169.7 375.702 170.656 372.847C170.717 372.66 170.712 372.37 170.706 372.091C170.691 371.438 170.668 370.218 172.004 369.899C175.111 369.155 178.58 369.128 181.936 369.102C182.971 369.093 183.947 369.087 184.908 369.058C185.309 369.046 185.649 369.366 185.661 369.77C185.673 370.175 185.353 370.512 184.949 370.523C183.973 370.553 182.988 370.558 181.945 370.567C178.671 370.594 175.289 370.62 172.341 371.326C172.194 371.361 172.153 371.37 172.168 372.062C172.177 372.449 172.186 372.885 172.042 373.313C171.122 376.071 172.593 380.198 173.299 382.182C174.381 385.212 176.845 386.162 180.474 386.707C183.856 387.217 187.352 387.029 190.731 386.847C191.358 386.812 191.988 386.78 192.616 386.751C194.063 386.68 195.76 386.774 197.563 386.874C199.119 386.959 200.725 387.044 202.237 387.029C202.636 387.026 202.973 387.349 202.979 387.753C202.982 388.157 202.659 388.489 202.255 388.494C200.696 388.509 199.063 388.421 197.487 388.336C195.725 388.239 194.063 388.152 192.689 388.216C192.065 388.245 191.438 388.28 190.813 388.313C189.037 388.404 187.235 388.5 185.424 388.5Z" fill="#3F85BA"/>
<path d="M182.086 77.1584C181.969 77.1584 181.849 77.1291 181.738 77.0676C181.383 76.8742 181.251 76.4287 181.445 76.0741C181.999 75.0571 182.673 74.1017 183.323 73.1756C184.29 71.8011 185.205 70.4998 185.788 68.9935C186.626 66.8218 187.101 64.3278 187.561 61.9158C187.631 61.5436 187.702 61.1772 187.772 60.8168C187.848 60.4182 188.235 60.1603 188.631 60.2365C189.029 60.3127 189.287 60.6995 189.211 61.0952C189.141 61.4557 189.07 61.822 189 62.1883C188.528 64.6648 188.042 67.2233 187.157 69.5181C186.509 71.1944 185.501 72.6275 184.525 74.0167C183.868 74.9487 183.25 75.8308 182.734 76.7745C182.599 77.0207 182.347 77.1584 182.086 77.1584Z" fill="#693F21"/>
<path d="M146.084 49.419C145.897 49.419 145.706 49.3457 145.562 49.2021C145.278 48.9149 145.278 48.4518 145.565 48.1646C147.042 46.6993 146.729 41.0459 146.157 37.6023C146.09 37.2038 146.363 36.8257 146.761 36.7583C147.157 36.6909 147.538 36.9634 147.605 37.362C147.863 38.9182 149.024 46.796 146.597 49.2021C146.456 49.3486 146.272 49.419 146.084 49.419Z" fill="#693F21"/>
<path d="M189.004 193.122C189.001 193.122 188.998 193.122 188.995 193.122C188.591 193.116 188.266 192.785 188.272 192.38C188.307 189.508 192.732 184.054 194.634 181.841C197.679 178.298 201.624 174.468 203.567 173.899C204.531 173.618 204.98 174.113 205.129 174.339C205.352 174.676 205.255 175.13 204.918 175.353C204.637 175.537 204.273 175.502 204.03 175.288C203.602 175.373 202.304 176.1 199.842 178.451C194.089 183.946 189.76 190.346 189.737 192.398C189.731 192.799 189.406 193.122 189.004 193.122Z" fill="#3F85BA"/>
<path d="M146.733 308.067C146.719 308.067 146.701 308.067 146.686 308.067C146.282 308.041 145.977 307.692 146.004 307.288C146.132 305.292 146.818 303.296 147.484 301.365C147.791 300.471 148.081 299.624 148.307 298.806C148.454 298.279 148.644 297.69 148.849 297.068C149.18 296.051 149.558 294.903 149.77 293.868C149.852 293.472 150.238 293.217 150.634 293.297C151.03 293.379 151.285 293.766 151.206 294.161C150.977 295.278 150.587 296.471 150.241 297.526C150.042 298.132 149.855 298.704 149.72 299.199C149.482 300.061 149.183 300.925 148.87 301.843C148.237 303.683 147.583 305.585 147.466 307.385C147.44 307.769 147.117 308.067 146.733 308.067Z" fill="#3F85BA"/>
<path d="M106.304 151.132C106.204 151.132 106.102 151.112 106.005 151.068C101.565 149.087 100.302 143.029 99.2877 138.164C99.0298 136.924 98.7866 135.752 98.5111 134.756C98.4027 134.366 98.6342 133.961 99.024 133.856C99.4138 133.747 99.8182 133.979 99.9237 134.369C100.211 135.409 100.46 136.602 100.721 137.865C101.667 142.405 102.843 148.052 106.6 149.732C106.969 149.896 107.136 150.329 106.969 150.699C106.852 150.971 106.582 151.132 106.304 151.132Z" fill="#AB5F40"/>
<path d="M123.203 460.611C123.2 460.611 123.2 460.611 123.198 460.611C122.793 460.608 122.468 460.277 122.471 459.872C122.477 459.222 122.477 458.568 122.477 457.912C122.482 453.709 122.488 449.363 123.535 445.529C123.64 445.14 124.045 444.911 124.434 445.016C124.824 445.122 125.056 445.526 124.947 445.916C123.954 449.562 123.945 453.809 123.942 457.917C123.942 458.577 123.939 459.233 123.936 459.887C123.933 460.285 123.605 460.611 123.203 460.611Z" fill="#C0A78A"/>
<path d="M126.355 441.733C126.217 441.733 126.076 441.695 125.95 441.613C125.613 441.39 125.519 440.936 125.742 440.599C130.83 432.886 133.215 423.566 132.456 414.355C132.424 413.95 132.723 413.599 133.127 413.563C133.529 413.528 133.884 413.83 133.919 414.234C134.704 423.771 132.237 433.419 126.97 441.405C126.826 441.616 126.592 441.733 126.355 441.733Z" fill="#C0A78A"/>
<path d="M133.532 412.927C133.133 412.927 132.808 412.611 132.799 412.209L132.19 383.779C132.181 383.374 132.503 383.04 132.908 383.031C132.914 383.031 132.919 383.031 132.922 383.031C133.321 383.031 133.646 383.348 133.655 383.749L134.265 412.18C134.273 412.585 133.951 412.919 133.547 412.927C133.544 412.927 133.538 412.927 133.532 412.927Z" fill="#C0A78A"/>
<path d="M123.42 434.571C123.013 434.571 122.688 434.242 122.688 433.835L122.805 380.37C122.805 379.965 123.133 379.64 123.537 379.64C123.537 379.64 123.537 379.64 123.54 379.64C123.945 379.64 124.273 379.968 124.27 380.376L124.153 433.841C124.153 434.245 123.825 434.571 123.42 434.571Z" fill="#C0A78A"/>
</svg>
