<svg width="217" height="453" viewBox="0 0 217 453" fill="none" xmlns="http://www.w3.org/2000/svg">
<path d="M142.919 273.912C142.686 275.904 143.366 278.007 143.271 279.996C143.158 282.37 142.686 284.709 142.361 287.058C141.835 290.83 142.626 294.534 142.508 298.335C142.482 299.21 141.901 300.419 141.832 301.414C135.895 301.109 129.671 301.754 123.682 301.607C118.071 301.466 112.534 299.901 106.966 299.299C105.354 299.124 103.484 298.865 101.685 298.876C101.95 290.606 100.767 282.39 100.149 274.163C99.5501 266.209 99.7688 258.166 98.7012 250.226C97.7947 243.461 96.1631 236.819 95.1904 230.065C94.0681 222.273 93.3746 214.422 92.1574 206.641C90.779 197.847 88.7847 189.13 88.1747 180.23C87.884 175.974 87.9531 171.971 87.0063 167.767C86.074 163.611 84.7646 159.545 84.0625 155.344C83.4668 151.784 82.9718 148.236 82.5488 144.682L82.8682 144.645C83.3028 149.07 90.3185 154.65 93.507 156.647C96.5228 158.532 99.8926 159.678 103.259 160.757C106.413 161.764 109.444 162.316 112.551 163.226C117.369 164.639 122.171 163.283 126.632 161.358C128.416 160.587 130.537 160.046 132.197 159.113C134.402 157.876 136.83 155.433 138.321 153.393C138.813 152.716 139.006 151.565 139.679 151.062C139.544 153.183 139.466 155.309 139.219 157.226C138.963 159.203 139.262 161.643 138.807 163.614C138.099 164.006 137.593 164.567 137.573 165.407C137.495 168.46 137.976 171.493 137.886 174.564C137.743 179.395 138.206 183.703 138.712 188.379C139.308 193.916 138.669 199.738 138.396 205.283C137.679 219.947 137.843 234.396 139.463 248.977C140.022 254.01 140.016 259.087 140.614 264.117C141.023 267.524 141.987 270.689 142.919 273.912Z" fill="white"/>
<path d="M155.846 302.552C156.663 303.191 156.485 304.472 156.588 305.378C156.744 306.705 156.959 307.994 157.014 309.332C157.123 312.063 156.948 314.803 157.086 317.533C157.256 320.854 156.574 324.172 156.821 327.49C156.965 329.418 157.584 332.103 156.157 333.718C155.964 333.936 155.734 334.135 155.457 334.31C153.581 335.505 151.123 335.338 148.994 335.343L148.867 335.346C148.821 331.953 148.631 328.564 148.401 325.179C147.906 317.879 147.193 310.581 147.187 303.257C147.184 302.932 147.069 302.673 146.879 302.463C149.512 302.345 153.495 300.869 155.797 302.518C155.817 302.526 155.831 302.541 155.846 302.552Z" fill="white"/>
<path d="M147.746 288.619C147.4 290.27 146.687 292.095 146.315 293.439C145.61 295.988 144.269 298.846 144.082 301.58C143.34 301.505 142.589 301.453 141.832 301.413C141.901 300.42 142.482 299.208 142.508 298.334C142.626 294.532 141.835 290.829 142.362 287.056C142.687 284.711 143.159 282.368 143.271 279.994C143.366 278.006 142.687 275.902 142.92 273.911C143.251 275.047 143.573 276.187 143.869 277.347C144.845 281.2 145.964 285.07 147.746 288.619Z" fill="#1A5F92"/>
<path d="M193.381 334.802C188.955 334.557 184.627 333.705 180.152 333.7C178.245 333.697 159.505 334.338 156.158 333.717C157.586 332.105 156.967 329.418 156.823 327.49C156.576 324.174 157.258 320.854 157.088 317.533C156.947 314.802 157.125 312.062 157.016 309.331C156.961 307.993 156.745 306.704 156.59 305.377C156.484 304.471 156.662 303.19 155.848 302.552C157.114 302.647 159.427 302.209 160.075 302.229C163.033 304.028 166.374 305.363 170.236 306.327C177.862 308.232 184.978 305.616 191.024 300.77C194.121 298.29 196.371 295.3 198.486 292.034V292.031C203.226 290.526 216.267 289.009 214.256 297.127C214.008 298.129 213.269 299.11 213.787 300.085C214.1 300.673 215.018 301.003 215.485 301.426C216.756 302.586 217.289 305.055 216.846 306.649C216.276 308.704 214.221 310.025 213.004 311.659C211.407 313.809 213.194 316.741 212.578 319.121C212.04 321.199 210.716 322.937 209.254 324.451C207.873 325.884 207.588 327.236 207.303 329.179C207.041 330.957 206.123 332.338 204.748 333.481C202.264 335.533 198.771 334.868 195.761 334.874C194.964 334.874 194.172 334.848 193.381 334.802Z" fill="#F3B39A"/>
<path d="M160.077 302.23C159.427 302.21 157.113 302.65 155.85 302.552C155.835 302.541 155.818 302.529 155.801 302.515C153.499 300.866 149.516 302.342 146.883 302.46C146.339 301.867 145.182 301.695 144.302 301.602C144.227 301.594 144.155 301.588 144.08 301.579C144.267 298.846 145.608 295.985 146.313 293.439C146.684 292.092 147.395 290.27 147.743 288.618C148.207 289.545 148.719 290.449 149.283 291.326C152.368 296.106 155.827 299.649 160.077 302.23Z" fill="#1A5F92"/>
<path d="M139.524 63.9898C138.946 62.5912 138.796 60.8215 138.491 59.3654C138.166 57.8287 137.841 56.1337 137.973 54.5568C138.1 53.0719 139.245 51.2273 140.745 50.8446C141.965 50.5309 143.355 50.7842 144.442 51.4029C145.214 51.846 145.743 52.5597 146.198 53.3079C146.652 54.0561 147.188 54.7726 147.524 55.5784C148.192 57.1697 148.592 58.8503 149.05 60.5107C149.757 63.0488 150.319 65.584 150.975 68.1221C151.602 70.5566 152.284 73.0314 152.488 75.5465C152.592 76.8415 152.707 78.1249 152.86 79.4141C152.937 80.0673 152.874 81.7939 153.683 82.0472C155.219 82.5277 155.19 72.8875 155.136 71.8545C155.035 69.9351 154.52 68.1049 154.396 66.1682C154.33 65.1265 154.422 64.0704 154.255 63.0488C153.91 60.9136 153.59 58.7582 153.496 56.6086C153.444 55.4978 153.044 54.3179 152.811 53.2302C152.589 52.1683 152.367 51.1065 152.178 50.0417C151.861 48.2604 151.421 45.9669 152.172 44.2375C153.225 41.8173 156.954 42.177 158.503 43.8461C159.239 44.6403 159.76 45.5842 160.445 46.4101C161.026 47.1094 161.495 47.5698 161.847 48.4619C162.129 49.1727 162.388 49.9352 162.612 50.7093C162.796 49.9381 163.441 49.1813 164.12 48.9223C165.133 48.5338 166.362 48.6345 167.377 48.9683C169.239 49.5813 170.008 51.3798 170.583 53.0518C171.308 55.1582 172.655 56.9884 173.314 59.1208C173.947 61.1697 174.753 63.1697 175.196 65.2761C175.772 68.0185 176.036 70.8933 176.292 73.6789C176.405 74.9192 176.635 76.2113 176.799 77.5033L176.894 77.4918C177.113 78.9911 178.287 80.9882 178.669 82.1306C179.015 83.1666 179.285 84.2054 179.492 85.2558C179.947 87.5666 180.1 89.9147 180.097 92.309C180.094 103.512 178.252 115.345 173.599 125.592C172.551 127.9 172.221 130.85 171.982 133.35C171.754 135.736 171.757 138.133 171.941 140.516C172.1 142.645 172.402 144.766 172.802 146.864C172.056 146.216 170.603 146.864 169.823 147.221C168.787 147.695 167.875 148.024 166.764 148.323C164.526 148.93 162.258 149.428 159.985 149.891C157.265 150.447 154.644 151.339 151.855 151.664C148.937 152.003 145.996 152.009 143.061 152.018C142.681 151.954 142.391 152.141 142.169 152.51L142.048 152.484C142.442 151.741 141.993 150.654 141.861 149.929C141.64 148.714 141.68 147.431 141.516 146.202C141.392 145.284 141.24 144.369 141.061 143.46C140.759 141.911 140.385 140.378 139.979 138.85C139.329 136.421 138.595 134.012 137.913 131.589C137.231 129.166 136.606 126.732 136.175 124.251C135.254 118.942 135.021 113.552 135.021 108.174C135.021 107.077 135.032 105.975 135.047 104.879C135.101 101.063 135.358 97.3075 135.245 93.483C135.107 88.7838 135.404 84.0558 134.92 79.3681C134.799 78.217 134.572 77.0659 134.382 75.912C134.255 75.1091 134.143 74.3034 134.109 73.4947C134.077 72.784 134.255 72.148 134.175 71.4257C134.074 70.5077 133.939 69.5926 133.769 68.6833C133.432 66.8617 133.145 65.1466 133.919 63.3768C134.609 61.8028 135.999 61.2071 137.527 62.1222C138.339 62.5855 138.986 63.2387 139.524 63.9898Z" fill="#F3B39A"/>
<path d="M173.099 147.243C173.571 148.271 173.566 149.433 173.64 150.538C173.712 151.609 174.121 152.619 174.17 153.678L173.695 153.741C173.635 153.741 173.574 153.747 173.511 153.752C170.035 156.544 165.298 155.868 161.531 157.85C160.397 158.446 159.376 158.95 158.118 159.329C155.272 160.193 152.337 160.719 149.416 161.246C147.166 161.652 144.91 162.037 142.68 162.541C142.423 162.598 142.118 162.653 141.79 162.714C141.724 160.544 141.085 154.311 142.179 152.492C142.4 152.127 142.691 151.94 143.071 152C146.003 151.991 148.947 151.986 151.865 151.646C154.654 151.321 157.275 150.432 159.994 149.873C162.268 149.41 164.535 148.909 166.774 148.305C167.885 148.003 168.797 147.678 169.833 147.203C170.61 146.846 172.063 146.199 172.812 146.846C172.924 146.947 173.022 147.076 173.099 147.243Z" fill="white"/>
<path d="M39.5128 346.542C35.1675 345.823 31.1186 344.24 26.9374 342.663C20.0425 340.068 13.0929 337.892 7.3174 333.009C4.07139 330.263 3.01241 326.079 1.99083 322.14C0.341927 315.771 0.152001 309.406 0.0052399 302.871C-0.0494358 300.459 0.341927 298.033 0.336172 295.576C0.321784 289.495 0.281496 283.418 0.249842 277.34C0.189411 265.058 0.180778 252.773 0.56063 240.5C0.641205 237.913 1.2599 235.415 1.40379 232.86C1.95918 222.866 2.85413 212.892 3.32607 202.895C3.53614 198.46 3.67427 194.034 3.80089 189.603C3.916 185.424 4.17786 181.068 6.01094 177.234C8.34185 172.354 12.5116 168.458 16.9173 165.439C21.9273 162.006 26.9259 158.532 32.2352 155.568C34.8653 154.098 37.5732 152.751 40.3818 151.655C43.0437 150.616 45.8293 149.842 48.494 148.771C51.2105 147.678 53.976 146.691 56.6177 145.382C58.1831 144.605 59.4809 143.586 61.0752 142.866C62.9198 142.032 64.701 141.065 66.4794 140.095C67.2967 139.646 68.3096 139.189 69.1183 138.582C68.6693 139.546 68.278 140.533 67.9183 141.514C67.2046 143.456 66.6924 145.272 66.3787 147.318C66.0046 149.738 65.7888 152.184 65.291 154.587C64.3931 158.898 61.8061 162.443 64.796 166.492C67.3456 169.94 71.9959 172.455 75.7196 174.475C76.37 174.826 76.7614 175.062 77.1671 175.407C75.6506 177.557 74.0938 179.692 72.0736 181.137C69.9816 182.633 68.0823 184.273 66.3845 186.201C65.501 187.206 62.8967 188.639 63.2967 190.227C61.3025 193.154 63.7169 196.921 65.2449 199.479C69.7168 206.955 73.665 216.158 74.3815 224.955C75.1268 234.149 79.1038 242.494 81.4376 251.329C83.3858 258.704 85.003 266.272 87.19 273.556C88.6951 278.566 91.5066 282.92 93.0979 287.913C93.8547 290.292 94.3439 292.747 95.0605 295.141C95.19 295.576 95.8749 298.767 96.4418 299.72C97.1554 299.61 97.8748 299.455 98.6202 299.242C99.5698 298.971 100.612 298.871 101.685 298.868C103.483 298.859 105.354 299.115 106.965 299.291C112.534 299.892 118.073 301.461 123.682 301.599C129.67 301.746 135.895 301.101 141.831 301.406C142.588 301.443 143.339 301.498 144.082 301.573C144.156 301.579 144.228 301.587 144.303 301.596C145.181 301.688 146.341 301.861 146.884 302.453C147.074 302.664 147.189 302.923 147.192 303.248C147.201 310.571 147.912 317.869 148.407 325.17C148.637 328.554 148.827 331.941 148.873 335.337C148.876 335.506 148.879 335.682 148.882 335.852C148.902 338.05 149.506 340.842 148.873 342.977C148.366 344.683 147.215 344.775 145.523 344.98C145.273 345.011 145.023 345.034 144.772 345.052C141.192 345.325 137.656 344.502 134.082 344.499C126.522 344.488 118.749 344.606 111.219 345.213C101.25 346.016 91.3454 347.408 81.3944 348.522C71.7542 349.601 61.5471 349.751 51.9472 348.534C48.4221 348.085 44.9804 347.155 41.4552 346.801C40.7991 346.738 40.1545 346.649 39.5128 346.542Z" fill="#1A5F92"/>
<path d="M81.4727 130.047C81.5619 130.717 81.2741 131.969 81.3288 132.588C81.677 136.639 82.0684 140.665 82.5461 144.683C82.9691 148.236 83.464 151.785 84.0597 155.344C84.7619 159.546 86.0712 163.615 87.0036 167.767C87.9503 171.969 87.8784 175.974 88.1719 180.23C88.782 189.131 90.7762 197.848 92.1546 206.642C93.3719 214.423 94.0654 222.273 95.1877 230.066C96.1603 236.82 97.792 243.461 98.6984 250.227C99.7632 258.166 99.5445 266.209 100.146 274.163C100.765 282.391 101.947 290.609 101.683 298.877C100.609 298.883 99.5646 298.983 98.6179 299.251C97.8754 299.464 97.1531 299.616 96.4395 299.729C95.8726 298.779 95.1877 295.588 95.0582 295.15C94.3445 292.759 93.8553 290.304 93.0956 287.922C91.5043 282.929 88.6928 278.575 87.1878 273.565C85.0007 266.279 83.3863 258.71 81.4353 251.338C79.1015 242.503 75.1246 234.155 74.3792 224.964C73.6656 216.164 69.7145 206.961 65.2426 199.488C63.7146 196.93 61.3002 193.163 63.2944 190.236C62.8944 188.648 65.4987 187.215 66.3822 186.21C68.08 184.279 69.9793 182.642 72.0713 181.146C74.0915 179.698 75.6483 177.566 77.1648 175.416C76.7619 175.071 76.3677 174.835 75.7174 174.484C71.9936 172.461 67.3433 169.949 64.7937 166.501C61.8038 162.452 64.3908 158.907 65.2887 154.596C65.7865 152.193 66.0023 149.75 66.3764 147.327C66.693 145.281 67.2023 143.465 67.916 141.523C68.2757 140.542 68.6699 139.552 69.116 138.591C70.2757 136.084 71.8095 133.759 74.1433 132.199C75.0814 131.572 80.7447 127.923 81.4238 129.845C81.4497 129.9 81.4641 129.969 81.4727 130.047Z" fill="#1A5F92"/>
<path d="M141.796 163.008C141.796 163.126 141.794 163.221 141.788 163.296C141.566 163.207 141.716 163.152 141.796 163.008Z" fill="#229F49"/>
<path d="M141.797 163.008C141.716 163.152 141.567 163.206 141.788 163.296C141.794 163.221 141.797 163.126 141.797 163.008ZM138.813 163.609C139.679 163.129 140.845 162.896 141.791 162.717C142.122 162.657 142.427 162.602 142.68 162.544C144.911 162.041 147.167 161.655 149.417 161.25C152.338 160.723 155.273 160.199 158.119 159.333C159.377 158.953 160.398 158.45 161.532 157.854C165.302 155.871 170.038 156.547 173.512 153.756C173.578 153.747 173.636 153.745 173.696 153.745L174.171 153.681C174.122 152.622 173.713 151.612 173.641 150.542C173.567 149.437 173.572 148.274 173.1 147.247C173.023 147.08 172.925 146.95 172.81 146.855C172.407 144.758 172.108 142.637 171.949 140.507L172.038 140.499C173.109 140.896 174.174 141.653 175.106 142.101C179.342 144.15 184.384 144.219 188.579 146.392C191.661 147.986 195.172 150.611 197.822 152.901C203.232 157.569 206.027 162.389 207.583 169.396C208.516 173.606 209.088 177.888 209.224 182.196C209.69 196.95 209.805 211.712 209.776 226.472C209.745 240.803 209.701 254.742 207.169 268.889C206.458 272.857 206.355 276.955 205.241 280.848C204.194 284.497 201.382 287.444 199.394 290.618C199.094 291.096 198.798 291.568 198.493 292.031V292.034C196.378 295.3 194.125 298.29 191.031 300.771C184.982 305.617 177.869 308.232 170.243 306.327C166.381 305.363 163.04 304.025 160.082 302.23C155.831 299.648 152.372 296.106 149.29 291.326C148.724 290.451 148.214 289.545 147.751 288.618C145.97 285.067 144.85 281.199 143.875 277.349C143.578 276.189 143.256 275.047 142.925 273.913C141.993 270.687 141.032 267.525 140.626 264.112C140.03 259.082 140.033 254.003 139.475 248.972C137.855 234.391 137.688 219.942 138.407 205.278C138.681 199.733 139.319 193.914 138.724 188.374C138.217 183.698 137.754 179.39 137.898 174.559C137.99 171.488 137.509 168.455 137.584 165.402C137.599 164.562 138.105 164.001 138.813 163.609Z" fill="#1A5F92"/>
<path d="M142.057 152.469L142.177 152.495C141.084 154.314 141.726 160.547 141.789 162.717C140.842 162.898 139.68 163.128 138.811 163.609C139.265 161.638 138.966 159.197 139.222 157.22C139.47 155.304 139.547 153.177 139.682 151.056C139.852 148.354 140.117 145.667 140.952 143.462L141.07 143.439C141.248 144.349 141.4 145.264 141.524 146.182C141.688 147.41 141.648 148.691 141.87 149.908C142.002 150.639 142.451 151.727 142.057 152.469Z" fill="#1A5F92"/>
<path d="M123.172 69.2672C124.24 69.7535 125.495 70.6571 125.365 71.9952C125.259 73.0628 123.665 73.7793 122.715 73.9002C121.466 74.0585 120.194 73.7966 118.98 73.5348C117.958 73.316 117.032 73.1175 115.973 73.152C114.856 73.1866 113.748 73.3535 112.634 73.3937C110.678 73.4599 108.678 73.3765 106.824 72.683C105.86 72.3204 104.81 72.1506 104.439 71.0283C103.515 68.2255 109.075 67.9607 110.609 67.9434C111.771 67.9319 112.934 67.6902 114.099 67.7794C114.568 67.8168 114.971 67.9895 115.446 68.0211C116.065 68.0643 116.686 68.0672 117.305 68.1305C118.436 68.2485 119.581 68.5909 120.709 68.6485C121.59 68.6945 122.349 68.8931 123.172 69.2672Z" fill="#8C542C"/>
<path d="M78.7386 66.7288C78.8796 66.8813 79.012 67.0338 79.1271 67.1863C79.7458 67.9978 79.9386 68.9906 80.4508 69.8338C81.0033 70.746 81.8551 71.4683 82.4134 72.4151C82.4134 72.4381 82.4163 72.464 82.422 72.4841C82.4422 72.7057 82.4681 72.9244 82.4997 73.1431C82.7213 74.6798 83.34 76.1129 83.7227 77.6093C84.0709 78.9733 83.7861 79.9862 83.7889 81.3387C83.7918 82.0265 83.8148 82.7171 83.881 83.402C83.9184 83.8337 83.9012 85.5574 84.3443 85.7905C85.035 86.1473 85.5242 84.1732 85.6105 83.7042C85.9184 82.0322 86.9198 80.7862 87.3831 79.2035C87.8637 77.5488 87.7774 75.8021 88.0335 74.1071C88.2666 72.5561 88.7759 71.1431 89.3543 69.6985C89.8752 68.4065 90.6522 67.2525 91.1817 65.9691C91.3112 65.6525 91.4205 65.3274 91.5126 64.9907C91.9414 65.382 92.609 65.5576 93.1299 65.7245C93.8723 65.9605 94.6406 66.372 95.432 66.4756C96.8852 66.6626 97.996 66.8381 99.3255 66.2223C100.672 65.5979 102.14 65.4482 103.438 64.6425C104.22 64.1562 105.135 63.9518 105.944 63.5202C106.655 63.1461 107.3 62.6483 107.927 62.1447C109.121 61.1893 109.866 60.0641 110.836 58.9562C111.285 58.444 111.93 58.1044 112.298 57.5634C112.721 56.9505 112.781 56.1044 113.049 55.4195C113.394 54.5275 113.915 53.7591 114.235 52.8613C114.508 52.093 114.882 51.3534 115.184 50.5908C115.8 49.0369 116.356 47.457 116.917 45.8829C118.045 42.729 119.181 39.5348 120.85 36.614C122.091 34.4442 123.691 32.4327 125.74 30.9737C127.892 29.437 131.055 28.8385 132.263 31.8054C133.081 33.8082 132.994 36.2025 132.706 38.3089C132.24 41.7103 132.445 45.1319 131.765 48.5016C131.21 51.2469 130.094 53.8052 129.435 56.5073C128.833 58.985 129.325 61.6324 128.698 64.0468C128.142 66.1964 128.281 68.5791 129.127 70.6683C129.835 72.4208 132.188 75.5776 134.142 75.9345L134.396 75.8942C134.583 77.0481 134.813 78.1992 134.934 79.3502C135.417 84.038 135.121 88.766 135.259 93.4652C135.371 97.2897 135.118 101.045 135.06 104.861C135.046 105.957 135.035 107.059 135.035 108.156C135.035 113.534 135.265 118.924 136.188 124.233C136.62 126.714 137.245 129.148 137.927 131.571C136.718 132.63 135.679 133.712 134.235 134.504C132.721 135.335 131.095 135.934 129.492 136.555C126.427 137.747 123.187 138.331 119.907 137.873C117.792 137.58 116.048 136.8 114.102 135.954C112.859 135.416 111.61 134.918 110.43 134.253C108.868 133.367 107.599 132.072 106.042 131.232C104.413 130.357 103.141 128.956 101.823 127.675C99.6248 125.54 97.8895 123.108 95.527 121.183C92.8392 118.99 90.7529 115.485 89.0177 112.533C88.8968 112.325 88.7788 112.118 88.6666 111.911C87.7687 110.285 87.0493 108.599 86.235 106.933C84.3645 103.103 83.8033 98.3832 83.1386 94.2019C82.7789 91.9343 81.5041 89.5315 79.3573 88.5473C77.4782 87.6869 75.153 87.4451 73.4811 86.1732C70.2092 83.6869 68.8308 79.0654 68.3617 75.1517C68.025 72.3316 67.8668 68.9964 69.4552 66.4899C70.4164 64.9763 72.2955 64.0267 74.1027 64.0382C75.0494 64.0468 76.0278 64.3231 76.7703 64.9302C77.3861 65.4482 78.1487 66.0842 78.7386 66.7288ZM125.363 71.9949C125.492 70.6568 124.237 69.7532 123.17 69.2669C122.35 68.8928 121.59 68.6914 120.707 68.6453C119.579 68.5878 118.433 68.2453 117.302 68.1273C116.684 68.0612 116.062 68.0611 115.443 68.018C114.969 67.9835 114.569 67.8137 114.097 67.7763C112.931 67.6871 111.769 67.9288 110.606 67.9403C109.072 67.9576 103.512 68.2223 104.436 71.0251C104.807 72.1503 105.855 72.3172 106.822 72.6798C108.675 73.3733 110.675 73.4539 112.632 73.3906C113.745 73.3532 114.853 73.1834 115.97 73.1489C117.026 73.1143 117.956 73.3129 118.977 73.5316C120.191 73.7935 121.463 74.0553 122.712 73.8971C123.662 73.7791 125.259 73.0625 125.363 71.9949Z" fill="#F3B39A"/>
<path d="M82.4102 72.415C82.416 72.4237 82.4218 72.4353 82.4276 72.444C82.4247 72.4585 82.4218 72.473 82.4189 72.4846C82.4131 72.4614 82.4102 72.4382 82.4102 72.415Z" fill="#229F49"/>
<path d="M82.4118 72.4157C81.8535 71.4689 81.0046 70.7467 80.4492 69.8344C79.937 68.9913 79.7442 67.9985 79.1255 67.187C79.0104 67.0345 78.8809 66.8819 78.737 66.7294C78.478 65.3683 78.7658 63.9007 78.5816 62.5251C78.3428 60.7554 77.9341 59.0173 77.6924 57.2504C77.3126 54.4936 77.8334 51.9152 77.8852 49.1584C78.0435 40.321 79.396 30.5168 85.0218 23.3514C86.2333 21.809 87.0909 20.1284 88.2678 18.6004C90.3052 15.95 92.4405 12.6666 95.3268 10.8566C99.5397 8.21486 103.632 5.24798 108.308 3.46094C110.757 2.52282 113.347 2.07966 115.931 1.68254C118.512 1.2883 121.082 0.646581 123.663 0.324282C129.096 -0.354849 134.578 0.240829 140.029 0.258095C143.375 0.266728 146.685 0.456655 149.948 1.27104C153.082 2.05664 155.637 3.80339 158.633 4.96884C159.801 5.42639 160.728 6.45948 161.732 7.294C164.92 7.22781 167.758 10.1055 169.818 12.1832C171.119 13.4925 172.376 14.845 173.663 16.1659C174.923 17.4579 175.663 19.2162 176.868 20.6291C177.62 21.5126 178.609 22.0392 179.338 22.9313C181.476 25.5471 183.821 27.8693 186.143 30.3326C187.686 31.9672 189.476 33.2707 190.532 35.2621C191.591 37.2506 192.353 39.2333 192.935 41.4146C193.573 43.8145 194.673 46.2231 194.989 48.6864C195.829 55.1554 193.628 62.8072 191.395 68.8531C189.168 74.902 185.66 80.4617 180.552 84.4616L179.499 85.2472C179.291 84.1969 179.021 83.158 178.676 82.1221C178.293 80.9825 177.119 78.9825 176.9 77.4833L176.805 77.4948C176.638 76.2027 176.411 74.9106 176.299 73.6704C176.043 70.8848 175.778 68.0129 175.202 65.2676C174.759 63.1611 173.953 61.1611 173.32 59.1122C172.661 56.9799 171.312 55.1497 170.589 53.0432C170.014 51.3713 169.246 49.5727 167.384 48.9598C166.371 48.626 165.142 48.5253 164.126 48.9138C163.447 49.1728 162.805 49.9296 162.618 50.7008C162.394 49.9267 162.135 49.1641 161.853 48.4533C161.502 47.5641 161.036 47.1008 160.451 46.4016C159.766 45.5757 159.246 44.6318 158.509 43.8375C156.961 42.1685 153.234 41.8088 152.178 44.2289C151.424 45.9584 151.864 48.2519 152.184 50.0332C152.374 51.1008 152.595 52.1598 152.817 53.2216C153.047 54.3094 153.45 55.4921 153.502 56.6C153.597 58.7496 153.919 60.905 154.261 63.0402C154.428 64.0618 154.333 65.1179 154.402 66.1596C154.526 68.0963 155.041 69.9265 155.142 71.8459C155.194 72.879 155.223 82.5192 153.689 82.0386C152.88 81.7854 152.944 80.0588 152.866 79.4056C152.713 78.1164 152.598 76.8329 152.495 75.538C152.29 73.0229 151.608 70.5481 150.981 68.1136C150.325 65.5755 149.764 63.0402 149.056 60.5021C148.595 58.8446 148.195 57.1612 147.531 55.5698C147.194 54.7669 146.659 54.0475 146.204 53.2993C145.752 52.5511 145.223 51.8375 144.449 51.3943C143.361 50.7756 141.971 50.5224 140.751 50.836C139.249 51.2217 138.106 53.0634 137.98 54.5482C137.847 56.1252 138.172 57.8202 138.498 59.3568C138.803 60.8129 138.952 62.5856 139.531 63.9812C138.993 63.2273 138.345 62.5769 137.548 62.0992C136.017 61.1841 134.63 61.7798 133.939 63.3539C133.165 65.1266 133.453 66.8388 133.79 68.6603C133.96 69.5668 134.092 70.4819 134.195 71.4028C134.276 72.1279 134.098 72.7639 134.129 73.4718C134.167 74.2804 134.276 75.0833 134.403 75.889L134.149 75.9293C132.196 75.5725 129.842 72.4157 129.134 70.6632C128.288 68.574 128.149 66.1913 128.705 64.0417C129.329 61.6273 128.84 58.977 129.442 56.5022C130.098 53.8 131.214 51.2418 131.772 48.4965C132.452 45.1267 132.247 41.7052 132.713 38.3038C133.001 36.1973 133.088 33.8031 132.27 31.8002C131.059 28.8334 127.896 29.4319 125.747 30.9686C123.698 32.4305 122.098 34.4391 120.857 36.6088C119.188 39.5268 118.055 42.721 116.924 45.8778C116.363 47.4519 115.807 49.0317 115.191 50.5857C114.889 51.3454 114.515 52.0878 114.242 52.8562C113.922 53.754 113.401 54.5223 113.056 55.4144C112.788 56.0993 112.728 56.9453 112.305 57.5583C111.934 58.0993 111.289 58.4389 110.843 58.9511C109.873 60.059 109.128 61.1841 107.934 62.1395C107.307 62.6431 106.662 63.1381 105.951 63.5151C105.14 63.9467 104.225 64.151 103.445 64.6374C102.144 65.4431 100.679 65.5956 99.3325 66.2172C98.003 66.833 96.8922 66.6575 95.439 66.4704C94.6505 66.3668 93.8822 65.9553 93.1369 65.7194C92.616 65.5496 91.9484 65.3769 91.5196 64.9856C91.4247 65.3194 91.3182 65.6474 91.1887 65.964C90.6592 67.2503 89.8822 68.4013 89.3614 69.6934C88.7801 71.1409 88.2736 72.551 88.0405 74.102C87.7844 75.797 87.8707 77.5408 87.3902 79.1984C86.9269 80.7811 85.9283 82.0271 85.6175 83.6991C85.5312 84.1681 85.042 86.1422 84.3513 85.7854C83.9053 85.5551 83.9254 83.8285 83.888 83.3969C83.8218 82.712 83.7988 82.0214 83.7959 81.3336C83.7902 79.9811 84.078 78.9682 83.7298 77.6041C83.347 76.1078 82.7283 74.6718 82.5068 73.138C82.4751 72.9193 82.4492 72.7006 82.4291 72.479C82.4348 72.4675 82.4348 72.4531 82.4377 72.4387C82.4233 72.433 82.4175 72.4243 82.4118 72.4157Z" fill="#8C542C"/>
<path d="M137.923 131.575C136.715 132.634 135.676 133.716 134.231 134.508C132.718 135.339 131.092 135.938 129.489 136.56C126.424 137.751 123.184 138.335 119.903 137.877C117.788 137.584 116.044 136.804 114.099 135.958C112.856 135.42 111.607 134.922 110.427 134.257C108.865 133.371 107.596 132.076 106.039 131.236C104.41 130.361 103.138 128.96 101.82 127.679C100.327 126.232 99.0488 124.646 97.6445 123.175C99.8229 127.714 102.629 131.938 106.203 135.463C111.242 140.43 117.886 143.935 124.939 144.464C130.361 144.87 135.987 143.38 140.341 140.188C140.228 139.736 140.11 139.285 139.992 138.836C139.339 136.407 138.605 133.998 137.923 131.575Z" fill="#F4936E"/>
<path d="M124.934 144.463C117.878 143.934 111.233 140.429 106.197 135.462C102.623 131.937 99.8174 127.713 97.639 123.174C96.9713 122.478 96.2778 121.805 95.5181 121.186C92.8304 118.993 90.744 115.488 89.0088 112.536C88.888 112.328 88.77 112.121 88.6577 111.914C88.6232 113.523 88.2203 114.979 88.0621 116.585C87.9239 118.003 87.9182 119.338 87.5412 120.754C86.9628 122.918 86.0419 125.2 84.5369 126.895C83.9988 127.502 83.3139 127.77 82.7902 128.418C82.3384 128.973 81.9355 129.528 81.4751 130.041C81.5643 130.711 81.2765 131.963 81.3312 132.582C81.6794 136.633 82.0708 140.659 82.5484 144.676L82.8679 144.639C83.3024 149.065 90.3182 154.648 93.5066 156.642C96.5224 158.527 99.8922 159.672 103.259 160.751C106.413 161.758 109.443 162.311 112.551 163.22C117.368 164.633 122.171 163.278 126.631 161.352C128.416 160.581 130.536 160.04 132.197 159.108C134.401 157.871 136.83 155.427 138.321 153.387C138.813 152.711 139.005 151.56 139.679 151.056C139.849 148.354 140.113 145.666 140.948 143.462L141.066 143.439C140.853 142.348 140.603 141.263 140.332 140.184C135.981 143.379 130.355 144.872 124.934 144.463Z" fill="#F3B39A"/>
<path d="M37.35 378.004C37.3328 377.431 37.3184 376.862 37.3069 376.289C37.3155 376.862 37.3299 377.431 37.35 378.004C37.4767 382.082 37.586 386.211 37.2493 390.274C37.1169 391.849 37.022 393.428 36.9414 395.005C37.022 393.426 37.1169 391.849 37.2493 390.274C37.586 386.211 37.4767 382.082 37.35 378.004Z" fill="#1A5F92"/>
<path d="M35.7052 407.638C35.4318 408.951 35.144 410.268 34.9167 411.65C34.3929 414.818 34.3124 417.937 34.1426 421.094C34.3152 417.935 34.3958 414.818 34.9196 411.65C35.144 410.268 35.4318 408.951 35.7052 407.638Z" fill="#1A5F92"/>
<path d="M37.2909 375.371C37.288 375.112 37.288 374.85 37.2852 374.591C37.2852 374.853 37.288 375.112 37.2909 375.371Z" fill="#229F49"/>
<path d="M37.7871 366.422C37.7957 366.361 37.8015 366.301 37.8101 366.24C37.8015 366.304 37.7929 366.361 37.7871 366.422Z" fill="#229F49"/>
<path d="M45.7603 438.312C45.711 438.315 45.6646 438.318 45.6152 438.321C45.6646 438.318 45.711 438.312 45.7603 438.312Z" fill="#229F49"/>
<path d="M37.3301 371.745C37.3416 371.437 37.356 371.129 37.3704 370.821C37.356 371.129 37.3416 371.437 37.3301 371.745Z" fill="#229F49"/>
<path d="M37.2852 374.261C37.2852 373.501 37.2995 372.741 37.3226 371.982C37.2967 372.741 37.2852 373.501 37.2852 374.261Z" fill="#229F49"/>
<path d="M45.144 438.349C45.0807 438.355 45.0145 438.361 44.9512 438.367C45.0145 438.358 45.0778 438.352 45.144 438.349Z" fill="#229F49"/>
<path d="M37.3887 370.56C37.4059 370.238 37.429 369.913 37.452 369.59C37.429 369.915 37.4059 370.238 37.3887 370.56Z" fill="#229F49"/>
<path d="M37.2998 376.097C37.2998 376.16 37.3026 376.226 37.3055 376.289C37.3026 376.131 37.2998 375.973 37.2969 375.815C37.2969 375.91 37.2969 376.002 37.2998 376.097Z" fill="#229F49"/>
<path d="M38.0547 364.46C38.0605 364.422 38.0663 364.381 38.0721 364.344C38.0663 364.384 38.0605 364.422 38.0547 364.46Z" fill="#229F49"/>
<path d="M36.9366 395.005C36.8215 397.215 36.7323 399.425 36.6086 401.633C36.4906 403.73 36.1078 405.676 35.6992 407.638C36.1107 405.676 36.4935 403.73 36.6086 401.633C36.7352 399.423 36.8244 397.213 36.9366 395.005Z" fill="#1A5F92"/>
<path d="M34.1381 421.095C34.0777 422.203 34.0058 423.314 33.9022 424.433C33.7209 426.375 33.3957 428.208 33.0273 430.047C33.3957 428.206 33.7209 426.372 33.9022 424.433C34.0086 423.314 34.0806 422.203 34.1381 421.095Z" fill="#1A5F92"/>
<path d="M37.5857 368.133C37.5828 368.171 37.5771 368.208 37.5713 368.245C37.531 368.637 37.4965 369.025 37.4648 369.417C37.4965 369.025 37.531 368.637 37.5713 368.245C37.5771 368.208 37.5828 368.171 37.5857 368.133Z" fill="#229F49"/>
<path d="M39.6751 350.126C39.6722 350.676 39.6578 351.225 39.6348 351.775C39.6607 351.225 39.6751 350.676 39.6751 350.126Z" fill="#229F49"/>
<path d="M99.1618 347.187C99.3978 353.777 99.0726 360.364 98.7676 366.945C99.0151 366.957 99.2712 366.965 99.5647 366.983C106.943 366.49 114.609 367.509 122.065 367.184C129.291 366.87 139.61 368.994 146.448 367.092C146.41 365.803 146.353 364.513 146.226 363.23C145.665 357.699 144.787 351.932 144.813 346.378C144.816 345.84 144.784 345.386 144.77 345.055C141.19 345.328 137.654 344.505 134.079 344.502C126.52 344.491 118.747 344.609 111.216 345.216C107.191 345.541 103.173 345.961 99.1589 346.422C99.1561 346.652 99.1532 346.893 99.1618 347.187Z" fill="white"/>
<path d="M197.631 444.122C197.205 444.07 196.788 444.012 196.391 443.966C193.568 443.624 190.676 442.93 187.824 442.936C183.867 442.945 179.965 443.869 176.005 443.791C174.063 443.753 172.425 443.293 170.566 442.91C168.575 442.499 166.518 442.738 164.515 442.464C160.886 441.972 157.01 441.776 153.349 441.771C150.267 441.771 148.046 439.647 147.847 436.41C147.657 433.276 148.607 430.179 148.872 427.077C149.718 417.204 148.069 407.351 147.761 397.512C147.68 394.962 148.121 392.514 148.063 389.961C147.931 384.361 147.312 378.79 146.739 373.219C146.529 371.181 146.512 369.138 146.449 367.095V367.092C139.611 368.997 129.292 366.871 122.066 367.184C114.613 367.507 106.944 366.488 99.5656 366.983C99.2721 366.969 99.016 366.957 98.7685 366.946C98.7455 367.455 98.7224 367.964 98.6994 368.474C98.5498 371.789 98.5095 375.109 98.4922 378.427C98.475 381.676 98.8951 385.262 98.2678 388.456C97.0966 394.424 98.0692 400.85 97.9541 406.962C97.8591 411.918 97.5714 416.66 97.9397 421.624C98.3311 426.887 100.299 434.093 95.7498 438.214C92.3887 441.261 86.9096 440.51 82.7542 440.51C79.1197 440.51 75.4191 441.189 71.7903 440.85C68.6594 440.559 65.4853 440.294 62.317 440.102C59.9257 439.955 57.5746 439.964 55.166 439.581C52.0984 439.092 49.238 438.283 46.2366 438.303L46.2395 438.493C45.1546 440.749 45.5402 449.808 47.2726 452.395H120.958H197.447C197.645 449.529 197.68 446.271 197.631 444.122Z" fill="#DBD0C3"/>
<path d="M34.5915 436.931C33.6562 436.309 32.9915 435.437 32.6836 434.436C32.9944 435.434 33.6562 436.309 34.5915 436.931C37.2274 438.683 41.2907 438.844 44.3439 438.433C44.3727 438.43 44.4015 438.427 44.4302 438.421C44.4015 438.424 44.3727 438.427 44.3439 438.43C41.2936 438.844 37.2303 438.68 34.5915 436.931Z" fill="#229F49"/>
<path d="M39.1836 356.785C39.2009 356.649 39.2181 356.514 39.2354 356.382C39.2181 356.514 39.2009 356.649 39.1836 356.785Z" fill="#229F49"/>
<path d="M39.3672 355.233C39.3873 355.04 39.4075 354.847 39.4276 354.657C39.4075 354.847 39.3873 355.04 39.3672 355.233Z" fill="#229F49"/>
<path d="M39.4492 354.442C39.4751 354.178 39.4981 353.913 39.5183 353.648C39.4981 353.913 39.4722 354.178 39.4492 354.442Z" fill="#229F49"/>
<path d="M39.5332 353.464C39.5505 353.254 39.5649 353.047 39.5792 352.837C39.5649 353.047 39.5505 353.254 39.5332 353.464Z" fill="#229F49"/>
<path d="M39.2812 356.022C39.2985 355.866 39.3187 355.711 39.3359 355.556C39.3158 355.711 39.2985 355.866 39.2812 356.022Z" fill="#229F49"/>
<path d="M39.6394 348.283C39.6135 347.714 39.5732 347.141 39.5156 346.565C39.5732 347.141 39.6135 347.714 39.6394 348.283Z" fill="#229F49"/>
<path d="M39.5938 352.592C39.6053 352.39 39.6168 352.192 39.6254 351.99C39.6168 352.192 39.6053 352.393 39.5938 352.592Z" fill="#229F49"/>
<path d="M39.6695 349.113C39.6638 348.877 39.6551 348.641 39.6465 348.402C39.6551 348.641 39.6638 348.877 39.6695 349.113Z" fill="#229F49"/>
<path d="M39.6776 349.993C39.6776 349.76 39.6748 349.527 39.6719 349.296C39.6776 349.527 39.6776 349.76 39.6776 349.993Z" fill="#229F49"/>
<path d="M99.1601 347.188C99.1486 346.894 99.1515 346.653 99.1572 346.42C93.235 347.099 87.3213 347.861 81.3905 348.523C71.7503 349.602 61.5432 349.752 51.9433 348.535C48.4181 348.086 44.9764 347.156 41.4513 346.802C40.798 346.736 40.1506 346.647 39.5117 346.543C39.5117 346.552 39.5117 346.561 39.5146 346.566C39.5721 347.139 39.6124 347.712 39.6383 348.284C39.6412 348.325 39.6412 348.362 39.6441 348.402C39.6556 348.638 39.6614 348.877 39.6671 349.113C39.6671 349.174 39.67 349.234 39.67 349.294C39.6729 349.528 39.6757 349.761 39.6757 349.991C39.6757 350.034 39.6757 350.08 39.6757 350.123C39.6729 350.457 39.6671 350.794 39.6585 351.128C59.3763 353.784 79.307 354.517 99.209 355.099C99.2579 352.466 99.2551 349.827 99.1601 347.188Z" fill="#124B73"/>
<path d="M39.6601 351.13C39.6543 351.346 39.6486 351.559 39.6371 351.775C39.6342 351.847 39.6313 351.919 39.6256 351.991C39.6169 352.192 39.6054 352.394 39.5939 352.592C39.5882 352.673 39.5853 352.753 39.5795 352.837C39.5651 353.047 39.5507 353.254 39.5335 353.464C39.5277 353.525 39.5248 353.588 39.5191 353.648C39.4961 353.913 39.473 354.178 39.45 354.443C39.4443 354.514 39.4356 354.586 39.4299 354.658C39.4097 354.851 39.3925 355.044 39.3695 355.234C39.3579 355.34 39.3464 355.45 39.3349 355.556C39.3176 355.712 39.3004 355.867 39.2802 356.022C39.2659 356.143 39.2515 356.261 39.2371 356.382C39.2198 356.517 39.2025 356.653 39.1853 356.785C39.0241 358.057 38.8342 359.329 38.6414 360.601C38.4486 361.847 38.2529 363.096 38.0716 364.347C38.0659 364.385 38.0601 364.425 38.0544 364.463C37.968 365.055 37.8874 365.651 37.8098 366.244C37.8011 366.304 37.7954 366.365 37.7867 366.425C37.7148 366.995 37.6457 367.565 37.5853 368.137C37.5824 368.175 37.5767 368.212 37.5738 368.25C37.5335 368.641 37.499 369.029 37.4673 369.421C37.4616 369.478 37.4587 369.539 37.4558 369.596C37.4299 369.919 37.4098 370.244 37.3925 370.566C37.3867 370.652 37.3839 370.742 37.3781 370.828C37.3608 371.136 37.3493 371.444 37.3378 371.752C37.3349 371.829 37.3321 371.91 37.3292 371.988C37.3033 372.747 37.2918 373.507 37.2918 374.267C37.2918 374.376 37.2918 374.488 37.2918 374.598C37.2918 374.857 37.2946 375.119 37.2975 375.378C37.3004 375.524 37.3004 375.671 37.3033 375.821C37.3062 375.979 37.309 376.137 37.3119 376.296C37.3234 376.865 37.3378 377.438 37.3551 378.011C37.4817 382.091 37.5939 386.218 37.2544 390.281C37.122 391.855 37.027 393.432 36.9465 395.012C36.8313 397.222 36.7421 399.432 36.6213 401.639C36.5033 403.74 36.1206 405.682 35.7119 407.645C35.4385 408.957 35.1508 410.275 34.9234 411.656C34.4026 414.825 34.3191 417.944 34.1465 421.101C34.086 422.209 34.0141 423.32 33.9105 424.439C33.7292 426.381 33.404 428.215 33.0357 430.053C32.8918 430.767 32.7451 431.484 32.5954 432.206C32.4343 432.983 32.4774 433.743 32.6933 434.436C33.0012 435.438 33.6659 436.309 34.6011 436.931C37.2371 438.681 41.3004 438.845 44.3565 438.433C44.3852 438.43 44.414 438.427 44.4428 438.425C44.6154 438.402 44.7881 438.384 44.9608 438.367C45.0241 438.361 45.0903 438.355 45.1536 438.35C45.3118 438.338 45.4701 438.327 45.6255 438.321C45.6744 438.318 45.7205 438.315 45.7694 438.312C45.9305 438.307 46.0888 438.304 46.2471 438.304C49.2485 438.284 52.1089 439.092 55.1765 439.581C57.5851 439.967 59.9362 439.955 62.3275 440.102C65.4958 440.295 68.6699 440.56 71.8008 440.85C75.4295 441.19 79.1302 440.511 82.7647 440.511C86.9201 440.511 92.3963 441.262 95.7603 438.214C100.31 434.094 98.3416 426.891 97.9502 421.625C97.5819 416.661 97.8696 411.918 97.9646 406.963C98.0826 400.851 97.1071 394.428 98.2783 388.457C98.9056 385.262 98.4855 381.677 98.5027 378.428C98.52 375.11 98.5603 371.789 98.7099 368.474C98.7329 367.965 98.756 367.455 98.779 366.946C98.3876 366.929 98.0164 366.917 97.5502 366.891C98.0164 366.914 98.3847 366.929 98.779 366.946C98.9603 362.998 99.1502 359.05 99.2221 355.099C79.3087 354.52 59.3779 353.786 39.6601 351.13Z" fill="#1A5F92"/>
<path d="M153.379 344.597C153.672 343.478 153.626 342.206 154.337 341.294C154.866 340.612 155.715 340.272 156.53 339.982C162.184 337.964 168.167 336.868 174.17 336.75C178.259 336.669 182.478 337.02 186.328 335.645C187.257 335.311 188.144 334.885 189.013 334.416C186.078 334.091 183.148 333.708 180.155 333.702C178.247 333.7 159.508 334.341 156.161 333.72C155.969 333.938 155.738 334.137 155.462 334.313C153.586 335.507 151.128 335.34 148.999 335.346L148.872 335.348C148.875 335.518 148.878 335.694 148.881 335.864C148.901 338.062 149.505 340.853 148.872 342.989C148.366 344.695 147.215 344.787 145.523 344.992C145.272 345.023 145.022 345.046 144.771 345.064C144.786 345.394 144.818 345.849 144.815 346.387C144.809 347.521 144.843 348.663 144.904 349.812C145.969 349.78 147.025 349.656 148.055 349.377C150.464 348.715 152.746 347.015 153.379 344.597Z" fill="#124B73"/>
<path d="M204.285 432.061C204.078 426.856 203.606 421.662 203.102 416.482C202.901 414.404 202.91 412.139 202.463 410.099C202.104 408.444 201.551 406.913 201.387 405.17C201.209 403.262 201.203 401.339 201.036 399.429C200.737 396.019 199.71 392.623 199.128 389.247C198.812 387.432 198.547 385.607 198.4 383.771C198.311 382.678 198.455 381.645 198.478 380.589C198.489 380.183 198.481 379.771 198.432 379.354C197.764 373.509 196.694 367.714 196.055 361.869C195.842 359.921 195.675 357.967 195.589 356.007C195.451 352.986 195.37 349.973 195.079 346.963C194.806 344.149 193.712 341.441 193.641 338.615C193.612 337.613 193.272 335.916 193.384 334.799C191.92 334.718 190.466 334.569 189.016 334.41C188.15 334.88 187.264 335.308 186.331 335.639C182.478 337.018 178.262 336.664 174.173 336.744C168.17 336.862 162.188 337.959 156.533 339.976C155.719 340.267 154.87 340.606 154.34 341.288C153.629 342.203 153.675 343.472 153.382 344.592C152.749 347.009 150.467 348.71 148.055 349.366C147.025 349.645 145.969 349.769 144.904 349.8C145.137 354.275 145.782 358.825 146.228 363.227C146.355 364.514 146.412 365.803 146.45 367.092C146.513 369.132 146.53 371.179 146.74 373.216C147.313 378.784 147.932 384.355 148.064 389.958C148.124 392.511 147.684 394.96 147.762 397.509C148.067 407.345 149.719 417.201 148.873 427.074C148.608 430.177 147.658 433.273 147.848 436.407C148.047 439.644 150.268 441.768 153.35 441.768C157.011 441.774 160.887 441.969 164.516 442.461C166.521 442.735 168.579 442.496 170.567 442.907C172.426 443.29 174.064 443.753 176.006 443.788C179.969 443.866 183.868 442.942 187.825 442.933C190.677 442.927 193.569 443.621 196.392 443.963C196.789 444.012 197.206 444.067 197.632 444.119C200.256 444.441 203.197 444.594 204.063 441.532C204.915 438.53 204.409 435.126 204.285 432.061Z" fill="#1A5F92"/>
<path d="M94.9627 64.1274C94.8476 64.1274 94.7297 64.0987 94.6232 64.0411C94.2721 63.8541 94.1426 63.4167 94.3297 63.0656C95.1958 61.4541 96.5627 60.2944 97.8836 59.1692C98.2145 58.8872 98.5455 58.6081 98.862 58.3232C99.7829 57.5002 100.514 56.5505 101.288 55.5462C101.794 54.8901 102.315 54.211 102.899 53.5693C104.191 52.1419 105.066 49.9434 105.184 47.8341C105.207 47.437 105.538 47.1348 105.944 47.1549C106.341 47.178 106.643 47.5175 106.623 47.9146C106.488 50.3376 105.469 52.8729 103.967 54.5333C103.423 55.1347 102.917 55.7908 102.427 56.4239C101.648 57.4369 100.842 58.4815 99.8231 59.3937C99.4951 59.6872 99.1555 59.975 98.816 60.2656C97.5958 61.3016 96.3354 62.3749 95.5958 63.7447C95.4663 63.9893 95.2189 64.1274 94.9627 64.1274Z" fill="#693F21"/>
<path d="M82.3663 72.5855C81.9894 72.5855 81.6728 72.292 81.6498 71.9121C81.5663 70.6114 81.6124 69.3021 81.6584 68.0359C81.6843 67.3251 81.7102 66.5913 81.7131 65.8776C81.7131 65.4805 82.0354 65.1611 82.4325 65.1611C82.4325 65.1611 82.4325 65.1611 82.4354 65.1611C82.8325 65.1611 83.1548 65.4863 83.1519 65.8834C83.1491 66.6201 83.1232 67.3683 83.0973 68.0906C83.0541 69.3222 83.008 70.5941 83.0857 71.8229C83.1116 72.22 82.8095 72.5625 82.4124 72.5855C82.3951 72.5855 82.3807 72.5855 82.3663 72.5855Z" fill="#693F21"/>
<path d="M91.1736 66.6892C91.0815 66.6892 90.9895 66.672 90.9003 66.6346C90.5319 66.4821 90.3592 66.0619 90.5089 65.6936C90.8369 64.8965 91.024 63.9698 91.2053 63.0749C91.3261 62.4763 91.4499 61.8576 91.6197 61.2677C92.4139 58.4792 93.4643 56.298 94.7391 54.7843C94.9664 54.5167 95.2196 54.1599 95.493 53.7858C96.1664 52.8505 96.9319 51.7915 97.7808 51.3081C98.1261 51.1124 98.5664 51.2333 98.7621 51.5786C98.9577 51.9239 98.8369 52.3642 98.4916 52.5599C97.9131 52.8879 97.2167 53.8548 96.6585 54.6289C96.3707 55.026 96.1002 55.403 95.8383 55.7138C94.6959 57.0692 93.7405 59.072 93.0038 61.662C92.8513 62.1972 92.7362 62.7612 92.6182 63.3598C92.4225 64.3238 92.2211 65.3195 91.8413 66.2432C91.7261 66.5223 91.4556 66.6892 91.1736 66.6892Z" fill="#693F21"/>
<path d="M122.145 138.752C121.354 138.752 120.571 138.697 119.8 138.591C117.659 138.294 115.883 137.523 114.004 136.706L113.806 136.62C113.57 136.516 113.331 136.415 113.095 136.315C112.091 135.886 111.055 135.443 110.065 134.884C109.268 134.433 108.551 133.886 107.858 133.356C107.13 132.801 106.445 132.277 105.688 131.871C104.229 131.086 103.066 129.932 101.941 128.818C101.731 128.611 101.521 128.404 101.311 128.197C100.404 127.316 99.5699 126.381 98.7641 125.48C97.5613 124.131 96.4246 122.859 95.0606 121.748C92.2232 119.434 90.0045 115.659 88.3844 112.905C88.1829 112.562 88.298 112.122 88.6405 111.921C88.9829 111.719 89.4232 111.834 89.6247 112.177C91.2764 114.985 93.3311 118.482 95.9699 120.634C97.4203 121.817 98.649 123.192 99.8375 124.525C100.626 125.408 101.443 126.323 102.312 127.166C102.528 127.374 102.741 127.587 102.954 127.797C104.056 128.887 105.098 129.92 106.373 130.605C107.227 131.066 107.993 131.65 108.732 132.214C109.417 132.735 110.065 133.23 110.776 133.633C111.694 134.153 112.649 134.559 113.662 134.991C113.901 135.094 114.142 135.195 114.381 135.299L114.58 135.385C116.445 136.197 118.053 136.896 119.998 137.166C122.899 137.569 126.004 137.141 129.224 135.889L129.728 135.693C131.124 135.155 132.568 134.597 133.88 133.874C134.939 133.293 135.783 132.528 136.675 131.719C136.997 131.428 137.331 131.126 137.679 130.827C137.981 130.568 138.436 130.605 138.692 130.907C138.951 131.21 138.913 131.664 138.611 131.92C138.277 132.205 137.952 132.499 137.639 132.784C136.724 133.612 135.777 134.47 134.568 135.135C133.17 135.903 131.682 136.476 130.24 137.034L129.737 137.23C127.138 138.243 124.591 138.752 122.145 138.752Z" fill="#AB5F40"/>
<path d="M78.5189 83.1954C78.3807 83.1954 78.2397 83.1551 78.1189 83.0716C77.1146 82.3954 74.5391 79.9062 75.1261 77.8717C75.3131 77.2213 75.7506 76.7695 76.1045 76.4069C76.5506 75.9465 76.7146 75.7422 76.6714 75.417C76.5678 74.6688 76.1765 73.817 75.8196 73.0746C75.2585 71.9178 74.1017 70.0789 72.6571 70.7667C72.2974 70.9394 71.8686 70.784 71.6988 70.4271C71.529 70.0674 71.6787 69.6387 72.0384 69.4689C73.9146 68.5739 75.7649 69.6617 77.1146 72.4473C77.5203 73.2875 77.9664 74.2631 78.0987 75.2213C78.2426 76.2688 77.6067 76.9278 77.1405 77.4055C76.8498 77.7048 76.5995 77.9638 76.5131 78.2688C76.2484 79.1839 77.7851 81.1062 78.9275 81.8774C79.2584 82.099 79.3448 82.5479 79.1232 82.8759C78.9793 83.086 78.752 83.1954 78.5189 83.1954Z" fill="#AB5F40"/>
<path d="M131.675 110.924C129.209 110.924 126.458 109.304 124.973 107.624C124.711 107.324 124.737 106.873 125.036 106.608C125.336 106.343 125.787 106.372 126.052 106.671C127.416 108.217 130.141 109.719 132.167 109.454C133.186 109.322 133.92 108.772 134.415 107.782C134.593 107.425 135.025 107.281 135.379 107.46C135.736 107.638 135.879 108.07 135.701 108.424C134.996 109.837 133.839 110.686 132.354 110.881C132.133 110.91 131.905 110.924 131.675 110.924Z" fill="#AB5F40"/>
<path d="M123.892 118.41C123.783 118.41 123.673 118.384 123.57 118.332C122.649 117.869 121.783 117.308 120.942 116.764C120.473 116.462 119.99 116.148 119.509 115.86C118.519 115.27 117.426 114.764 116.367 114.278C115.627 113.938 114.865 113.584 114.137 113.204C113.786 113.02 113.648 112.586 113.832 112.235C114.016 111.883 114.45 111.748 114.801 111.929C115.498 112.295 116.246 112.637 116.968 112.971C118.059 113.475 119.19 113.996 120.246 114.626C120.747 114.925 121.242 115.245 121.722 115.555C122.531 116.076 123.365 116.617 124.217 117.046C124.571 117.224 124.715 117.656 124.537 118.013C124.41 118.263 124.157 118.41 123.892 118.41Z" fill="#AB5F40"/>
<path d="M119.772 88.165C118.321 88.9707 115.42 87.8456 113.99 87.2326C112.836 86.7405 109.337 84.9362 109.346 83.6643C108.926 83.7593 108.822 83.5693 109.064 83.2125C109.305 82.8557 109.835 82.8068 110.235 82.9737C110.632 83.1406 110.937 83.4657 111.256 83.7564C113.357 85.6931 116.307 86.3751 119.13 86.8125C119.418 86.8556 119.711 86.9017 119.961 87.0484C120.212 87.1952 120.407 87.4715 120.373 87.7592C120.336 88.0441 120.028 88.3031 119.772 88.165Z" fill="#231F20"/>
<path d="M141.07 144.165C140.733 144.165 140.431 143.926 140.365 143.583C140.094 142.202 139.752 140.752 139.291 139.019C138.894 137.532 138.457 136.021 138.034 134.562C137.073 131.252 136.08 127.831 135.475 124.355C134.327 117.733 134.25 111.066 134.339 104.85C134.359 103.497 134.402 102.133 134.448 100.815C134.529 98.4182 134.609 95.9406 134.537 93.4888C134.488 91.7967 134.494 90.0787 134.5 88.4183C134.511 85.4601 134.523 82.4011 134.215 79.4256C134.132 78.6227 133.991 77.7911 133.852 76.9911C133.804 76.7091 133.755 76.4271 133.709 76.1451C133.645 75.7537 133.91 75.3825 134.301 75.3192C134.696 75.2559 135.064 75.5206 135.127 75.912C135.173 76.1911 135.222 76.4702 135.268 76.7465C135.409 77.5724 135.556 78.4242 135.645 79.276C135.962 82.3263 135.95 85.4255 135.939 88.4212C135.933 90.0701 135.927 91.7766 135.976 93.4427C136.048 95.9406 135.968 98.4413 135.887 100.858C135.844 102.171 135.798 103.529 135.78 104.867C135.691 111.014 135.766 117.601 136.894 124.104C137.484 127.503 138.465 130.884 139.415 134.156C139.841 135.624 140.281 137.14 140.681 138.642C141.15 140.406 141.498 141.885 141.778 143.298C141.855 143.69 141.599 144.067 141.211 144.142C141.162 144.162 141.116 144.165 141.07 144.165Z" fill="#AB5F40"/>
<path d="M145.251 86.4585C144.938 86.4585 144.65 86.2542 144.561 85.9377C144.181 84.6255 144.014 83.2787 143.85 81.9751C143.677 80.6025 143.516 79.3047 143.128 78.0414C142.65 76.4932 142.316 74.8961 141.994 73.3536C141.712 72.0069 141.421 70.617 141.038 69.2817C140.523 67.4774 139.83 65.4372 138.61 63.9753C138.356 63.6703 138.397 63.2156 138.702 62.9624C139.007 62.7091 139.459 62.7494 139.715 63.0544C141.107 64.7206 141.864 66.9364 142.423 68.8846C142.82 70.2688 143.116 71.6875 143.404 73.0572C143.72 74.568 144.048 76.1306 144.506 77.6183C144.932 79.0025 145.11 80.4212 145.28 81.7967C145.444 83.1003 145.597 84.3319 145.945 85.5377C146.054 85.9204 145.835 86.3175 145.453 86.4298C145.387 86.447 145.317 86.4585 145.251 86.4585Z" fill="#AB5F40"/>
<path d="M166.625 81.1552C166.464 81.1552 166.303 81.1034 166.17 80.9912C165.862 80.7408 165.816 80.2862 166.07 79.9783C166.636 79.2847 166.352 77.4804 166.141 76.1625C166.052 75.5927 165.966 75.0546 165.943 74.6114C165.926 74.2805 165.908 73.9495 165.894 73.6186C165.825 72.2258 165.756 70.787 165.595 69.3942C165.462 68.2633 165.37 67.1122 165.278 66.0014C165.143 64.3352 165.002 62.6144 164.731 60.9482C164.518 59.6446 164.081 58.4245 163.618 57.1353C163.169 55.8835 162.706 54.5886 162.464 53.2073C162.317 52.3641 162.104 51.4778 161.828 50.5742C161.713 50.1944 161.929 49.7915 162.308 49.6764C162.688 49.5613 163.091 49.7771 163.206 50.1569C163.497 51.1181 163.724 52.062 163.883 52.9598C164.104 54.2202 164.527 55.4001 164.973 56.649C165.439 57.9439 165.917 59.282 166.153 60.718C166.432 62.4388 166.576 64.1913 166.714 65.8863C166.803 66.9856 166.895 68.1222 167.025 69.2273C167.192 70.669 167.264 72.1337 167.333 73.5495C167.35 73.8776 167.364 74.2085 167.382 74.5366C167.402 74.9049 167.48 75.4085 167.566 75.938C167.831 77.6128 168.162 79.6962 167.186 80.8905C167.039 81.0631 166.832 81.1552 166.625 81.1552Z" fill="#AB5F40"/>
<path d="M177.232 98.0292C177.229 98.0292 177.226 98.0292 177.221 98.0292C176.824 98.0235 176.507 97.6983 176.513 97.2983C176.527 96.2796 176.521 95.2379 176.513 94.2307C176.501 92.4408 176.487 90.5905 176.596 88.7631C176.665 87.5919 176.542 86.4351 176.412 85.2063C176.271 83.874 176.124 82.4984 176.248 81.1056C176.32 80.2913 176.294 79.379 176.17 78.2337C176.127 77.8395 176.412 77.4827 176.806 77.4395C177.203 77.3963 177.557 77.6812 177.601 78.0755C177.736 79.3186 177.762 80.32 177.681 81.2294C177.572 82.484 177.704 83.7301 177.842 85.0538C177.972 86.2855 178.107 87.5574 178.032 88.8466C177.926 90.6279 177.94 92.4552 177.952 94.2221C177.957 95.235 177.966 96.2854 177.952 97.3184C177.946 97.7127 177.626 98.0292 177.232 98.0292Z" fill="#AB5F40"/>
<path d="M159.643 302.681C159.511 302.681 159.378 302.647 159.26 302.569C155.197 300.005 151.738 296.454 148.682 291.714C145.779 287.211 144.317 282.028 143.171 277.527C142.858 276.296 142.512 275.084 142.184 273.951C142.075 273.568 142.294 273.171 142.676 273.058C143.059 272.946 143.456 273.168 143.569 273.551C143.899 274.699 144.251 275.922 144.57 277.174C145.687 281.565 147.108 286.615 149.894 290.937C152.875 295.559 156.095 298.871 160.029 301.355C160.366 301.568 160.466 302.011 160.253 302.347C160.115 302.563 159.882 302.681 159.643 302.681Z" fill="#3F85BA"/>
<path d="M139.105 164.179C138.835 164.179 138.573 164.023 138.452 163.762C138.285 163.402 138.44 162.973 138.8 162.806C139.744 162.369 140.86 162.159 141.758 161.992C142.15 161.92 142.524 162.176 142.599 162.567C142.67 162.959 142.414 163.333 142.023 163.408C141.206 163.56 140.187 163.75 139.407 164.113C139.309 164.156 139.206 164.179 139.105 164.179Z" fill="#3F85BA"/>
<path d="M196.147 273.657C195.954 273.657 195.761 273.579 195.617 273.427C195.347 273.136 195.367 272.679 195.658 272.411C199.404 268.952 194.533 249.001 192.933 242.443C192.76 241.729 192.607 241.111 192.487 240.601C191.5 236.432 190.334 232.23 189.209 228.164C188.13 224.268 187.013 220.239 186.049 216.233C185.1 212.282 184.366 208.228 183.655 204.311L183.638 204.21C183.428 203.054 183.278 201.877 183.134 200.74C182.8 198.098 182.484 195.6 181.456 193.209C180.513 191.01 180.21 188.587 179.92 186.242C179.767 185.013 179.609 183.744 179.362 182.553C179.163 181.6 178.962 180.66 178.76 179.721C177.825 175.347 176.941 171.218 176.495 166.746C176.426 166.05 176.374 165.342 176.326 164.657C176.164 162.389 176.012 160.245 175.221 158.208C175.085 157.863 174.987 157.408 174.884 156.93C174.579 155.535 174.268 154.381 173.6 154.47C173.206 154.519 172.846 154.242 172.795 153.848C172.746 153.454 173.022 153.094 173.416 153.042C175.451 152.783 175.977 155.186 176.288 156.622C176.38 157.045 176.467 157.445 176.562 157.687C177.431 159.929 177.598 162.28 177.759 164.553C177.808 165.227 177.857 165.926 177.923 166.602C178.36 170.993 179.235 175.085 180.162 179.419C180.363 180.357 180.564 181.304 180.763 182.257C181.025 183.506 181.186 184.806 181.341 186.064C181.62 188.308 181.908 190.631 182.772 192.642C183.879 195.221 184.222 197.937 184.556 200.561C184.697 201.678 184.843 202.835 185.045 203.954L185.062 204.055C185.77 207.954 186.501 211.986 187.439 215.899C188.395 219.879 189.508 223.897 190.584 227.781C191.715 231.859 192.884 236.075 193.876 240.27C193.997 240.777 194.147 241.393 194.32 242.104C197.62 255.62 200.472 269.913 196.625 273.47C196.498 273.594 196.323 273.657 196.147 273.657Z" fill="#3F85BA"/>
<path d="M77.9225 176.869C77.7297 176.869 77.5369 176.791 77.3959 176.642C76.6535 175.847 76.3312 175.629 75.3758 175.111L75.3067 175.073C71.537 173.027 66.8464 170.481 64.2162 166.924C61.7615 163.6 62.7572 160.504 63.7183 157.511C64.0378 156.521 64.3658 155.497 64.5845 154.446C64.9011 152.927 65.1054 151.347 65.3068 149.822C65.419 148.967 65.5341 148.087 65.6665 147.218C65.9716 145.235 66.4579 143.402 67.2435 141.272C67.6262 140.233 67.9715 139.379 68.3312 138.582C68.4953 138.219 68.9212 138.058 69.2838 138.222C69.6463 138.386 69.8075 138.812 69.6435 139.174C69.2981 139.94 68.9643 140.766 68.596 141.77C67.8449 143.807 67.3816 145.554 67.091 147.439C66.9586 148.291 66.8464 149.166 66.7341 150.012C66.5327 151.566 66.3226 153.169 65.9946 154.743C65.7615 155.868 65.419 156.93 65.091 157.954C64.1615 160.846 63.3586 163.344 65.3759 166.072C67.8133 169.373 72.3485 171.833 75.9945 173.813L76.0635 173.85C77.1513 174.44 77.5973 174.751 78.4491 175.663C78.7196 175.954 78.7052 176.409 78.4146 176.679C78.2736 176.806 78.0981 176.869 77.9225 176.869Z" fill="#3F85BA"/>
<path d="M96.7229 300.716C95.8769 300.716 95.4423 299.769 94.51 295.924C94.4438 295.648 94.3949 295.444 94.369 295.358C94.038 294.25 93.7531 293.119 93.474 292.025C93.1488 290.742 92.815 289.415 92.4093 288.143C91.6524 285.766 90.5848 283.481 89.5546 281.268C88.441 278.877 87.287 276.405 86.4985 273.775C85.123 269.194 83.9575 264.44 82.8324 259.838C82.1619 257.102 81.4684 254.273 80.7403 251.522C79.9547 248.546 78.9619 245.571 78.0008 242.693C76.113 237.036 74.162 231.185 73.6612 225.024C73.0512 217.519 69.8426 208.581 64.6254 199.856L64.4441 199.554C62.9218 197.022 60.6455 193.226 62.539 190.078C62.4067 188.642 63.7851 187.5 64.9074 186.57C65.2815 186.259 65.6383 185.966 65.8426 185.733C67.457 183.894 69.3562 182.202 71.6526 180.559C73.6843 179.102 75.2785 176.838 76.8238 174.648C78.5878 172.144 80.4123 169.554 82.936 168.098C83.2784 167.9 83.7187 168.018 83.9201 168.36C84.1187 168.705 84.0007 169.146 83.6554 169.344C81.4079 170.642 79.7533 172.99 78.0008 175.477C76.3893 177.764 74.7202 180.133 72.4929 181.73C70.2886 183.31 68.467 184.93 66.9246 186.685C66.6455 187.002 66.2484 187.333 65.8282 187.681C64.9793 188.386 63.8167 189.35 63.9951 190.064C64.0441 190.262 64.0067 190.475 63.8915 190.645C62.234 193.079 64.2254 196.397 65.6815 198.82L65.8628 199.122C69.6325 205.425 74.2943 215.016 75.0972 224.912C75.5835 230.901 77.5058 236.667 79.3677 242.244C80.3346 245.145 81.336 248.144 82.1331 251.162C82.864 253.925 83.5576 256.762 84.2309 259.505C85.3532 264.086 86.5158 268.825 87.8769 273.369C88.6366 275.899 89.7676 278.325 90.8611 280.667C91.9114 282.92 92.9963 285.248 93.7819 287.712C94.2021 289.027 94.5416 290.373 94.8726 291.677C95.1459 292.756 95.428 293.873 95.7503 294.949C95.779 295.047 95.8366 295.277 95.9114 295.591C96.4236 297.709 96.8063 298.975 97.0481 299.355C97.284 299.473 97.4452 299.714 97.4481 299.993C97.451 300.391 97.1315 300.716 96.7344 300.719C96.7287 300.716 96.7258 300.716 96.7229 300.716ZM97.0912 299.415H97.0941H97.0912Z" fill="#3F85BA"/>
<path d="M66.1454 350.108C61.1785 350.108 56.3728 349.823 51.8578 349.25C50.2204 349.043 48.5858 348.729 47.006 348.427C45.1643 348.073 43.2622 347.708 41.3802 347.521C40.5974 347.443 39.7888 347.328 38.9831 347.184C38.5917 347.115 38.3327 346.741 38.4018 346.349C38.4708 345.958 38.8449 345.699 39.2363 345.768C40.0075 345.906 40.7758 346.013 41.524 346.088C43.4665 346.283 45.4031 346.654 47.2765 347.014C48.8333 347.313 50.4448 347.621 52.0362 347.823C60.9829 348.957 71.1065 348.951 81.3107 347.808C84.5222 347.449 87.7855 347.054 90.9423 346.672C93.5811 346.352 96.312 346.021 98.9998 345.713C99.3969 345.664 99.7508 345.952 99.7969 346.347C99.8429 346.741 99.558 347.098 99.1638 347.144C96.4818 347.452 93.7538 347.782 91.115 348.102C87.9553 348.485 84.6891 348.882 81.4719 349.241C76.2978 349.817 71.141 350.108 66.1454 350.108Z" fill="#3F85BA"/>
<path d="M144.35 345.806C143.97 345.806 143.654 345.51 143.634 345.124C143.614 344.727 143.919 344.39 144.316 344.367C144.701 344.347 145.078 344.315 145.438 344.272L145.576 344.255C147.286 344.051 147.841 343.93 148.183 342.779C148.58 341.441 148.437 339.749 148.298 338.111C148.232 337.323 148.169 336.577 148.163 335.867C148.16 335.61 148.157 335.354 148.155 335.098C148.149 334.701 148.465 334.373 148.862 334.367C149.254 334.359 149.588 334.678 149.593 335.075C149.596 335.334 149.599 335.593 149.602 335.852C149.608 336.511 149.668 337.228 149.734 337.99C149.884 339.76 150.039 341.59 149.568 343.187C148.94 345.302 147.392 345.487 145.755 345.685L145.616 345.702C145.225 345.751 144.814 345.786 144.396 345.806C144.376 345.806 144.365 345.806 144.35 345.806Z" fill="#3F85BA"/>
<path d="M146.903 303.206C146.701 303.206 146.503 303.122 146.362 302.961C145.962 302.501 144.655 302.365 144.226 302.322C143.283 302.224 142.31 302.155 141.251 302.112C140.854 302.095 140.546 301.761 140.563 301.364C140.58 300.967 140.911 300.665 141.311 300.676C142.402 300.722 143.403 300.794 144.376 300.895C145.51 301.013 146.765 301.237 147.447 302.017C147.708 302.316 147.677 302.771 147.378 303.033C147.239 303.145 147.07 303.206 146.903 303.206Z" fill="#3F85BA"/>
<path d="M41.594 302.322C41.312 302.322 41.0473 302.158 40.9321 301.881C40.7768 301.516 40.9494 301.093 41.3149 300.938C49.2429 297.594 57.9795 298.123 65.5477 298.88C66.4139 298.966 67.2801 299.058 68.1463 299.148C71.2254 299.47 74.4052 299.807 77.539 299.928C79.6973 300.011 81.6138 299.988 83.3979 299.856C84.103 299.804 84.8022 299.677 85.5447 299.542C86.5749 299.355 87.6425 299.165 88.7216 299.191C89.1015 299.199 89.4785 299.211 89.8468 299.222C92.877 299.312 95.4928 299.389 98.4223 298.555C99.4036 298.276 100.546 298.146 101.893 298.152C102.29 298.155 102.609 298.477 102.609 298.874C102.606 299.271 102.284 299.591 101.89 299.591C101.852 299.591 101.815 299.591 101.778 299.591C100.609 299.591 99.6395 299.706 98.8165 299.939C95.6741 300.831 92.9547 300.753 89.8065 300.658C89.4382 300.647 89.067 300.635 88.6871 300.627C87.7547 300.604 86.8051 300.774 85.8037 300.958C85.0584 301.093 84.29 301.231 83.5073 301.289C81.6685 301.424 79.6973 301.45 77.4872 301.363C74.3045 301.243 71.0988 300.903 67.9966 300.578C67.1333 300.486 66.27 300.397 65.4067 300.31C58.014 299.571 49.4903 299.05 41.876 302.261C41.7811 302.304 41.6861 302.322 41.594 302.322Z" fill="#3F85BA"/>
<path d="M25.6697 308.485C25.4424 308.485 25.2179 308.376 25.0798 308.177C24.8755 307.884 24.9186 307.481 25.1805 307.236C25.5114 306.931 25.8654 306.69 26.2078 306.457L26.3344 306.37C26.5157 306.247 26.7373 306.215 26.933 306.272C27.051 306.206 27.1718 306.14 27.2927 306.074C30.1013 304.531 33.5948 302.615 36.6192 302.531C37.0192 302.526 37.3473 302.834 37.3588 303.231C37.3703 303.628 37.0566 303.959 36.6595 303.97C33.9833 304.042 30.6596 305.867 27.9862 307.334C27.2812 307.72 26.6165 308.085 25.9949 308.405C25.8913 308.459 25.7791 308.485 25.6697 308.485Z" fill="#3F85BA"/>
<path d="M24.6813 300.261C24.4942 300.261 24.31 300.189 24.169 300.045C23.8899 299.763 23.8957 299.306 24.1777 299.027C28.3273 294.949 37.6941 295.691 42.5746 296.773C42.9631 296.86 43.2077 297.242 43.1214 297.631C43.0351 298.019 42.6523 298.264 42.2638 298.178C39.4121 297.545 36.0308 297.254 33.2222 297.404C29.5301 297.599 26.7532 298.514 25.1877 300.051C25.0438 300.192 24.8626 300.261 24.6813 300.261Z" fill="#3F85BA"/>
<path d="M42.4157 231.786C42.0214 231.786 41.702 231.47 41.6962 231.075C41.6617 228.422 40.2488 225.798 38.8848 223.257C38.1107 221.815 37.3078 220.324 36.7725 218.845C36.3841 217.772 36.0013 216.702 35.6186 215.631C34.2776 211.876 32.8906 207.994 31.2532 204.241C28.9884 199.053 26.1914 194.871 21.5928 189.807C21.0749 189.234 20.4677 188.48 19.7655 187.608C17.4835 184.777 14.0361 180.495 11.4088 180.218C11.0145 180.178 10.7267 179.821 10.7699 179.427C10.8131 179.033 11.1642 178.745 11.5613 178.788C14.7843 179.128 18.3123 183.508 20.8878 186.708C21.5756 187.562 22.1712 188.299 22.6604 188.84C27.3712 194.028 30.2431 198.325 32.574 203.666C34.2316 207.461 35.6272 211.369 36.9769 215.148C37.3596 216.215 37.7394 217.286 38.1279 218.356C38.6286 219.737 39.3711 221.116 40.1567 222.578C41.6042 225.268 43.1005 228.054 43.1408 231.058C43.1466 231.455 42.8272 231.781 42.4301 231.786C42.4243 231.786 42.4185 231.786 42.4157 231.786Z" fill="#3F85BA"/>
<path d="M9.00629 246.636C8.80198 246.636 8.59766 246.55 8.45378 246.377C8.19766 246.072 8.23795 245.617 8.54299 245.364C11.0581 243.258 14.1372 241.376 17.1127 239.551C21.9328 236.599 26.914 233.548 29.8694 229.41C30.0996 229.088 30.5485 229.01 30.8737 229.243C31.196 229.473 31.2708 229.922 31.0406 230.248C27.9155 234.625 22.8076 237.755 17.8638 240.78C14.7962 242.656 11.9012 244.432 9.46672 246.469C9.33147 246.581 9.16744 246.636 9.00629 246.636Z" fill="#3F85BA"/>
<path d="M48.7687 300.874C48.4982 300.874 48.2392 300.722 48.1183 300.46C46.6968 297.433 46.7399 293.867 46.7831 290.417C46.8004 289.004 46.8176 287.669 46.7342 286.403C46.3687 280.823 45.7241 275.191 45.1514 270.351C45.0335 269.352 44.9126 268.351 44.7917 267.352C43.6435 257.787 42.4579 247.899 42.5241 238.075C42.527 237.678 42.8551 237.344 43.2493 237.361C43.6464 237.364 43.9658 237.689 43.963 238.086C43.8968 247.819 45.0795 257.66 46.2219 267.183C46.3428 268.184 46.4608 269.183 46.5817 270.184C47.1572 275.041 47.8047 280.696 48.173 286.31C48.2593 287.634 48.2421 288.995 48.2248 290.437C48.1845 293.723 48.1413 297.122 49.4219 299.85C49.5917 300.21 49.4363 300.638 49.0766 300.808C48.9759 300.851 48.8723 300.874 48.7687 300.874Z" fill="#3F85BA"/>
<path d="M60.5623 379.046C60.1854 379.046 59.8084 379.04 59.4314 379.026C56.712 378.92 53.9667 378.514 51.3106 378.12C47.6531 377.576 43.869 377.015 40.1884 377.262C39.2819 377.322 37.7654 377.426 36.7525 376.583C36.4474 376.33 36.4072 375.875 36.6604 375.57C36.9136 375.265 37.3683 375.225 37.6733 375.478C38.2431 375.953 39.3539 375.878 40.0906 375.829C43.9236 375.573 47.7855 376.146 51.5178 376.698C54.1365 377.087 56.8415 377.489 59.4832 377.59C60.8386 377.642 62.2314 377.579 63.5781 377.518C64.9882 377.455 66.4443 377.389 67.886 377.452C70.263 377.556 72.6687 377.475 74.1449 376.154C75.7334 374.735 76.1794 372.03 76.5708 369.645C76.7233 368.715 76.8672 367.838 77.0715 367.046C77.7161 364.54 77.6615 363.651 76.0759 362.983C74.5651 362.347 72.7637 362.215 70.896 362.123C68.5795 362.01 66.217 362.149 63.935 362.278C62.7781 362.344 61.5839 362.413 60.4012 362.451C60.0098 362.471 59.6731 362.151 59.6587 361.754C59.6472 361.357 59.958 361.026 60.3551 361.012C61.5206 360.974 62.7062 360.908 63.8515 360.842C66.1738 360.707 68.5709 360.569 70.9651 360.684C72.968 360.779 74.9075 360.926 76.6341 361.654C79.6183 362.911 78.9794 365.4 78.4672 367.4C78.2801 368.131 78.1391 368.977 77.9924 369.875C77.5607 372.497 77.0744 375.469 75.1061 377.225C73.2442 378.885 70.5047 379.006 67.8227 378.885C66.4472 378.825 65.0227 378.888 63.6443 378.951C62.6371 379 61.604 379.046 60.5623 379.046Z" fill="#3F85BA"/>
<path d="M54.3192 362.047C54.2559 362.047 54.1926 362.038 54.1264 362.021C51.4156 361.273 48.4142 361.376 45.5106 361.477C43.2977 361.555 41.0071 361.633 38.8085 361.345C38.4143 361.293 38.138 360.933 38.1898 360.539C38.2416 360.145 38.5985 359.866 38.9956 359.92C41.0761 360.194 43.3035 360.116 45.4588 360.041C48.4689 359.938 51.5825 359.828 54.5062 360.634C54.889 360.741 55.1134 361.135 55.0098 361.52C54.9264 361.837 54.6357 362.047 54.3192 362.047Z" fill="#3F85BA"/>
<path d="M185.214 363.664C184.886 363.664 184.586 363.437 184.511 363.103C184.425 362.715 184.67 362.332 185.055 362.243C187.939 361.595 190.917 361.437 193.798 361.282C194.534 361.241 195.271 361.201 196.008 361.155C196.396 361.132 196.747 361.431 196.773 361.826C196.799 362.223 196.497 362.565 196.103 362.591C195.363 362.64 194.621 362.677 193.878 362.718C191.058 362.87 188.14 363.026 185.375 363.647C185.32 363.659 185.265 363.664 185.214 363.664Z" fill="#3F85BA"/>
<path d="M182.068 381.32C180.378 381.32 178.684 381.234 176.994 380.98C175.466 380.75 173.699 380.405 172.194 379.59C170.557 378.704 169.452 377.398 168.81 375.599C167.671 372.399 166.629 368.753 167.567 365.95C167.628 365.766 167.622 365.481 167.616 365.208C167.602 364.566 167.579 363.369 168.891 363.055C171.941 362.324 175.348 362.299 178.643 362.273C179.659 362.264 180.617 362.258 181.561 362.229C181.955 362.218 182.289 362.532 182.301 362.929C182.312 363.326 181.999 363.657 181.601 363.668C180.643 363.697 179.676 363.703 178.652 363.711C175.438 363.737 172.117 363.763 169.222 364.457C169.078 364.491 169.038 364.5 169.052 365.179C169.061 365.559 169.069 365.988 168.928 366.408C168.025 369.116 169.469 373.168 170.163 375.116C171.225 378.091 173.645 379.024 177.207 379.559C180.528 380.06 183.961 379.875 187.279 379.697C187.895 379.662 188.514 379.631 189.129 379.602C190.551 379.533 192.217 379.625 193.987 379.723C195.515 379.806 197.092 379.89 198.577 379.875C198.968 379.872 199.299 380.189 199.305 380.586C199.308 380.983 198.991 381.308 198.594 381.314C197.063 381.329 195.46 381.242 193.912 381.159C192.183 381.064 190.551 380.977 189.201 381.041C188.588 381.07 187.973 381.104 187.36 381.136C185.616 381.225 183.846 381.32 182.068 381.32Z" fill="#3F85BA"/>
<path d="M178.79 75.6125C178.675 75.6125 178.557 75.5837 178.448 75.5233C178.099 75.3334 177.97 74.8959 178.16 74.5477C178.704 73.5492 179.366 72.6111 180.004 71.7017C180.954 70.3521 181.852 69.0744 182.425 67.5953C183.248 65.4629 183.714 63.014 184.166 60.6457C184.235 60.2803 184.304 59.9205 184.373 59.5666C184.448 59.1752 184.827 58.922 185.216 58.9968C185.607 59.0716 185.86 59.4515 185.786 59.84C185.717 60.1939 185.648 60.5536 185.578 60.9133C185.115 63.345 184.637 65.8572 183.768 68.1104C183.132 69.7564 182.143 71.1636 181.184 72.5276C180.54 73.4427 179.932 74.3089 179.426 75.2355C179.294 75.4772 179.046 75.6125 178.79 75.6125Z" fill="#693F21"/>
<path d="M143.44 48.3751C143.256 48.3751 143.069 48.3032 142.928 48.1622C142.649 47.8802 142.649 47.4255 142.931 47.1435C144.381 45.7047 144.073 40.1536 143.512 36.7724C143.446 36.381 143.713 36.0098 144.105 35.9436C144.493 35.8774 144.867 36.145 144.933 36.5364C145.187 38.0644 146.326 45.7996 143.944 48.1622C143.805 48.3061 143.624 48.3751 143.44 48.3751Z" fill="#693F21"/>
<path d="M185.583 189.477C185.58 189.477 185.577 189.477 185.574 189.477C185.177 189.471 184.858 189.146 184.863 188.749C184.898 185.929 189.243 180.573 191.111 178.401C194.101 174.922 197.974 171.161 199.882 170.602C200.829 170.326 201.269 170.812 201.416 171.034C201.634 171.365 201.539 171.811 201.209 172.03C200.932 172.211 200.575 172.176 200.337 171.966C199.916 172.05 198.642 172.763 196.224 175.071C190.576 180.467 186.325 186.752 186.302 188.766C186.296 189.16 185.977 189.477 185.583 189.477Z" fill="#3F85BA"/>
<path d="M144.077 302.342C144.063 302.342 144.046 302.342 144.031 302.342C143.634 302.317 143.335 301.974 143.361 301.577C143.488 299.617 144.161 297.658 144.814 295.761C145.116 294.884 145.401 294.052 145.623 293.249C145.767 292.731 145.954 292.153 146.155 291.543C146.48 290.544 146.852 289.416 147.059 288.4C147.139 288.012 147.519 287.761 147.908 287.839C148.296 287.92 148.546 288.299 148.469 288.688C148.244 289.784 147.862 290.956 147.522 291.991C147.326 292.587 147.142 293.148 147.01 293.635C146.777 294.481 146.483 295.33 146.175 296.23C145.554 298.037 144.912 299.905 144.797 301.672C144.771 302.049 144.454 302.342 144.077 302.342Z" fill="#3F85BA"/>
<path d="M104.381 148.248C104.283 148.248 104.183 148.228 104.088 148.185C99.7279 146.239 98.4876 140.291 97.492 135.514C97.2387 134.297 96.9999 133.146 96.7294 132.168C96.6229 131.785 96.8502 131.388 97.233 131.284C97.6157 131.178 98.0128 131.405 98.1164 131.788C98.3984 132.809 98.643 133.98 98.8991 135.221C99.8286 139.678 100.983 145.224 104.672 146.872C105.034 147.034 105.198 147.459 105.034 147.822C104.919 148.09 104.654 148.248 104.381 148.248Z" fill="#AB5F40"/>
<path d="M120.973 452.125C120.97 452.125 120.97 452.125 120.968 452.125C120.57 452.122 120.251 451.797 120.254 451.4C120.26 450.761 120.26 450.119 120.26 449.475C120.265 445.348 120.271 441.08 121.299 437.316C121.402 436.934 121.799 436.709 122.182 436.813C122.565 436.916 122.792 437.314 122.686 437.696C121.71 441.276 121.701 445.446 121.699 449.48C121.699 450.128 121.696 450.772 121.693 451.414C121.69 451.805 121.368 452.125 120.973 452.125Z" fill="#C0A78A"/>
<path d="M124.068 433.589C123.933 433.589 123.794 433.551 123.671 433.471C123.34 433.252 123.248 432.806 123.466 432.475C128.462 424.901 130.804 415.75 130.059 406.706C130.028 406.309 130.321 405.963 130.718 405.929C131.112 405.894 131.461 406.191 131.495 406.588C132.266 415.952 129.843 425.425 124.672 433.267C124.531 433.474 124.301 433.589 124.068 433.589Z" fill="#C0A78A"/>
<path d="M131.115 405.304C130.724 405.304 130.404 404.994 130.396 404.599L129.797 376.683C129.788 376.286 130.105 375.958 130.502 375.949C130.508 375.949 130.514 375.949 130.516 375.949C130.908 375.949 131.227 376.26 131.236 376.654L131.834 404.571C131.843 404.968 131.527 405.296 131.129 405.304C131.127 405.304 131.121 405.304 131.115 405.304Z" fill="#C0A78A"/>
<path d="M121.186 426.556C120.786 426.556 120.467 426.234 120.467 425.834L120.582 373.336C120.582 372.939 120.904 372.62 121.301 372.62C121.301 372.62 121.301 372.62 121.304 372.62C121.701 372.62 122.024 372.942 122.021 373.342L121.906 425.84C121.906 426.237 121.583 426.556 121.186 426.556Z" fill="#C0A78A"/>
</svg>
