<svg width="52" height="52" viewBox="0 0 52 52" fill="none" xmlns="http://www.w3.org/2000/svg">
<path d="M25.2472 0.00986405C11.4728 0.387032 -0.497816 11.9362 0.0159515 26.987C0.484143 40.7046 11.8526 52.0673 25.9882 51.9996C40.1472 52.0749 51.4866 40.6977 51.9825 27.0078C52.5314 11.8354 40.1161 -0.397008 25.2472 0.00986405ZM41.792 44.5267C37.994 47.7292 33.6401 49.6558 28.6999 50.2064C23.766 50.7562 19.0903 49.8637 14.688 47.5676C13.0611 46.7193 11.5571 45.6852 10.1636 44.4887C10.002 44.3499 9.98678 44.2366 10.0406 44.0466C10.9798 40.7385 12.8539 38.0831 15.6223 36.057C17.8086 34.4565 20.267 33.5585 22.956 33.2967C23.9752 33.1972 25.0021 33.2739 25.9605 33.2552C27.4259 33.2746 28.8284 33.1979 30.2212 33.4535C33.2493 34.0082 35.8685 35.3393 38.0714 37.4939C39.9386 39.3203 41.2223 41.4894 41.9412 43.999C42.0061 44.2242 41.9868 44.3623 41.792 44.5267ZM17.1319 22.6482C17.1415 17.8404 21.1536 13.8656 26.0206 13.8608C30.8054 13.8559 34.8362 17.8528 34.8645 22.593C34.8935 27.4637 31.0623 31.5794 26.0082 31.5863C20.9665 31.5932 17.1222 27.5003 17.1319 22.6482ZM48.279 35.8028C47.1555 38.3649 45.6149 40.6542 43.709 42.6996C43.3893 43.0422 43.3955 43.0395 43.247 42.6119C42.3383 39.9959 40.8653 37.7515 38.822 35.8795C36.7158 33.9488 34.2685 32.6701 31.4925 32.0111C31.4034 31.9904 31.3157 31.9641 31.1825 31.9289C34.7457 29.6687 36.6205 26.4855 36.4955 22.2621C36.4127 19.4589 35.2954 17.0563 33.2672 15.1201C28.8802 10.9325 22.195 11.4175 18.3762 15.4641C16.8736 17.0563 15.9358 18.9353 15.6037 21.1036C15.2736 23.2561 15.5719 25.3285 16.5111 27.2889C17.4544 29.2576 18.9073 30.7781 20.8539 31.9179C19.9776 32.1396 19.1807 32.3475 18.4128 32.6459C14.6652 34.1028 11.816 36.5924 9.85626 40.1016C9.39567 40.9271 9.00827 41.7885 8.7286 42.6913C8.62502 43.025 8.52489 42.9573 8.34189 42.7618C6.52782 40.8234 5.03969 38.6647 3.91962 36.256C2.87896 34.0178 2.19187 31.6754 1.86938 29.2279C1.75061 28.3279 1.69191 27.4236 1.66981 26.5139C1.60974 23.9877 1.93982 21.5174 2.66075 19.099C3.67793 15.6858 5.35803 12.6339 7.71971 9.96751C11.4314 5.77722 16.0422 3.14671 21.5355 2.07669C22.8793 1.81488 24.2397 1.70228 25.6118 1.67742C29.1861 1.61179 32.5995 2.31846 35.8623 3.7622C38.8565 5.08712 41.4813 6.94948 43.7111 9.34097C47.3869 13.284 49.5738 17.9364 50.1801 23.3045C50.669 27.6364 50.0303 31.808 48.279 35.8028Z" fill="#FEFEFE"/>
</svg>
