<svg width="32" height="30" viewBox="0 0 32 30" fill="none" xmlns="http://www.w3.org/2000/svg">
<path d="M24.4223 21.8785C24.4223 23.184 24.4617 24.4694 24.4131 25.7513C24.34 27.6708 22.5856 29.2984 20.6518 29.2989C15.063 29.3004 9.47426 29.2994 3.886 29.2994C1.73946 29.2994 0.0116976 27.6197 0.00862966 25.4752C-0.00261947 18.2635 -0.0031308 11.0513 0.00862966 3.83953C0.0122089 1.68379 1.74713 0 3.90594 0C9.45228 0 14.9981 0 20.5444 0C22.7043 0 24.4264 1.72112 24.4279 3.88095C24.429 4.9353 24.4249 5.99016 24.4315 7.04451C24.4325 7.20098 24.3865 7.31091 24.2776 7.42494C23.4672 8.27169 22.6649 9.1256 21.8458 9.99179C21.7921 9.89464 21.8146 9.80157 21.8146 9.71567C21.813 7.8023 21.8008 5.88841 21.8197 3.97503C21.8263 3.29037 21.3186 2.7949 20.6498 2.79694C15.0186 2.81433 9.38734 2.81331 3.75613 2.79746C3.12464 2.79592 2.61894 3.29395 2.61996 3.92595C2.62917 11.3079 2.62559 18.6899 2.62661 26.0719C2.62661 26.7729 3.05459 27.2009 3.7505 27.2009C9.39859 27.2009 15.0467 27.2009 20.6948 27.2009C21.3687 27.2009 21.8095 26.7627 21.813 26.0888C21.8151 25.6634 21.8146 25.2385 21.8125 24.813C21.812 24.7092 21.8217 24.6203 21.9015 24.5349C22.7217 23.6615 23.5367 22.7836 24.3538 21.9077C24.3635 21.898 24.3819 21.8954 24.4223 21.8785Z" fill="#1F2B35"/>
<path d="M31.9995 8.29519C32.0097 8.91543 31.8072 9.41448 31.4263 9.84552C29.9358 11.5324 28.4448 13.2192 26.9543 14.9061C25.07 17.0388 23.1827 19.169 21.3046 21.3069C20.9457 21.7154 20.5811 22.1178 20.2135 22.5182C19.5866 23.2013 18.6309 23.253 17.9411 22.6251C16.6158 21.4178 15.2976 20.2024 13.9758 18.9911C13.4752 18.5319 12.9747 18.0727 12.473 17.6141C11.7751 16.9754 11.7219 16.0254 12.3503 15.3198C12.6213 15.0155 12.8995 14.7169 13.1782 14.4193C13.8388 13.7152 14.7786 13.6779 15.4919 14.3298C16.5396 15.287 17.5873 16.2442 18.6253 17.2122C18.7853 17.3615 18.859 17.3431 18.9935 17.1902C21.4688 14.3784 23.9492 11.5712 26.4286 8.76305C26.9854 8.13259 27.5367 7.49752 28.1006 6.87371C28.7081 6.20183 29.4756 5.96611 30.3418 6.19007C31.1875 6.40891 31.7264 6.97597 31.9468 7.83295C31.9913 7.99964 31.9831 8.1694 31.9995 8.29519Z" fill="#1F2B35"/>
</svg>
