<svg width="17" height="19" viewBox="0 0 17 19" fill="none" xmlns="http://www.w3.org/2000/svg">
<path d="M0.0009069 9.12192C0.0009069 7.24813 0.00271238 5.37435 4.15978e-06 3.50056C-0.000898581 2.81834 0.145044 2.17597 0.522089 1.60071C1.19373 0.575733 2.15033 0.0262415 3.38017 0.0106616C4.99788 -0.00971217 6.61619 0.00526852 8.2342 0.00586775C8.55588 0.00586775 8.78999 0.226084 8.79119 0.525997C8.7921 0.82681 8.5637 1.04912 8.23661 1.05002C7.26977 1.05302 6.30294 1.05122 5.3361 1.05122C4.70479 1.05122 4.07377 1.04673 3.44245 1.05242C2.28574 1.06261 1.3824 1.77688 1.10827 2.89265C1.06283 3.07721 1.04809 3.26597 1.04809 3.45592C1.04839 7.23825 1.04718 11.0206 1.04899 14.8029C1.04959 15.9777 1.81963 16.9233 2.95648 17.1546C3.14335 17.1926 3.33352 17.2016 3.5243 17.2016C5.05716 17.201 6.59001 17.201 8.12286 17.2019C8.42739 17.2022 8.62027 17.3352 8.69249 17.5881C8.78457 17.9093 8.54504 18.2449 8.20923 18.2455C6.55601 18.2482 4.90279 18.2634 3.24987 18.2386C1.92013 18.2191 0.683078 17.296 0.223884 16.0592C0.0634969 15.6268 0.00120781 15.184 0.00120781 14.7283C0.000605987 12.8593 0.0009069 10.9906 0.0009069 9.12192Z" fill="white"/>
<path d="M15.1647 9.65848C15.112 9.65848 15.0596 9.65848 15.007 9.65848C11.5561 9.65848 8.10523 9.65848 4.65435 9.65848C4.32244 9.65848 4.12384 9.53444 4.0447 9.27977C3.95052 8.97626 4.15303 8.65777 4.46899 8.61733C4.54301 8.60774 4.61884 8.60714 4.69377 8.60714C8.13472 8.60654 11.5757 8.60684 15.0163 8.60684C15.0648 8.60684 15.1132 8.60684 15.1647 8.60684C15.1589 8.53643 15.1081 8.51456 15.0753 8.4819C14.3326 7.74095 13.5891 7.00091 12.8443 6.26206C12.7137 6.13233 12.6054 5.9984 12.6105 5.79826C12.6201 5.40397 13.0393 5.15918 13.3845 5.35363C13.4401 5.38509 13.4934 5.42524 13.5388 5.47018C14.623 6.54729 15.7066 7.6256 16.7893 8.70421C17.07 8.98405 17.0709 9.27138 16.7911 9.55062C15.7087 10.6295 14.6254 11.7078 13.5421 12.7862C13.2966 13.0306 12.9969 13.0468 12.7694 12.8287C12.5449 12.6136 12.5518 12.2945 12.7983 12.0482C13.5542 11.2923 14.3134 10.5396 15.0726 9.78702C15.1063 9.75346 15.1532 9.73279 15.1938 9.70612C15.1842 9.68994 15.1746 9.67406 15.1647 9.65848Z" fill="white"/>
</svg>
