<svg width="35" height="41" viewBox="0 0 35 41" fill="none" xmlns="http://www.w3.org/2000/svg">
<path d="M0.0042305 14.7991C0.0321541 13.5681 0.158203 12.3427 0.312973 11.1205C0.467743 9.89989 0.660007 8.68805 1.18894 7.55839C2.34573 5.08923 4.2692 3.37958 6.64182 2.15178C10.2223 0.300119 14.0317 -0.324548 18.0286 0.154922C20.284 0.425371 22.4157 1.07557 24.3878 2.21162C27.2782 3.8766 29.2591 6.26836 30.1941 9.49701C30.5611 10.7631 30.5842 12.0834 30.8475 13.3647C31.2998 15.5634 31.8104 17.731 33.4858 19.4031C33.8631 19.7797 34.0753 20.2855 34.1088 20.832C34.1814 22.0247 33.2496 22.9198 31.9157 22.8942C31.5184 22.8871 31.4769 23.0163 31.5743 23.3282C31.5942 23.3913 31.6086 23.4559 31.6253 23.5197C31.8248 24.2816 31.7809 24.9916 31.1738 25.5756C31.0685 25.6769 31.0932 25.7782 31.1243 25.9011C31.2631 26.4468 31.1921 26.9717 30.8124 27.3914C30.5571 27.6738 30.4964 27.9833 30.4853 28.3296C30.4789 28.5155 30.4733 28.7005 30.4733 28.8864C30.4725 30.4134 29.7074 31.4633 28.3975 32.147C27.3173 32.7102 26.1645 32.7485 24.9941 32.5076C24.2155 32.3472 23.5166 32.3799 23.0683 33.1697C23.0172 33.2599 22.9358 33.3357 22.86 33.4099C22.0152 34.2348 21.6338 35.2288 21.6857 36.4143C21.7264 37.3414 21.6761 38.2676 21.3913 39.1651C21.1312 39.9876 20.7834 40.1783 19.9649 39.935C17.3856 39.1699 14.8064 38.4064 12.2271 37.6421C10.3435 37.0845 8.45918 36.5284 6.5756 35.9692C5.99242 35.7961 5.7834 35.4753 5.84563 34.8786C5.88153 34.5356 5.92221 34.1933 5.94056 33.8495C6.11767 30.5929 5.41243 27.5254 3.97641 24.6087C3.14113 22.911 2.10241 21.329 1.21048 19.664C0.393551 18.1394 -0.0476265 16.5343 0.0042305 14.7991ZM2.73585 18.8774C3.61182 20.4913 4.61703 22.0318 5.43556 23.6785C6.46551 25.7503 7.19468 27.9211 7.51061 30.2155C7.68931 31.5159 7.77787 32.8275 7.6215 34.1399C7.59039 34.3983 7.659 34.4989 7.92227 34.5762C11.8067 35.7171 15.6871 36.8715 19.5668 38.0299C19.8213 38.1057 19.9034 38.0426 19.9274 37.7889C20.0024 37.0095 19.9122 36.2261 20.0215 35.4458C20.1212 34.7278 20.3247 34.0529 20.6932 33.433C21.1639 32.6416 21.7814 31.9619 22.4324 31.3221C23.0994 30.6655 23.9594 30.6918 24.8226 30.7628C25.5709 30.8235 26.3033 31.0556 27.0715 30.908C28.1837 30.6942 28.7142 30.1023 28.7716 28.9574C28.7972 28.4556 28.7501 27.9514 28.8482 27.4504C28.92 27.0866 29.0572 26.7603 29.3245 26.513C29.4904 26.359 29.4833 26.2426 29.3652 26.0822C29.295 25.9865 29.2359 25.882 29.1809 25.7767C28.9009 25.2405 29.1219 24.6797 29.709 24.5249C29.9922 24.4499 30.0529 24.347 29.9899 24.0662C29.8574 23.4734 29.7449 22.8751 29.6644 22.2736C29.579 21.6345 29.883 21.2811 30.5156 21.175C31.003 21.0936 31.4913 21.092 31.9819 21.092C32.1271 21.092 32.2923 21.1176 32.3728 20.9644C32.463 20.7945 32.3521 20.6485 32.242 20.5392C30.0944 18.4099 29.5104 15.6232 29.0309 12.8086C28.7932 11.4165 28.6815 10.002 28.1246 8.68087C26.8633 5.68757 24.5888 3.8032 21.5955 2.70465C19.6473 1.98983 17.6265 1.71061 14.5511 1.72337C12.3588 1.7481 9.30563 2.37117 6.54529 4.06727C4.45349 5.3525 2.90498 7.09088 2.31861 9.53929C2.03779 10.7104 1.93886 11.9159 1.80803 13.1126C1.75457 13.5992 1.74022 14.0899 1.7083 14.5789C1.60539 16.1194 2.00508 17.5307 2.73585 18.8774Z" fill="#1F2B35"/>
<path d="M11.6071 16.43C11.4154 16.5551 11.2223 16.6783 11.0329 16.807C10.9689 16.8506 10.9485 16.8035 10.917 16.7688C10.7032 16.534 10.4908 16.2983 10.2574 16.0822C9.86553 15.719 9.40938 15.4518 8.94365 15.1984C8.38151 14.8926 7.81376 14.5939 7.3233 14.177C6.11392 13.1488 5.51018 11.8164 5.42753 10.2518C5.3009 7.85943 6.68371 5.66742 8.87851 4.72403C11.3471 3.6631 14.2416 4.48701 15.7893 6.68387C16.6062 7.84349 16.9026 9.12223 16.7206 10.5241C16.6429 11.1232 16.5721 11.7243 16.6124 12.3315C16.637 12.7023 16.7322 13.0621 16.7769 13.4297C16.8306 13.8738 16.8327 14.3111 16.6226 14.7235C16.4319 15.0973 16.1297 15.3678 15.787 15.5902C14.8315 16.2104 13.8693 16.8202 12.9096 17.4339C12.6083 17.6267 12.3055 17.8172 12.0065 18.0133C11.9365 18.0592 11.8971 18.0556 11.8478 17.9858C11.741 17.8344 11.6284 17.6868 11.5133 17.5418C11.4718 17.4895 11.4628 17.4655 11.5293 17.4233C12.4208 16.8584 13.3124 16.2938 14.1991 15.7216C14.659 15.4249 15.1362 15.1544 15.5701 14.8187C15.9439 14.5292 16.0961 14.1513 16.0475 13.6805C16.0071 13.2895 15.91 12.908 15.872 12.5169C15.8121 11.8977 15.8736 11.2838 15.9436 10.6697C16.0136 10.0543 16.0703 9.43629 15.9264 8.82634C15.5552 7.25149 14.6222 6.10504 13.1495 5.46538C11.2527 4.6416 9.44084 4.88988 7.88201 6.24958C6.31073 7.62045 5.83925 9.38829 6.38613 11.3988C6.69854 12.5468 7.40652 13.4174 8.42426 14.0364C8.83934 14.2887 9.26754 14.5172 9.69261 14.7512C10.4518 15.1695 11.0594 15.7572 11.6071 16.43Z" fill="#1F2B35"/>
<path d="M9.41152 11.4616C9.1674 10.9833 9.22607 10.5605 9.59702 10.161C9.84881 9.88995 10.1549 9.68844 10.464 9.49165C11.0076 9.14563 11.5544 8.80455 12.0974 8.45735C12.1804 8.40423 12.2249 8.40373 12.2837 8.49272C12.3782 8.63586 12.489 8.7685 12.5966 8.90283C12.6473 8.96618 12.6544 9.00073 12.5717 9.05218C11.9835 9.41816 11.3985 9.78991 10.8141 10.1622C10.6466 10.269 10.4865 10.3868 10.3428 10.5248C10.043 10.8122 10.0151 11.0692 10.268 11.4005C10.6348 11.8806 11.0112 12.3535 11.3851 12.8279C12.0184 13.6314 12.6525 14.4345 13.2879 15.2364C13.3386 15.3003 13.3372 15.3312 13.262 15.3746C13.1056 15.4652 12.9544 15.5655 12.8048 15.6672C12.7399 15.7113 12.7076 15.7026 12.6575 15.6392C11.9357 14.7256 11.2083 13.8166 10.4863 12.903C10.1664 12.4983 9.82796 12.108 9.54309 11.6763C9.49676 11.6059 9.45514 11.5331 9.41152 11.4616Z" fill="#1F2B35"/>
<path d="M14.9586 19.7201C15.2833 19.7156 15.5641 19.8354 15.8494 19.9595C16.1703 20.0989 16.4974 19.8681 16.4929 19.5102C16.4912 19.3724 16.5283 19.3193 16.6631 19.2978C16.8366 19.27 17.0059 19.2166 17.1777 19.176C17.2058 19.1693 17.2495 19.1394 17.2519 19.2067C17.2674 19.6155 17.2367 20.0097 16.9455 20.3371C16.6093 20.7154 16.0972 20.8491 15.6062 20.6764C15.5315 20.6501 15.4556 20.6223 15.3869 20.584C15.0196 20.3793 14.6389 20.3747 14.2474 20.4982C14.2012 20.5127 14.1541 20.525 14.1069 20.537C13.9227 20.584 13.7732 20.5559 13.6627 20.3763C13.5728 20.2305 13.4605 20.098 13.3512 19.9655C13.2996 19.9029 13.3132 19.8777 13.3765 19.8377C14.0811 19.3913 14.784 18.9416 15.4874 18.4935C16.1128 18.095 16.7387 17.6971 17.3634 17.2978C17.5172 17.1996 17.5149 17.1975 17.609 17.3579C17.6895 17.4947 17.7697 17.6321 17.8546 17.7665C17.8906 17.8231 17.8862 17.8507 17.8261 17.8891C16.9582 18.4406 16.0918 18.9952 15.2254 19.5489C15.1361 19.6056 15.0473 19.6631 14.9586 19.7201Z" fill="#1F2B35"/>
<path d="M17.2533 16.0134C17.4445 16.3157 17.442 16.312 17.1375 16.5073C16.001 17.2369 14.8664 17.9691 13.7306 18.7001C13.4633 18.8721 13.194 19.0407 12.9284 19.2154C12.8563 19.263 12.8139 19.2669 12.7597 19.1877C12.6577 19.0386 12.5452 18.8964 12.4319 18.7554C12.3857 18.6981 12.3815 18.6684 12.4501 18.6244C13.3363 18.0603 14.2206 17.4937 15.105 16.9266C15.7032 16.5429 16.2994 16.1565 16.8987 15.775C17.0905 15.6528 17.0444 15.6616 17.1454 15.8309C17.1822 15.8913 17.2175 15.9525 17.2533 16.0134Z" fill="#1F2B35"/>
<path d="M13.0026 9.92023C13.3314 10.7933 13.6736 11.7023 14.0163 12.6111C14.2264 13.1689 14.4346 13.7273 14.6503 14.2831C14.6945 14.3969 14.7036 14.468 14.5748 14.5324C14.4297 14.605 14.2974 14.7043 14.1613 14.7945C14.1035 14.8329 14.0719 14.8429 14.0408 14.7596C13.4786 13.2588 12.9132 11.7591 12.3471 10.2597C12.3252 10.2021 12.3233 10.1664 12.3839 10.1295C12.5388 10.0359 12.6882 9.93315 12.8408 9.83619C12.9414 9.7722 12.9423 9.77386 13.0026 9.92023Z" fill="#1F2B35"/>
</svg>
