<svg width="404" height="204" viewBox="0 0 404 204" fill="none" xmlns="http://www.w3.org/2000/svg">
<mask id="mask0_456_457" style="mask-type:alpha" maskUnits="userSpaceOnUse" x="0" y="0" width="404" height="204">
<rect width="404" height="204" fill="#C4C4C4"/>
</mask>
<g mask="url(#mask0_456_457)">
<path d="M304.944 -30.3047C278.857 -55.6088 243.119 -71 203.467 -71C163.815 -71 128.076 -55.3479 101.989 -30.3047C75.9026 -5.00055 59.9897 29.6948 59.9897 68.3031C59.9897 106.912 76.1635 141.607 101.989 166.911C128.076 192.215 163.815 207.606 203.467 207.606C243.119 207.606 278.857 191.954 304.944 166.911C331.031 141.607 346.944 106.912 346.944 68.3031C347.205 29.9556 331.031 -5.00055 304.944 -30.3047ZM200.336 -64.2174V-38.6525C172.945 -37.8699 148.163 -27.4351 129.38 -10.7396L110.859 -29.2612C134.598 -50.1306 165.902 -63.4348 200.336 -64.2174ZM195.641 71.6945L186.25 81.0857C182.337 77.9553 181.815 75.6075 181.815 75.6075V72.9988L173.467 71.9553H195.641V71.6945ZM185.989 65.1728L187.293 57.0859L195.38 65.1728H185.989ZM173.728 84.4769C173.728 84.4769 173.206 88.9117 174.771 92.5638L164.598 102.738C157.554 95.1725 152.598 85.2596 151.293 74.564C152.076 75.0858 153.38 75.6074 154.685 76.39C168.511 84.4769 173.728 84.4769 173.728 84.4769ZM140.337 96.216C138.772 91.2595 139.293 90.216 130.163 86.8247C121.033 83.4335 126.511 77.4335 126.511 77.4335C126.511 77.4335 124.946 77.4335 122.076 77.4335C121.815 75.6074 121.815 73.7814 121.554 71.9553H137.728C138.772 72.9988 139.815 72.9988 139.815 72.9988L140.859 71.9553H144.25C145.033 85.7813 150.772 98.3029 159.902 107.694L146.859 120.737C145.033 119.694 143.467 118.651 142.685 117.868C139.815 116.042 142.946 114.738 142.946 107.694C142.685 100.651 141.902 101.172 140.337 96.216ZM116.076 81.6074L107.728 82.9117L106.685 87.6074C106.685 87.6074 105.642 90.9987 103.815 95.4334C101.729 87.8683 100.424 79.7814 99.9024 71.6945H114.772C114.772 73.7814 115.033 75.8683 115.294 77.6944C108.772 78.7378 116.076 81.6074 116.076 81.6074ZM115.033 65.1728H100.163C100.946 39.3469 111.902 16.1297 129.12 -1.08751L139.293 9.0863C124.946 23.6949 115.815 43.2599 115.033 65.1728ZM154.163 71.6945V72.7379C154.163 74.0423 152.598 74.0422 151.032 73.5205C151.032 72.9988 151.032 72.2162 150.772 71.6945H154.163ZM151.032 65.1728C151.032 64.1293 151.293 63.3467 151.293 62.3032L153.38 65.1728H151.032ZM152.598 38.5643L149.728 40.3904C149.728 40.3904 143.467 44.3034 142.424 47.9555C140.076 51.6077 136.685 58.6511 136.424 65.1728H122.076C122.859 45.3469 131.207 27.347 144.511 13.7819L160.163 29.4339C157.032 32.0426 154.685 35.4339 152.598 38.5643ZM163.032 35.6947C163.554 35.173 164.076 34.6513 164.598 34.1296L166.424 35.9556L163.032 35.6947ZM164.598 24.7383L148.946 9.0863C162.771 -2.65273 180.51 -10.2179 200.075 -11.0005V10.6515C186.771 11.4341 174.25 16.6515 164.598 24.7383ZM144.25 4.39064L134.076 -5.78317C151.815 -21.1743 174.771 -31.0873 200.336 -31.8699V-17.7831C178.684 -17.0005 159.38 -8.65272 144.25 4.39064ZM67.0332 68.3031C67.0332 32.0426 81.9026 -0.565773 106.163 -24.5656L124.685 -6.04405C106.163 12.4775 94.6851 37.5208 93.6416 65.1728H67.8158V71.9553H93.6416C93.9025 80.8248 95.2068 89.1725 97.5546 97.2594C95.9894 97.2594 94.4242 96.7377 87.3808 95.6942L77.9896 96.9985C77.9896 96.9985 84.2504 113.172 87.12 114.477C88.6852 115.781 94.946 118.39 94.946 118.39C94.946 118.39 97.8155 120.737 102.772 125.955C107.728 131.172 107.207 131.172 111.902 133.52C116.859 135.868 117.902 135.868 120.772 139.259C122.337 141.085 123.12 141.868 124.424 143.172L106.424 161.172C81.9026 137.433 67.0332 104.564 67.0332 68.3031ZM200.336 201.085C165.902 200.302 134.598 186.998 110.859 165.868L129.38 147.346C148.163 164.041 172.945 174.476 200.336 175.259V201.085ZM200.336 168.737C174.771 167.954 151.815 158.302 134.076 142.65C135.902 142.65 142.946 142.129 148.424 141.346C154.685 140.303 155.206 140.563 155.206 140.563C168.25 148.911 183.641 153.868 200.336 154.65V168.737ZM158.858 134.824L158.598 126.477C158.598 126.477 155.989 125.433 152.859 123.868L164.598 112.129C171.119 117.607 179.206 122.042 187.815 124.39V124.911C187.815 124.911 188.076 129.346 185.206 132.998C182.337 136.65 174.25 135.868 182.858 138.998C191.467 143.172 200.336 147.868 200.336 147.868C184.945 147.346 170.858 142.65 158.858 134.824ZM200.336 102.999V109.52L195.641 112.129L194.597 118.651H194.336C193.554 117.085 191.206 112.912 189.902 117.607C182.337 115.52 175.554 112.129 169.554 107.172L180.51 96.216C187.293 97.5203 181.554 97.7812 190.423 97.5203C194.336 97.5203 197.206 97.5203 199.293 97.5203C199.554 97.5203 200.076 97.7812 200.336 97.7812V102.999V102.999ZM200.336 47.4338V60.4771L192.249 52.3903L200.336 47.4338ZM200.336 33.0861C186.25 33.6078 200.336 28.3905 180.25 38.8252L177.902 37.7817L169.293 29.173C177.641 22.3905 187.815 17.9558 199.293 17.1732H200.075L200.597 31.26C200.858 32.5644 200.858 33.0861 200.336 33.0861ZM207.119 -42.5655C207.119 -38.6525 215.728 -38.1307 215.728 -38.1307C215.728 -38.1307 214.945 -43.8698 218.597 -43.8698C222.249 -43.8698 228.249 -45.1741 228.249 -45.1741L229.032 -57.174C222.771 -57.6958 225.38 -59.5218 221.206 -57.6958C217.032 -55.8697 222.51 -57.174 214.684 -54.3045C207.38 -51.4349 207.119 -46.4784 207.119 -42.8263V-64.2174C241.553 -63.4348 272.857 -50.1306 296.596 -29.0003L281.205 -13.6092L274.423 -20.3918C267.64 -27.1743 271.031 -29.0004 271.292 -31.8699C269.727 -41.2611 264.51 -28.4786 264.51 -28.4786L259.814 -32.3916C259.814 -32.3916 247.032 -30.0438 251.988 -27.696C253.814 -26.9134 255.119 -26.3916 255.901 -25.8699C241.293 -33.4351 224.597 -38.1307 207.119 -38.6525V-42.5655V-42.5655ZM299.466 30.2166C304.162 40.9121 306.77 52.6511 307.031 64.9119H292.162C291.379 43.2599 282.249 23.434 267.64 8.82542L272.075 4.39064C273.379 6.21671 274.684 7.78197 275.205 9.0863C277.292 14.5645 282.51 14.0428 293.466 18.9992L293.988 19.2601C296.075 22.9123 297.901 26.3036 299.466 30.2166C299.205 30.2166 299.205 30.4774 299.205 30.4774C299.205 30.4774 299.205 30.4774 299.466 30.2166ZM253.292 113.433L251.988 112.129C251.466 111.085 251.466 109.52 252.249 107.172C253.292 104.042 253.032 102.477 252.51 101.433C254.336 98.8246 256.162 95.9551 257.466 92.8247L262.162 88.1291L274.162 90.4769C274.162 90.4769 279.64 90.4769 282.77 88.9117C279.118 101.955 272.336 113.694 262.945 123.346L257.727 118.129C259.032 118.39 260.075 118.39 260.075 117.346C257.466 115.259 254.858 114.477 253.292 113.433ZM267.64 65.1728V64.651C268.944 58.1293 268.944 58.9119 270.249 54.4772C271.553 49.7816 274.684 47.1729 272.075 44.5643C268.684 43.5208 265.814 42.4773 264.51 36.2165C262.945 29.9557 253.553 29.9557 253.553 29.9557L248.075 29.6948L247.553 29.173L263.205 13.521C276.51 27.0861 284.857 45.086 285.64 64.9119H267.64V65.1728ZM285.64 71.6945C285.379 75.8683 284.857 80.0422 284.075 83.9552C281.727 82.9117 276.249 84.2161 276.249 84.2161C276.249 84.2161 268.162 77.1727 265.814 71.6945H285.64ZM252.249 121.781C244.423 121.52 247.292 126.737 243.119 120.998C238.945 115.259 241.814 118.39 238.945 115.259C239.466 114.998 239.988 114.477 240.249 114.216C241.553 114.477 243.119 114.738 245.206 114.738L252.249 121.781ZM263.988 145.781C263.988 142.389 271.292 141.085 268.162 137.694L273.379 142.911C269.466 146.302 265.031 149.694 260.597 152.563C260.597 152.042 263.988 148.911 263.988 145.781ZM267.901 127.781C282.249 113.172 291.379 93.3465 292.423 71.6945H307.292C306.509 97.5203 295.553 120.738 278.336 137.955L267.901 127.781ZM207.119 -31.8699C224.597 -31.3482 240.771 -26.6526 255.119 -18.8265C251.988 -13.3483 258.249 -17.2613 255.64 -12.8265C253.032 -8.39179 260.336 -8.13096 260.336 -8.13096C260.336 -8.13096 263.988 -4.7397 267.901 -0.56582L263.205 4.12984C248.336 -8.91353 228.771 -17.2613 207.38 -18.0439V-31.8699H207.119ZM207.119 -11.0005C226.684 -10.2179 244.684 -2.65273 258.249 9.0863L242.597 24.7383C232.945 16.6515 220.423 11.4341 206.858 10.6515V-11.0005H207.119ZM207.119 17.434C218.858 18.2166 229.554 22.6514 237.901 29.4339L225.38 41.9556C225.119 42.2165 222.51 44.5643 221.206 37.7817C219.901 30.7383 223.032 32.0426 222.249 27.8687C221.206 23.6948 217.032 30.2166 217.032 30.2166C217.032 30.2166 214.684 32.0426 207.119 33.0861V17.434V17.434ZM233.467 93.6073L227.206 87.3465C227.727 78.2161 232.162 88.6508 232.162 88.6508L233.467 93.6073ZM211.815 65.1728L216.249 60.738L216.51 65.1728H211.815ZM216.51 71.6945V76.39L211.815 71.6945H216.51ZM207.119 51.6076C212.336 53.6946 212.075 55.2598 211.554 55.7815L207.119 60.4771V51.6076ZM207.119 76.6509L211.815 81.3465C211.815 81.3465 209.988 82.1292 207.119 83.4335V76.6509ZM214.945 113.955C223.032 113.955 225.38 115.259 225.38 115.259L227.206 109.259V100.651C227.206 99.3464 227.206 98.3029 226.945 96.7377L232.684 102.477L234.771 109.52C232.423 111.085 230.075 112.651 227.727 113.955L225.119 115.259C220.684 117.346 215.728 118.651 210.51 119.433L206.597 114.216H214.945V113.955ZM207.119 154.65C210.51 154.389 213.901 154.129 217.293 153.607L223.554 166.911C218.336 167.955 212.858 168.476 207.119 168.737V154.65V154.65ZM207.119 201.085V175.52C215.206 175.259 223.032 174.215 230.597 172.389L236.075 176.563L247.553 178.911C247.553 178.911 248.075 181.259 251.727 174.737C255.64 168.215 257.205 170.563 259.292 165.346C261.379 159.868 264.249 158.042 264.249 158.042C269.205 154.911 273.901 151.52 278.075 147.607L296.596 166.128C272.857 186.998 241.553 200.302 207.119 201.085ZM301.292 161.433L282.77 142.911C301.292 124.39 312.77 99.3464 313.814 71.9553H339.64V65.1728H313.814C313.292 49.7816 309.379 34.9122 302.857 21.8688C301.553 17.6949 299.988 11.1732 296.596 5.69498C292.944 -0.304968 288.249 -1.08751 287.466 -1.08751L287.205 -1.34839L285.901 -8.91353L301.292 -24.3048C325.553 -0.304969 340.422 32.3035 340.422 68.564C340.422 104.564 325.553 137.433 301.292 161.433Z" fill="white" fill-opacity="0.04"/>
<path fill-rule="evenodd" clip-rule="evenodd" d="M56.8604 -39.1749C56.8604 -39.1749 39.1214 0.737853 41.4692 13.2595C43.8171 9.08561 47.4692 4.65086 52.9474 0.216119C70.9472 -13.6099 77.2081 -20.1316 77.2081 -20.1316C77.2081 -20.1316 71.469 -2.65345 55.2952 8.82471C42.5127 17.9551 38.8606 26.0419 38.078 29.1723L37.8171 30.2159C37.8171 30.2159 15.3825 2.04217 56.8604 -39.1749ZM27.6433 -8.65343C27.6433 -8.65343 25.0346 46.9113 28.9476 51.8678C32.8606 56.8243 29.9911 50.5635 40.1649 36.7375C50.3387 22.6507 62.8604 10.3899 62.8604 10.3899C62.8604 10.3899 59.2082 29.1724 44.0779 49.52C28.9476 69.8677 29.4693 77.6937 29.4693 77.6937C29.4693 77.6937 23.9911 63.0851 17.9912 50.8244C12.513 38.8245 10.426 14.8246 27.6433 -8.65343ZM9.90429 38.8245C9.90429 38.8245 21.3825 84.998 28.4259 92.0414C35.4693 99.0848 33.1215 78.998 41.991 64.9112C50.8605 50.8243 52.1648 48.9983 52.1648 48.9983C52.1648 48.9983 50.0779 85.2588 43.2953 101.433C36.7736 117.606 39.6432 130.389 39.6432 130.389C39.6432 130.389 14.8608 106.128 6.77389 82.3893C-1.05213 58.9113 4.94781 43.5201 9.90429 38.8245ZM8.07822 98.8239C8.07822 98.8239 33.6432 140.824 42.2518 145.78C50.8605 150.737 46.6866 136.65 48.2518 120.215C49.5561 103.52 52.4257 95.9544 52.4257 95.9544C52.4257 95.9544 59.73 130.65 61.0343 145.258C62.3386 159.867 64.9473 167.432 67.556 171.606C70.1647 175.78 57.643 167.432 45.3823 158.823C33.3824 150.215 5.99129 136.911 8.07822 98.8239ZM64.6864 131.954C64.6864 131.954 71.2081 157.258 72.5125 167.693C73.8168 177.867 82.6863 187.519 85.8167 190.91C88.9471 194.301 66.2516 179.432 52.1648 173.432C37.8171 167.171 22.9477 152.041 21.1216 147.867C19.2955 143.693 27.3824 185.432 61.2952 194.562C95.2079 203.693 106.425 206.04 106.425 206.04C106.425 206.04 87.6428 188.301 87.121 175.519C86.5993 162.997 76.9472 140.302 64.6864 131.954ZM52.4257 194.823C52.4257 194.823 63.9038 204.736 91.2949 209.171C118.947 213.345 129.642 212.562 129.642 212.562C129.642 212.562 106.947 197.693 101.469 188.823C95.9905 179.954 92.3384 166.649 92.3384 166.649C92.3384 166.649 101.99 188.562 125.469 198.997C148.686 209.432 149.468 213.606 158.86 212.562C168.251 211.519 129.382 230.04 95.4688 222.214C61.556 214.388 55.8169 203.171 52.4257 194.823ZM86.0776 226.388C86.0776 226.388 93.9036 239.431 120.773 231.605C147.642 223.779 154.164 217.519 168.772 213.345C183.381 209.171 194.598 211.258 194.598 211.258C194.598 211.258 184.164 213.084 166.946 225.084C149.729 237.084 143.99 247.257 122.599 246.475C101.208 245.431 87.6428 231.866 86.0776 226.388ZM350.075 -39.1749C350.075 -39.1749 367.814 0.737853 365.466 13.2595C363.119 9.08561 359.467 4.65086 353.988 0.216119C335.988 -13.6099 329.728 -20.1316 329.728 -20.1316C329.728 -20.1316 335.467 -2.65345 351.64 8.82471C364.423 17.9551 368.075 26.0419 368.858 29.1723L369.119 30.2159C368.858 30.2159 391.553 2.04217 350.075 -39.1749ZM379.292 -8.65343C379.292 -8.65343 381.901 46.9113 377.988 51.8678C374.075 56.8243 376.945 50.5635 366.771 36.7375C356.597 22.6507 344.075 10.3899 344.075 10.3899C344.075 10.3899 347.727 29.1724 362.858 49.52C377.988 69.8677 377.466 77.6937 377.466 77.6937C377.466 77.6937 382.945 63.0851 388.945 50.8244C394.423 38.8245 396.51 14.8246 379.292 -8.65343ZM397.031 38.8245C397.031 38.8245 385.553 84.998 378.51 92.0414C371.466 99.0848 373.814 78.998 364.945 64.9112C356.075 50.8243 354.771 48.9983 354.771 48.9983C354.771 48.9983 356.858 85.2588 363.64 101.433C370.162 117.606 367.293 130.389 367.293 130.389C367.293 130.389 392.075 106.128 400.162 82.3893C407.988 58.9113 401.988 43.5201 397.031 38.8245ZM398.597 98.8239C398.597 98.8239 373.032 140.824 364.423 145.78C355.814 150.737 359.988 136.65 358.423 120.215C357.119 103.52 354.249 95.9544 354.249 95.9544C354.249 95.9544 346.945 130.65 345.641 145.258C344.336 159.867 341.728 167.432 339.119 171.606C336.51 175.78 349.032 167.432 361.293 158.823C373.553 150.215 400.684 136.911 398.597 98.8239ZM342.249 131.954C342.249 131.954 335.728 157.258 334.423 167.693C333.119 177.867 324.249 187.519 321.119 190.91C317.989 194.301 340.684 179.432 354.771 173.432C369.119 167.171 383.988 152.041 385.814 147.867C387.64 143.693 379.553 185.432 345.641 194.562C311.728 203.693 300.511 206.04 300.511 206.04C300.511 206.04 319.293 188.301 319.815 175.519C320.336 162.997 329.728 140.302 342.249 131.954ZM354.51 194.823C354.51 194.823 343.032 204.736 315.641 209.171C287.989 213.345 277.293 212.562 277.293 212.562C277.293 212.562 299.989 197.693 305.467 188.823C310.945 179.954 314.597 166.649 314.597 166.649C314.597 166.649 304.945 188.562 281.467 198.997C258.25 209.432 257.467 213.606 248.076 212.562C238.685 211.519 277.554 230.04 311.467 222.214C345.119 214.388 351.119 203.171 354.51 194.823ZM320.858 226.388C320.858 226.388 313.032 239.431 286.163 231.605C259.293 223.779 252.772 217.519 238.163 213.345C223.555 209.171 212.337 211.258 212.337 211.258C212.337 211.258 222.772 213.084 239.989 225.084C257.207 237.084 262.946 247.257 284.337 246.475C305.467 245.431 319.293 231.866 320.858 226.388ZM251.989 250.127C251.989 250.127 226.685 228.736 212.598 219.866C197.207 210.214 209.468 210.214 194.077 219.866C179.99 228.736 154.686 250.127 154.686 250.127C154.686 250.127 149.729 251.953 151.555 253.779C153.642 255.866 161.207 257.692 163.555 252.736C166.946 245.171 192.251 226.388 203.207 218.562C214.163 226.649 239.468 245.431 242.859 252.736C245.207 257.692 252.772 256.127 254.859 253.779C256.946 251.692 251.989 250.127 251.989 250.127ZM309.119 -54.8269C309.119 -54.8269 328.162 -29.7837 334.684 -24.0446C341.206 -18.3055 356.597 -4.21866 356.597 -4.21866C356.597 -4.21866 350.858 -45.6965 309.119 -54.8269ZM97.8166 -54.8269C97.8166 -54.8269 78.7733 -29.7837 72.2516 -24.0446C65.7299 -18.3055 50.3387 -4.21866 50.3387 -4.21866C50.3387 -4.21866 55.8169 -45.6965 97.8166 -54.8269Z" fill="white" fill-opacity="0.04"/>
</g>
</svg>
